<svg xmlns="http://www.w3.org/2000/svg" xmlns:xlink="http://www.w3.org/1999/xlink" contentStyleType="text/css" data-diagram-type="ACTIVITY" height="996px" preserveAspectRatio="none" style="width:903px;height:996px;background:#FFFFFF;" version="1.1" viewBox="0 0 903 996" width="903px" zoomAndPan="magnify"><?plantuml 1.2026.4beta2?><defs/><g><g class="title" data-source-line="1"><text fill="#000000" font-family="sans-serif" font-size="14" font-weight="700" lengthAdjust="spacing" textLength="259.8887" x="320.8887" y="32.9951">Create the Experiment definition</text></g><ellipse cx="454.833" cy="62.2969" fill="#222222" rx="10" ry="10" style="stroke:#222222;stroke-width:1;"/><rect fill="#F1F1F1" height="33.9688" rx="12.5" ry="12.5" style="stroke:#181818;stroke-width:0.5;" width="338.9961" x="285.335" y="92.2969"/><text fill="#000000" font-family="sans-serif" font-size="12" lengthAdjust="spacing" textLength="177.1758" x="295.335" y="113.4355">Start drafting the Experiment</text><text fill="#000000" font-family="monospace" font-size="12" lengthAdjust="spacing" textLength="79.4707" x="476.3252" y="113.4355">record.json</text><text fill="#000000" font-family="sans-serif" font-size="12" lengthAdjust="spacing" textLength="54.7207" x="559.6104" y="113.4355">structure</text><polygon fill="#F1F1F1" points="319.8643,146.2656,589.8018,146.2656,599.8018,163.25,589.8018,180.2344,319.8643,180.2344" style="stroke:#181818;stroke-width:0.5;"/><text fill="#000000" font-family="sans-serif" font-size="12" lengthAdjust="spacing" textLength="106.3535" x="329.8643" y="167.4043">Initial Experiment</text><text fill="#000000" font-family="monospace" font-size="12" lengthAdjust="spacing" textLength="79.4707" x="440.0322" y="167.4043">record.json</text><text fill="#000000" font-family="sans-serif" font-size="12" lengthAdjust="spacing" textLength="56.4844" x="523.3174" y="167.4043">definition</text><line style="stroke:#181818;stroke-width:1.5;" x1="195.2246" x2="695.5874" y1="200.2344" y2="200.2344"/><polygon fill="#F1F1F1" points="107.1631,448.1406,293.2861,448.1406,283.2861,465.125,293.2861,482.1094,107.1631,482.1094" style="stroke:#181818;stroke-width:0.5;"/><text fill="#000000" font-family="sans-serif" font-size="12" lengthAdjust="spacing" textLength="156.123" x="117.1631" y="469.2793">OSC Workflow Record link</text><rect fill="#F1F1F1" height="47.9375" rx="12.5" ry="12.5" style="stroke:#181818;stroke-width:0.5;" width="358.4492" x="16" y="517.1094"/><text fill="#000000" font-family="sans-serif" font-size="12" lengthAdjust="spacing" textLength="298.9512" x="26" y="538.248">Enrich Experiment Metadata with OSC Properties:</text><ellipse cx="31.5" cy="547.5469" fill="#000000" rx="2.5" ry="2.5"/><text fill="#000000" font-family="monospace" font-size="12" lengthAdjust="spacing" textLength="57.7969" x="38" y="552.2168">link.rel</text><text fill="#000000" font-family="sans-serif" font-size="12" lengthAdjust="spacing" textLength="10.0547" x="99.6113" y="552.2168">=</text><text fill="#000000" font-family="monospace" font-size="12" lengthAdjust="spacing" textLength="50.5723" x="113.4805" y="552.2168">related</text><text fill="#000000" font-family="sans-serif" font-size="12" lengthAdjust="spacing" textLength="196.582" x="167.8672" y="552.2168">to the previous Workflow Record</text><polygon fill="#F1F1F1" points="668.853,220.2344,732.3218,220.2344,722.3218,237.2188,732.3218,254.2031,668.853,254.2031" style="stroke:#181818;stroke-width:0.5;"/><text fill="#000000" font-family="sans-serif" font-size="12" lengthAdjust="spacing" textLength="33.4688" x="678.853" y="241.373">Job Id</text><rect fill="#F1F1F1" height="33.9688" rx="12.5" ry="12.5" style="stroke:#181818;stroke-width:0.5;" width="174.8867" x="608.144" y="274.2031"/><text fill="#000000" font-family="sans-serif" font-size="12" lengthAdjust="spacing" textLength="57.1523" x="618.144" y="295.3418">Access to</text><text fill="#000000" font-family="monospace" font-size="12" lengthAdjust="spacing" textLength="93.9199" x="679.1108" y="295.3418">/jobs/{jobId}</text><rect fill="#F1F1F1" height="33.9688" rx="12.5" ry="12.5" style="stroke:#181818;stroke-width:0.5;" width="199.7188" x="595.728" y="372.1719"/><text fill="#000000" font-family="sans-serif" font-size="12" lengthAdjust="spacing" textLength="179.7188" x="605.728" y="393.3105">Wait the job execution is over</text><polygon fill="#F1F1F1" points="644.75,328.1719,746.4248,328.1719,758.4248,340.1719,746.4248,352.1719,644.75,352.1719,632.75,340.1719,644.75,328.1719" style="stroke:#181818;stroke-width:0.5;"/><text fill="#000000" font-family="sans-serif" font-size="11" lengthAdjust="spacing" textLength="101.6748" x="644.75" y="343.98">status == running</text><polygon fill="#F1F1F1" points="633.5217,449.7344,757.6531,449.7344,769.6531,461.7344,757.6531,473.7344,633.5217,473.7344,621.5217,461.7344,633.5217,449.7344" style="stroke:#181818;stroke-width:0.5;"/><text fill="#000000" font-family="sans-serif" font-size="11" lengthAdjust="spacing" textLength="124.1313" x="633.5217" y="465.5425">status == succeeded?</text><text fill="#000000" font-family="sans-serif" font-size="11" lengthAdjust="spacing" textLength="19.0083" x="602.5134" y="459.1401">yes</text><text fill="#000000" font-family="sans-serif" font-size="11" lengthAdjust="spacing" textLength="13.7017" x="769.6531" y="459.1401">no</text><rect fill="#F1F1F1" height="33.9688" rx="12.5" ry="12.5" style="stroke:#181818;stroke-width:0.5;" width="127.4199" x="509.0732" y="483.7344"/><text fill="#000000" font-family="sans-serif" font-size="12" lengthAdjust="spacing" textLength="107.4199" x="519.0732" y="504.873">Extract the inputs</text><polygon fill="#F1F1F1" points="490.3291,552.7031,655.2373,552.7031,665.2373,569.6875,655.2373,586.6719,490.3291,586.6719" style="stroke:#181818;stroke-width:0.5;"/><text fill="#000000" font-family="monospace" font-size="12" lengthAdjust="spacing" textLength="122.8184" x="500.3291" y="573.8418">input.(yaml|json)</text><text fill="#000000" font-family="sans-serif" font-size="12" lengthAdjust="spacing" textLength="18.2754" x="626.9619" y="573.8418">file</text><rect fill="#F1F1F1" height="47.9375" rx="12.5" ry="12.5" style="stroke:#181818;stroke-width:0.5;" width="320.668" x="412.4492" y="606.6719"/><text fill="#000000" font-family="sans-serif" font-size="12" lengthAdjust="spacing" textLength="298.9512" x="422.4492" y="627.8105">Enrich Experiment Metadata with OSC Properties:</text><ellipse cx="427.9492" cy="637.1094" fill="#000000" rx="2.5" ry="2.5"/><text fill="#000000" font-family="monospace" font-size="12" lengthAdjust="spacing" textLength="57.7969" x="434.4492" y="641.7793">link.rel</text><text fill="#000000" font-family="sans-serif" font-size="12" lengthAdjust="spacing" textLength="10.0547" x="496.0605" y="641.7793">=</text><text fill="#000000" font-family="monospace" font-size="12" lengthAdjust="spacing" textLength="36.123" x="509.9297" y="641.7793">input</text><text fill="#000000" font-family="sans-serif" font-size="12" lengthAdjust="spacing" textLength="173.25" x="549.8672" y="641.7793">to the previously created file</text><rect fill="#F1F1F1" height="131.75" rx="12.5" ry="12.5" style="stroke:#181818;stroke-width:0.5;" width="318.9512" x="413.3076" y="674.6094"/><text fill="#000000" font-family="sans-serif" font-size="12" lengthAdjust="spacing" textLength="298.9512" x="423.3076" y="695.748">Enrich Experiment Metadata with OSC Properties:</text><ellipse cx="428.8076" cy="705.0469" fill="#000000" rx="2.5" ry="2.5"/><text fill="#000000" font-family="monospace" font-size="12" lengthAdjust="spacing" textLength="86.6953" x="435.3076" y="709.7168">osc:workflow</text><ellipse cx="428.8076" cy="719.0156" fill="#000000" rx="2.5" ry="2.5"/><text fill="#000000" font-family="monospace" font-size="12" lengthAdjust="spacing" textLength="144.4922" x="435.3076" y="723.6855">osc-prov:generatedBy</text><text fill="#000000" font-family="sans-serif" font-size="12" lengthAdjust="spacing" textLength="3.8145" x="579.7998" y="723.6855">,</text><ellipse cx="428.8076" cy="732.9844" fill="#000000" rx="2.5" ry="2.5"/><text fill="#000000" font-family="monospace" font-size="12" lengthAdjust="spacing" textLength="158.9414" x="435.3076" y="737.6543">osc-prov:startedAtTime</text><ellipse cx="428.8076" cy="746.9531" fill="#000000" rx="2.5" ry="2.5"/><text fill="#000000" font-family="monospace" font-size="12" lengthAdjust="spacing" textLength="144.4922" x="435.3076" y="751.623">osc-prov:endedAtTime</text><ellipse cx="428.8076" cy="760.9219" fill="#000000" rx="2.5" ry="2.5"/><text fill="#000000" font-family="monospace" font-size="12" lengthAdjust="spacing" textLength="130.043" x="435.3076" y="765.5918">osc-prov:generated</text><ellipse cx="428.8076" cy="774.8906" fill="#000000" rx="2.5" ry="2.5"/><text fill="#000000" font-family="monospace" font-size="12" lengthAdjust="spacing" textLength="202.2891" x="435.3076" y="779.5605">osc-prov:describedByWorkflow</text><ellipse cx="428.8076" cy="788.8594" fill="#000000" rx="2.5" ry="2.5"/><text fill="#000000" font-family="monospace" font-size="12" lengthAdjust="spacing" textLength="151.7168" x="435.3076" y="793.5293">osc-prov:wasEnactedBy</text><rect fill="#F1F1F1" height="33.9688" rx="12.5" ry="12.5" style="stroke:#181818;stroke-width:0.5;" width="130.5488" x="753.1172" y="483.7344"/><text fill="#000000" font-family="sans-serif" font-size="12" lengthAdjust="spacing" textLength="110.5488" x="763.1172" y="504.873">Manage exception</text><ellipse cx="818.3916" cy="563.7031" fill="none" rx="11" ry="11" style="stroke:#222222;stroke-width:1;"/><ellipse cx="818.3916" cy="563.7031" fill="#222222" rx="6" ry="6" style="stroke:#222222;stroke-width:1;"/><line style="stroke:#181818;stroke-width:1.5;" x1="195.2246" x2="695.5874" y1="826.3594" y2="826.3594"/><polygon fill="#F1F1F1" points="313.5244,846.3594,596.1416,846.3594,606.1416,863.3438,596.1416,880.3281,313.5244,880.3281" style="stroke:#181818;stroke-width:0.5;"/><text fill="#000000" font-family="sans-serif" font-size="12" lengthAdjust="spacing" textLength="119.0332" x="323.5244" y="867.498">Refined Experiment</text><text fill="#000000" font-family="monospace" font-size="12" lengthAdjust="spacing" textLength="79.4707" x="446.3721" y="867.498">record.json</text><text fill="#000000" font-family="sans-serif" font-size="12" lengthAdjust="spacing" textLength="56.4844" x="529.6572" y="867.498">definition</text><rect fill="#F1F1F1" height="33.9688" rx="12.5" ry="12.5" style="stroke:#181818;stroke-width:0.5;" width="108.1016" x="400.7822" y="900.3281"/><text fill="#000000" font-family="sans-serif" font-size="12" lengthAdjust="spacing" textLength="88.1016" x="410.7822" y="921.4668">Publish to OSC</text><ellipse cx="454.833" cy="965.2969" fill="none" rx="11" ry="11" style="stroke:#222222;stroke-width:1;"/><ellipse cx="454.833" cy="965.2969" fill="#222222" rx="6" ry="6" style="stroke:#222222;stroke-width:1;"/><line style="stroke:#181818;stroke-width:1;" x1="454.833" x2="454.833" y1="72.2969" y2="92.2969"/><polygon fill="#181818" points="450.833,82.2969,454.833,92.2969,458.833,82.2969,454.833,86.2969" style="stroke:#181818;stroke-width:1;"/><line style="stroke:#181818;stroke-width:1;" x1="454.833" x2="454.833" y1="126.2656" y2="146.2656"/><polygon fill="#181818" points="450.833,136.2656,454.833,146.2656,458.833,136.2656,454.833,140.2656" style="stroke:#181818;stroke-width:1;"/><line style="stroke:#181818;stroke-width:1;" x1="195.2246" x2="195.2246" y1="482.1094" y2="517.1094"/><polygon fill="#181818" points="191.2246,507.1094,195.2246,517.1094,199.2246,507.1094,195.2246,511.1094" style="stroke:#181818;stroke-width:1;"/><line style="stroke:#181818;stroke-width:1;" x1="695.5874" x2="695.5874" y1="254.2031" y2="274.2031"/><polygon fill="#181818" points="691.5874,264.2031,695.5874,274.2031,699.5874,264.2031,695.5874,268.2031" style="stroke:#181818;stroke-width:1;"/><line style="stroke:#181818;stroke-width:1;" x1="695.5874" x2="695.5874" y1="352.1719" y2="372.1719"/><polygon fill="#181818" points="691.5874,362.1719,695.5874,372.1719,699.5874,362.1719,695.5874,366.1719" style="stroke:#181818;stroke-width:1;"/><line style="stroke:#181818;stroke-width:1;" x1="695.5874" x2="695.5874" y1="406.1406" y2="416.1406"/><line style="stroke:#181818;stroke-width:1;" x1="695.5874" x2="807.4468" y1="416.1406" y2="416.1406"/><polygon fill="#181818" points="803.4468,387.1563,807.4468,377.1563,811.4468,387.1563,807.4468,383.1563" style="stroke:#181818;stroke-width:1;"/><line style="stroke:#181818;stroke-width:1;" x1="807.4468" x2="807.4468" y1="340.1719" y2="416.1406"/><line style="stroke:#181818;stroke-width:1;" x1="807.4468" x2="758.4248" y1="340.1719" y2="340.1719"/><polygon fill="#181818" points="768.4248,336.1719,758.4248,340.1719,768.4248,344.1719,764.4248,340.1719" style="stroke:#181818;stroke-width:1;"/><line style="stroke:#181818;stroke-width:1;" x1="632.75" x2="583.728" y1="340.1719" y2="340.1719"/><polygon fill="#181818" points="579.728,373.1563,583.728,383.1563,587.728,373.1563,583.728,377.1563" style="stroke:#181818;stroke-width:1;"/><line style="stroke:#181818;stroke-width:1;" x1="583.728" x2="583.728" y1="340.1719" y2="428.1406"/><line style="stroke:#181818;stroke-width:1;" x1="583.728" x2="695.5874" y1="428.1406" y2="428.1406"/><line style="stroke:#181818;stroke-width:1;" x1="695.5874" x2="695.5874" y1="428.1406" y2="449.7344"/><polygon fill="#181818" points="691.5874,439.7344,695.5874,449.7344,699.5874,439.7344,695.5874,443.7344" style="stroke:#181818;stroke-width:1;"/><line style="stroke:#181818;stroke-width:1;" x1="695.5874" x2="695.5874" y1="308.1719" y2="328.1719"/><polygon fill="#181818" points="691.5874,318.1719,695.5874,328.1719,699.5874,318.1719,695.5874,322.1719" style="stroke:#181818;stroke-width:1;"/><line style="stroke:#181818;stroke-width:1;" x1="572.7832" x2="572.7832" y1="517.7031" y2="552.7031"/><polygon fill="#181818" points="568.7832,542.7031,572.7832,552.7031,576.7832,542.7031,572.7832,546.7031" style="stroke:#181818;stroke-width:1;"/><line style="stroke:#181818;stroke-width:1;" x1="572.7832" x2="572.7832" y1="586.6719" y2="606.6719"/><polygon fill="#181818" points="568.7832,596.6719,572.7832,606.6719,576.7832,596.6719,572.7832,600.6719" style="stroke:#181818;stroke-width:1;"/><line style="stroke:#181818;stroke-width:1;" x1="572.7832" x2="572.7832" y1="654.6094" y2="674.6094"/><polygon fill="#181818" points="568.7832,664.6094,572.7832,674.6094,576.7832,664.6094,572.7832,668.6094" style="stroke:#181818;stroke-width:1;"/><line style="stroke:#181818;stroke-width:1;" x1="818.3916" x2="818.3916" y1="517.7031" y2="552.7031"/><polygon fill="#181818" points="814.3916,542.7031,818.3916,552.7031,822.3916,542.7031,818.3916,546.7031" style="stroke:#181818;stroke-width:1;"/><line style="stroke:#181818;stroke-width:1;" x1="621.5217" x2="572.7832" y1="461.7344" y2="461.7344"/><line style="stroke:#181818;stroke-width:1;" x1="572.7832" x2="572.7832" y1="461.7344" y2="483.7344"/><polygon fill="#181818" points="568.7832,473.7344,572.7832,483.7344,576.7832,473.7344,572.7832,477.7344" style="stroke:#181818;stroke-width:1;"/><line style="stroke:#181818;stroke-width:1;" x1="769.6531" x2="818.3916" y1="461.7344" y2="461.7344"/><line style="stroke:#181818;stroke-width:1;" x1="818.3916" x2="818.3916" y1="461.7344" y2="483.7344"/><polygon fill="#181818" points="814.3916,473.7344,818.3916,483.7344,822.3916,473.7344,818.3916,477.7344" style="stroke:#181818;stroke-width:1;"/><line style="stroke:#181818;stroke-width:1;" x1="572.7832" x2="572.7832" y1="806.3594" y2="811.3594"/><line style="stroke:#181818;stroke-width:1;" x1="572.7832" x2="695.5874" y1="811.3594" y2="811.3594"/><line style="stroke:#181818;stroke-width:1;" x1="695.5874" x2="695.5874" y1="811.3594" y2="826.3594"/><polygon fill="#181818" points="691.5874,816.3594,695.5874,826.3594,699.5874,816.3594,695.5874,820.3594" style="stroke:#181818;stroke-width:1;"/><line style="stroke:#181818;stroke-width:1;" x1="195.2246" x2="195.2246" y1="201.7344" y2="448.1406"/><polygon fill="#181818" points="191.2246,438.1406,195.2246,448.1406,199.2246,438.1406,195.2246,442.1406" style="stroke:#181818;stroke-width:1;"/><line style="stroke:#181818;stroke-width:1;" x1="695.5874" x2="695.5874" y1="201.7344" y2="220.2344"/><polygon fill="#181818" points="691.5874,210.2344,695.5874,220.2344,699.5874,210.2344,695.5874,214.2344" style="stroke:#181818;stroke-width:1;"/><line style="stroke:#181818;stroke-width:1;" x1="195.2246" x2="195.2246" y1="565.0469" y2="826.3594"/><polygon fill="#181818" points="191.2246,816.3594,195.2246,826.3594,199.2246,816.3594,195.2246,820.3594" style="stroke:#181818;stroke-width:1;"/><line style="stroke:#181818;stroke-width:1;" x1="454.833" x2="454.833" y1="180.2344" y2="200.2344"/><polygon fill="#181818" points="450.833,190.2344,454.833,200.2344,458.833,190.2344,454.833,194.2344" style="stroke:#181818;stroke-width:1;"/><line style="stroke:#181818;stroke-width:1;" x1="454.833" x2="454.833" y1="827.8594" y2="846.3594"/><polygon fill="#181818" points="450.833,836.3594,454.833,846.3594,458.833,836.3594,454.833,840.3594" style="stroke:#181818;stroke-width:1;"/><line style="stroke:#181818;stroke-width:1;" x1="454.833" x2="454.833" y1="880.3281" y2="900.3281"/><polygon fill="#181818" points="450.833,890.3281,454.833,900.3281,458.833,890.3281,454.833,894.3281" style="stroke:#181818;stroke-width:1;"/><line style="stroke:#181818;stroke-width:1;" x1="454.833" x2="454.833" y1="934.2969" y2="954.2969"/><polygon fill="#181818" points="450.833,944.2969,454.833,954.2969,458.833,944.2969,454.833,948.2969" style="stroke:#181818;stroke-width:1;"/><?plantuml-src hLDDJnin4BtxLunyIgestBs42b0EgOIAe5BEZZsRDHXxPSzc4xNzxnqxj2Mfw05nyNvuvhtdzppao2DS9zI4G1t2OjTZSayO22osBZXoCGYHIISIGjsN9zYaMt9XSzeXPK8Javqzv1YaX4nfC3GaRBXrMR2q_r_zNyO6pi_ZGFr05nVCtdj7GdszluPLJ8-jZoFSrKxmBZoMOXUUQzKY96UwbpGtIDfgqZ0wwg2WtAR8k-GmA_61PHIKMKBF6kPLbMS_B7zHh6Vi4svT7F8fVNEG1dgZNH3gIrp3qXxBkJG6Sov0Kfuzn7K--yxhqlwKabqPEyV-JzXUOlJv7D8G0Zix5Mgb6RYGSpdW3irGZ06N8MunDGA3hTr2kFObGXwO4ItQpzFI7c2onynuYnqbRGwGLLukgKXPtsUJlNxoFqeEKpvsoxZ74Ro7hPNfNrFz7aozWFR0-qQoc8qQd-EHylUlJtsAMxN1WAamNEsb_7YyLwyssalwnaodZMpoQrj_C4ytB6QJtBgGhLxHC-gy21p6GH1dwJFVWX0vfXiTz0OvS8DzdGIUlTYNj5rRLZWCWr1tPLZOipVCaxeTrjxbhYJ1LZQYSlm2?></g></svg>