<svg xmlns="http://www.w3.org/2000/svg" xmlns:xlink="http://www.w3.org/1999/xlink" contentStyleType="text/css" data-diagram-type="ACTIVITY" height="1004px" preserveAspectRatio="none" style="width:869px;height:1004px;background:#FFFFFF;" version="1.1" viewBox="0 0 869 1004" width="869px" zoomAndPan="magnify"><?plantuml 1.2026.4beta2?><defs/><g><g class="title" data-source-line="1"><text fill="#000000" font-family="sans-serif" font-size="14" font-weight="700" lengthAdjust="spacing" textLength="239.4287" x="313.9829" y="32.9951">Create the Products definition</text></g><ellipse cx="437.6973" cy="62.2969" fill="#222222" rx="10" ry="10" style="stroke:#222222;stroke-width:1;"/><rect fill="#F1F1F1" height="33.9688" rx="12.5" ry="12.5" style="stroke:#181818;stroke-width:0.5;" width="315.6992" x="279.8477" y="92.2969"/><text fill="#000000" font-family="sans-serif" font-size="12" lengthAdjust="spacing" textLength="153.8789" x="289.8477" y="113.4355">Start drafting the Product</text><text fill="#000000" font-family="monospace" font-size="12" lengthAdjust="spacing" textLength="79.4707" x="447.541" y="113.4355">record.json</text><text fill="#000000" font-family="sans-serif" font-size="12" lengthAdjust="spacing" textLength="54.7207" x="530.8262" y="113.4355">structure</text><polygon fill="#F1F1F1" points="314.377,146.2656,561.0176,146.2656,571.0176,163.25,561.0176,180.2344,314.377,180.2344" style="stroke:#181818;stroke-width:0.5;"/><text fill="#000000" font-family="sans-serif" font-size="12" lengthAdjust="spacing" textLength="83.0566" x="324.377" y="167.4043">Initial Product</text><text fill="#000000" font-family="monospace" font-size="12" lengthAdjust="spacing" textLength="79.4707" x="411.248" y="167.4043">record.json</text><text fill="#000000" font-family="sans-serif" font-size="12" lengthAdjust="spacing" textLength="56.4844" x="494.5332" y="167.4043">definition</text><line style="stroke:#181818;stroke-width:1.5;" x1="172.5957" x2="661.5693" y1="200.2344" y2="200.2344"/><polygon fill="#F1F1F1" points="115.4102,448.1406,239.7813,448.1406,229.7813,465.125,239.7813,482.1094,115.4102,482.1094" style="stroke:#181818;stroke-width:0.5;"/><text fill="#000000" font-family="sans-serif" font-size="12" lengthAdjust="spacing" textLength="94.3711" x="125.4102" y="469.2793">Experiment link</text><rect fill="#F1F1F1" height="47.9375" rx="12.5" ry="12.5" style="stroke:#181818;stroke-width:0.5;" width="313.1914" x="16" y="517.1094"/><text fill="#000000" font-family="sans-serif" font-size="12" lengthAdjust="spacing" textLength="275.6543" x="26" y="538.248">Enrich Product Metadata with OSC Properties:</text><ellipse cx="31.5" cy="547.5469" fill="#000000" rx="2.5" ry="2.5"/><text fill="#000000" font-family="monospace" font-size="12" lengthAdjust="spacing" textLength="57.7969" x="38" y="552.2168">link.rel</text><text fill="#000000" font-family="sans-serif" font-size="12" lengthAdjust="spacing" textLength="10.0547" x="99.6113" y="552.2168">=</text><text fill="#000000" font-family="monospace" font-size="12" lengthAdjust="spacing" textLength="50.5723" x="113.4805" y="552.2168">related</text><text fill="#000000" font-family="sans-serif" font-size="12" lengthAdjust="spacing" textLength="151.3242" x="167.8672" y="552.2168">to the Experiment record</text><polygon fill="#F1F1F1" points="634.835,220.2344,698.3037,220.2344,688.3037,237.2188,698.3037,254.2031,634.835,254.2031" style="stroke:#181818;stroke-width:0.5;"/><text fill="#000000" font-family="sans-serif" font-size="12" lengthAdjust="spacing" textLength="33.4688" x="644.835" y="241.373">Job Id</text><rect fill="#F1F1F1" height="33.9688" rx="12.5" ry="12.5" style="stroke:#181818;stroke-width:0.5;" width="174.8867" x="574.126" y="274.2031"/><text fill="#000000" font-family="sans-serif" font-size="12" lengthAdjust="spacing" textLength="57.1523" x="584.126" y="295.3418">Access to</text><text fill="#000000" font-family="monospace" font-size="12" lengthAdjust="spacing" textLength="93.9199" x="645.0928" y="295.3418">/jobs/{jobId}</text><rect fill="#F1F1F1" height="33.9688" rx="12.5" ry="12.5" style="stroke:#181818;stroke-width:0.5;" width="199.7188" x="561.71" y="372.1719"/><text fill="#000000" font-family="sans-serif" font-size="12" lengthAdjust="spacing" textLength="179.7188" x="571.71" y="393.3105">Wait the job execution is over</text><polygon fill="#F1F1F1" points="610.7319,328.1719,712.4067,328.1719,724.4067,340.1719,712.4067,352.1719,610.7319,352.1719,598.7319,340.1719,610.7319,328.1719" style="stroke:#181818;stroke-width:0.5;"/><text fill="#000000" font-family="sans-serif" font-size="11" lengthAdjust="spacing" textLength="101.6748" x="610.7319" y="343.98">status == running</text><polygon fill="#F1F1F1" points="599.5037,454.7656,723.635,454.7656,735.635,466.7656,723.635,478.7656,599.5037,478.7656,587.5037,466.7656,599.5037,454.7656" style="stroke:#181818;stroke-width:0.5;"/><text fill="#000000" font-family="sans-serif" font-size="11" lengthAdjust="spacing" textLength="124.1313" x="599.5037" y="470.5737">status == succeeded?</text><text fill="#000000" font-family="sans-serif" font-size="11" lengthAdjust="spacing" textLength="19.0083" x="568.4954" y="464.1714">yes</text><text fill="#000000" font-family="sans-serif" font-size="11" lengthAdjust="spacing" textLength="13.7017" x="735.635" y="464.1714">no</text><rect fill="#F1F1F1" height="47.9375" rx="12.5" ry="12.5" style="stroke:#181818;stroke-width:0.5;" width="295.6543" x="391.1914" y="536.7656"/><text fill="#000000" font-family="sans-serif" font-size="12" lengthAdjust="spacing" textLength="275.6543" x="401.1914" y="557.9043">Enrich Product Metadata with OSC Properties:</text><ellipse cx="406.6914" cy="567.2031" fill="#000000" rx="2.5" ry="2.5"/><text fill="#000000" font-family="monospace" font-size="12" lengthAdjust="spacing" textLength="57.7969" x="413.1914" y="571.873">link.rel</text><text fill="#000000" font-family="sans-serif" font-size="12" lengthAdjust="spacing" textLength="10.0547" x="474.8027" y="571.873">=</text><text fill="#000000" font-family="monospace" font-size="12" lengthAdjust="spacing" textLength="28.8984" x="488.6719" y="571.873">item</text><polygon fill="#F1F1F1" points="503.5908,488.7656,574.4463,488.7656,586.4463,500.7656,574.4463,512.7656,503.5908,512.7656,491.5908,500.7656,503.5908,488.7656" style="stroke:#181818;stroke-width:0.5;"/><text fill="#000000" font-family="sans-serif" font-size="11" lengthAdjust="spacing" textLength="70.8555" x="503.5908" y="504.5737">every output</text><rect fill="#F1F1F1" height="187.625" rx="12.5" ry="12.5" style="stroke:#181818;stroke-width:0.5;" width="295.6543" x="391.1914" y="626.7031"/><text fill="#000000" font-family="sans-serif" font-size="12" lengthAdjust="spacing" textLength="275.6543" x="401.1914" y="647.8418">Enrich Product Metadata with OSC Properties:</text><ellipse cx="406.6914" cy="657.1406" fill="#000000" rx="2.5" ry="2.5"/><text fill="#000000" font-family="monospace" font-size="12" lengthAdjust="spacing" textLength="101.1445" x="413.1914" y="661.8105">osc:experiment</text><ellipse cx="406.6914" cy="671.1094" fill="#000000" rx="2.5" ry="2.5"/><text fill="#000000" font-family="monospace" font-size="12" lengthAdjust="spacing" textLength="72.2461" x="413.1914" y="675.7793">osc:status</text><ellipse cx="406.6914" cy="685.0781" fill="#000000" rx="2.5" ry="2.5"/><text fill="#000000" font-family="monospace" font-size="12" lengthAdjust="spacing" textLength="72.2461" x="413.1914" y="689.748">osc:region</text><ellipse cx="406.6914" cy="699.0469" fill="#000000" rx="2.5" ry="2.5"/><text fill="#000000" font-family="monospace" font-size="12" lengthAdjust="spacing" textLength="57.7969" x="413.1914" y="703.7168">osc:type</text><ellipse cx="406.6914" cy="713.0156" fill="#000000" rx="2.5" ry="2.5"/><text fill="#000000" font-family="monospace" font-size="12" lengthAdjust="spacing" textLength="79.4707" x="413.1914" y="717.6855">osc:project</text><ellipse cx="406.6914" cy="726.9844" fill="#000000" rx="2.5" ry="2.5"/><text fill="#000000" font-family="monospace" font-size="12" lengthAdjust="spacing" textLength="86.6953" x="413.1914" y="731.6543">osc:missions</text><ellipse cx="406.6914" cy="740.9531" fill="#000000" rx="2.5" ry="2.5"/><text fill="#000000" font-family="monospace" font-size="12" lengthAdjust="spacing" textLength="93.9199" x="413.1914" y="745.623">osc:variables</text><ellipse cx="406.6914" cy="754.9219" fill="#000000" rx="2.5" ry="2.5"/><text fill="#000000" font-family="monospace" font-size="12" lengthAdjust="spacing" textLength="93.9199" x="413.1914" y="759.5918">osc-prov:type</text><ellipse cx="406.6914" cy="768.8906" fill="#000000" rx="2.5" ry="2.5"/><text fill="#000000" font-family="monospace" font-size="12" lengthAdjust="spacing" textLength="166.166" x="413.1914" y="773.5605">osc-prov:wasDerivedFrom</text><ellipse cx="406.6914" cy="782.8594" fill="#000000" rx="2.5" ry="2.5"/><text fill="#000000" font-family="monospace" font-size="12" lengthAdjust="spacing" textLength="158.9414" x="413.1914" y="787.5293">osc-prov:wasOutputFrom</text><ellipse cx="406.6914" cy="796.8281" fill="#000000" rx="2.5" ry="2.5"/><text fill="#000000" font-family="monospace" font-size="12" lengthAdjust="spacing" textLength="209.5137" x="413.1914" y="801.498">osc-prov:describedByParameter</text><rect fill="#F1F1F1" height="33.9688" rx="12.5" ry="12.5" style="stroke:#181818;stroke-width:0.5;" width="130.5488" x="718.8457" y="488.7656"/><text fill="#000000" font-family="sans-serif" font-size="12" lengthAdjust="spacing" textLength="110.5488" x="728.8457" y="509.9043">Manage exception</text><ellipse cx="784.1201" cy="568.7344" fill="none" rx="11" ry="11" style="stroke:#222222;stroke-width:1;"/><ellipse cx="784.1201" cy="568.7344" fill="#222222" rx="6" ry="6" style="stroke:#222222;stroke-width:1;"/><line style="stroke:#181818;stroke-width:1.5;" x1="172.5957" x2="661.5693" y1="834.3281" y2="834.3281"/><polygon fill="#F1F1F1" points="308.0371,854.3281,567.3574,854.3281,577.3574,871.3125,567.3574,888.2969,308.0371,888.2969" style="stroke:#181818;stroke-width:0.5;"/><text fill="#000000" font-family="sans-serif" font-size="12" lengthAdjust="spacing" textLength="95.7363" x="318.0371" y="875.4668">Refined Product</text><text fill="#000000" font-family="monospace" font-size="12" lengthAdjust="spacing" textLength="79.4707" x="417.5879" y="875.4668">record.json</text><text fill="#000000" font-family="sans-serif" font-size="12" lengthAdjust="spacing" textLength="56.4844" x="500.873" y="875.4668">definition</text><rect fill="#F1F1F1" height="33.9688" rx="12.5" ry="12.5" style="stroke:#181818;stroke-width:0.5;" width="157.9531" x="358.7207" y="908.2969"/><text fill="#000000" font-family="sans-serif" font-size="12" lengthAdjust="spacing" textLength="137.9531" x="368.7207" y="929.4355">Publish Product to OSC</text><ellipse cx="437.6973" cy="973.2656" fill="none" rx="11" ry="11" style="stroke:#222222;stroke-width:1;"/><ellipse cx="437.6973" cy="973.2656" fill="#222222" rx="6" ry="6" style="stroke:#222222;stroke-width:1;"/><line style="stroke:#181818;stroke-width:1;" x1="437.6973" x2="437.6973" y1="72.2969" y2="92.2969"/><polygon fill="#181818" points="433.6973,82.2969,437.6973,92.2969,441.6973,82.2969,437.6973,86.2969" style="stroke:#181818;stroke-width:1;"/><line style="stroke:#181818;stroke-width:1;" x1="437.6973" x2="437.6973" y1="126.2656" y2="146.2656"/><polygon fill="#181818" points="433.6973,136.2656,437.6973,146.2656,441.6973,136.2656,437.6973,140.2656" style="stroke:#181818;stroke-width:1;"/><line style="stroke:#181818;stroke-width:1;" x1="172.5957" x2="172.5957" y1="482.1094" y2="517.1094"/><polygon fill="#181818" points="168.5957,507.1094,172.5957,517.1094,176.5957,507.1094,172.5957,511.1094" style="stroke:#181818;stroke-width:1;"/><line style="stroke:#181818;stroke-width:1;" x1="661.5693" x2="661.5693" y1="254.2031" y2="274.2031"/><polygon fill="#181818" points="657.5693,264.2031,661.5693,274.2031,665.5693,264.2031,661.5693,268.2031" style="stroke:#181818;stroke-width:1;"/><line style="stroke:#181818;stroke-width:1;" x1="661.5693" x2="661.5693" y1="352.1719" y2="372.1719"/><polygon fill="#181818" points="657.5693,362.1719,661.5693,372.1719,665.5693,362.1719,661.5693,366.1719" style="stroke:#181818;stroke-width:1;"/><line style="stroke:#181818;stroke-width:1;" x1="661.5693" x2="661.5693" y1="406.1406" y2="416.1406"/><line style="stroke:#181818;stroke-width:1;" x1="661.5693" x2="773.4287" y1="416.1406" y2="416.1406"/><polygon fill="#181818" points="769.4287,387.1563,773.4287,377.1563,777.4287,387.1563,773.4287,383.1563" style="stroke:#181818;stroke-width:1;"/><line style="stroke:#181818;stroke-width:1;" x1="773.4287" x2="773.4287" y1="340.1719" y2="416.1406"/><line style="stroke:#181818;stroke-width:1;" x1="773.4287" x2="724.4067" y1="340.1719" y2="340.1719"/><polygon fill="#181818" points="734.4067,336.1719,724.4067,340.1719,734.4067,344.1719,730.4067,340.1719" style="stroke:#181818;stroke-width:1;"/><line style="stroke:#181818;stroke-width:1;" x1="598.7319" x2="549.71" y1="340.1719" y2="340.1719"/><polygon fill="#181818" points="545.71,373.1563,549.71,383.1563,553.71,373.1563,549.71,377.1563" style="stroke:#181818;stroke-width:1;"/><line style="stroke:#181818;stroke-width:1;" x1="549.71" x2="549.71" y1="340.1719" y2="428.1406"/><line style="stroke:#181818;stroke-width:1;" x1="549.71" x2="661.5693" y1="428.1406" y2="428.1406"/><line style="stroke:#181818;stroke-width:1;" x1="661.5693" x2="661.5693" y1="428.1406" y2="454.7656"/><polygon fill="#181818" points="657.5693,444.7656,661.5693,454.7656,665.5693,444.7656,661.5693,448.7656" style="stroke:#181818;stroke-width:1;"/><line style="stroke:#181818;stroke-width:1;" x1="661.5693" x2="661.5693" y1="308.1719" y2="328.1719"/><polygon fill="#181818" points="657.5693,318.1719,661.5693,328.1719,665.5693,318.1719,661.5693,322.1719" style="stroke:#181818;stroke-width:1;"/><line style="stroke:#181818;stroke-width:1;" x1="539.0186" x2="539.0186" y1="512.7656" y2="536.7656"/><polygon fill="#181818" points="535.0186,526.7656,539.0186,536.7656,543.0186,526.7656,539.0186,530.7656" style="stroke:#181818;stroke-width:1;"/><line style="stroke:#181818;stroke-width:1;" x1="539.0186" x2="539.0186" y1="584.7031" y2="594.7031"/><line style="stroke:#181818;stroke-width:1;" x1="539.0186" x2="698.8457" y1="594.7031" y2="594.7031"/><polygon fill="#181818" points="694.8457,558.7344,698.8457,548.7344,702.8457,558.7344,698.8457,554.7344" style="stroke:#181818;stroke-width:1;"/><line style="stroke:#181818;stroke-width:1;" x1="698.8457" x2="698.8457" y1="500.7656" y2="594.7031"/><line style="stroke:#181818;stroke-width:1;" x1="698.8457" x2="586.4463" y1="500.7656" y2="500.7656"/><polygon fill="#181818" points="596.4463,496.7656,586.4463,500.7656,596.4463,504.7656,592.4463,500.7656" style="stroke:#181818;stroke-width:1;"/><line style="stroke:#181818;stroke-width:1;" x1="491.5908" x2="379.1914" y1="500.7656" y2="500.7656"/><polygon fill="#181818" points="375.1914,544.7344,379.1914,554.7344,383.1914,544.7344,379.1914,548.7344" style="stroke:#181818;stroke-width:1;"/><line style="stroke:#181818;stroke-width:1;" x1="379.1914" x2="379.1914" y1="500.7656" y2="606.7031"/><line style="stroke:#181818;stroke-width:1;" x1="379.1914" x2="539.0186" y1="606.7031" y2="606.7031"/><line style="stroke:#181818;stroke-width:1;" x1="539.0186" x2="539.0186" y1="606.7031" y2="626.7031"/><polygon fill="#181818" points="535.0186,616.7031,539.0186,626.7031,543.0186,616.7031,539.0186,620.7031" style="stroke:#181818;stroke-width:1;"/><line style="stroke:#181818;stroke-width:1;" x1="784.1201" x2="784.1201" y1="522.7344" y2="557.7344"/><polygon fill="#181818" points="780.1201,547.7344,784.1201,557.7344,788.1201,547.7344,784.1201,551.7344" style="stroke:#181818;stroke-width:1;"/><line style="stroke:#181818;stroke-width:1;" x1="587.5037" x2="539.0186" y1="466.7656" y2="466.7656"/><line style="stroke:#181818;stroke-width:1;" x1="539.0186" x2="539.0186" y1="466.7656" y2="488.7656"/><polygon fill="#181818" points="535.0186,478.7656,539.0186,488.7656,543.0186,478.7656,539.0186,482.7656" style="stroke:#181818;stroke-width:1;"/><line style="stroke:#181818;stroke-width:1;" x1="735.635" x2="784.1201" y1="466.7656" y2="466.7656"/><line style="stroke:#181818;stroke-width:1;" x1="784.1201" x2="784.1201" y1="466.7656" y2="488.7656"/><polygon fill="#181818" points="780.1201,478.7656,784.1201,488.7656,788.1201,478.7656,784.1201,482.7656" style="stroke:#181818;stroke-width:1;"/><line style="stroke:#181818;stroke-width:1;" x1="539.0186" x2="539.0186" y1="814.3281" y2="819.3281"/><line style="stroke:#181818;stroke-width:1;" x1="539.0186" x2="661.5693" y1="819.3281" y2="819.3281"/><line style="stroke:#181818;stroke-width:1;" x1="661.5693" x2="661.5693" y1="819.3281" y2="834.3281"/><polygon fill="#181818" points="657.5693,824.3281,661.5693,834.3281,665.5693,824.3281,661.5693,828.3281" style="stroke:#181818;stroke-width:1;"/><line style="stroke:#181818;stroke-width:1;" x1="172.5957" x2="172.5957" y1="201.7344" y2="448.1406"/><polygon fill="#181818" points="168.5957,438.1406,172.5957,448.1406,176.5957,438.1406,172.5957,442.1406" style="stroke:#181818;stroke-width:1;"/><line style="stroke:#181818;stroke-width:1;" x1="661.5693" x2="661.5693" y1="201.7344" y2="220.2344"/><polygon fill="#181818" points="657.5693,210.2344,661.5693,220.2344,665.5693,210.2344,661.5693,214.2344" style="stroke:#181818;stroke-width:1;"/><line style="stroke:#181818;stroke-width:1;" x1="172.5957" x2="172.5957" y1="565.0469" y2="834.3281"/><polygon fill="#181818" points="168.5957,824.3281,172.5957,834.3281,176.5957,824.3281,172.5957,828.3281" style="stroke:#181818;stroke-width:1;"/><line style="stroke:#181818;stroke-width:1;" x1="437.6973" x2="437.6973" y1="180.2344" y2="200.2344"/><polygon fill="#181818" points="433.6973,190.2344,437.6973,200.2344,441.6973,190.2344,437.6973,194.2344" style="stroke:#181818;stroke-width:1;"/><line style="stroke:#181818;stroke-width:1;" x1="437.6973" x2="437.6973" y1="835.8281" y2="854.3281"/><polygon fill="#181818" points="433.6973,844.3281,437.6973,854.3281,441.6973,844.3281,437.6973,848.3281" style="stroke:#181818;stroke-width:1;"/><line style="stroke:#181818;stroke-width:1;" x1="437.6973" x2="437.6973" y1="888.2969" y2="908.2969"/><polygon fill="#181818" points="433.6973,898.2969,437.6973,908.2969,441.6973,898.2969,437.6973,902.2969" style="stroke:#181818;stroke-width:1;"/><line style="stroke:#181818;stroke-width:1;" x1="437.6973" x2="437.6973" y1="942.2656" y2="962.2656"/><polygon fill="#181818" points="433.6973,952.2656,437.6973,962.2656,441.6973,952.2656,437.6973,956.2656" style="stroke:#181818;stroke-width:1;"/><?plantuml-src fLDDRzim3BthLn0wDGFMtfscm_en80EA1kjXPrbY4cQsP51qqc3OVnzbRuatT8TY5ncc-DuZ7oaXQH3k69qWo1PXnIdqNZ84N5CaeHIDoU9OZAcUonS2kxLGt4ppmLf6dpXSxdAAra8Mrd3FE5VSiX2vvf_9PwqvN5-dNhfURcvKjsj8JFNmqY5JYr6WeVYjv53ybL8zH2Q_FL4_ehZWnC61P0jFptVbHk52c2lpJgKBnILZexgBeP96Um_w9sdeQA8sLZaVwm2tSHHDzJdLi0n_5l7HUyovC5XxjKjrllgkvpByi5RxFsn9JRvG5wNFi5W0zp6gWJDJVNLAN5Gr7V05VLzS0CgGziXpWp4CQ6DeFMN8lIfYmF1XLk0HBewOPx-LKB5767sS_Rz59DYMHix5l9qoPL_XoLbhJy6nfqc0SKDbAqu1ENOu-UquxT1FALhAMI5JahrZSdM3azXx1Ux_8XjZ1vVljR0zXa-SsbTkdmOdNxiCc3rJZU7sk7BiMXJamQecwnnYKlSVNNGRrE5wx8OLr-UKkc8chSi9uvQRwajv1HZU_4ggLLytbC_Jq3NK4SpD8FGJ?></g></svg>