<svg xmlns="http://www.w3.org/2000/svg" xmlns:xlink="http://www.w3.org/1999/xlink" contentStyleType="text/css" data-diagram-type="ACTIVITY" height="607px" preserveAspectRatio="none" style="width:344px;height:607px;background:#FFFFFF;" version="1.1" viewBox="0 0 344 607" width="344px" zoomAndPan="magnify"><?plantuml 1.2026.4beta2?><defs/><g><g class="title" data-source-line="1"><text fill="#000000" font-family="sans-serif" font-size="14" font-weight="700" lengthAdjust="spacing" textLength="244.0498" x="49.1025" y="32.9951">Create the Workflow definition</text></g><ellipse cx="168.7109" cy="62.2969" fill="#222222" rx="10" ry="10" style="stroke:#222222;stroke-width:1;"/><polygon fill="#F1F1F1" points="45.3057,92.2969,302.1162,92.2969,292.1162,109.2813,302.1162,126.2656,45.3057,126.2656" style="stroke:#181818;stroke-width:0.5;"/><text fill="#000000" font-family="sans-serif" font-size="12" lengthAdjust="spacing" textLength="226.8105" x="55.3057" y="113.4355">Previously created CWL Workflow link</text><rect fill="#F1F1F1" height="47.9375" rx="12.5" ry="12.5" style="stroke:#181818;stroke-width:0.5;" width="245.9844" x="45.7188" y="146.2656"/><text fill="#000000" font-family="sans-serif" font-size="12" lengthAdjust="spacing" textLength="225.9844" x="55.7188" y="167.4043">Extract Workflow Metadata from CWL</text><text fill="#000000" font-family="sans-serif" font-size="12" lengthAdjust="spacing" textLength="110.584" x="55.7188" y="181.373">w/ transpiler-mate</text><polygon fill="#F1F1F1" points="40.5068,214.2031,296.915,214.2031,306.915,231.1875,296.915,248.1719,40.5068,248.1719" style="stroke:#181818;stroke-width:0.5;"/><text fill="#000000" font-family="sans-serif" font-size="12" lengthAdjust="spacing" textLength="92.8242" x="50.5068" y="235.3418">Initial Workflow</text><text fill="#000000" font-family="monospace" font-size="12" lengthAdjust="spacing" textLength="79.4707" x="147.1455" y="235.3418">record.json</text><text fill="#000000" font-family="sans-serif" font-size="12" lengthAdjust="spacing" textLength="56.4844" x="230.4307" y="235.3418">definition</text><rect fill="#F1F1F1" height="47.9375" rx="12.5" ry="12.5" style="stroke:#181818;stroke-width:0.5;" width="305.4219" x="16" y="268.1719"/><text fill="#000000" font-family="sans-serif" font-size="12" lengthAdjust="spacing" textLength="285.4219" x="26" y="289.3105">Enrich Workflow Metadata with OSC Properties:</text><ellipse cx="31.5" cy="298.6094" fill="#000000" rx="2.5" ry="2.5"/><text fill="#000000" font-family="monospace" font-size="12" lengthAdjust="spacing" textLength="57.7969" x="38" y="303.2793">link.rel</text><text fill="#000000" font-family="sans-serif" font-size="12" lengthAdjust="spacing" textLength="10.0547" x="99.6113" y="303.2793">=</text><text fill="#000000" font-family="monospace" font-size="12" lengthAdjust="spacing" textLength="79.4707" x="113.4805" y="303.2793">application</text><text fill="#000000" font-family="sans-serif" font-size="12" lengthAdjust="spacing" textLength="42.791" x="196.7656" y="303.2793">to CWL</text><polygon fill="#F1F1F1" points="40.5068,336.1094,296.915,336.1094,306.915,353.0938,296.915,370.0781,40.5068,370.0781" style="stroke:#181818;stroke-width:0.5;"/><text fill="#000000" font-family="sans-serif" font-size="12" lengthAdjust="spacing" textLength="92.8242" x="50.5068" y="357.248">Initial Workflow</text><text fill="#000000" font-family="monospace" font-size="12" lengthAdjust="spacing" textLength="79.4707" x="147.1455" y="357.248">record.json</text><text fill="#000000" font-family="sans-serif" font-size="12" lengthAdjust="spacing" textLength="56.4844" x="230.4307" y="357.248">definition</text><rect fill="#F1F1F1" height="47.9375" rx="12.5" ry="12.5" style="stroke:#181818;stroke-width:0.5;" width="305.4219" x="16" y="390.0781"/><text fill="#000000" font-family="sans-serif" font-size="12" lengthAdjust="spacing" textLength="285.4219" x="26" y="411.2168">Enrich Workflow Metadata with OSC Properties:</text><ellipse cx="31.5" cy="420.5156" fill="#000000" rx="2.5" ry="2.5"/><text fill="#000000" font-family="monospace" font-size="12" lengthAdjust="spacing" textLength="79.4707" x="38" y="425.1855">osc:project</text><text fill="#000000" font-family="sans-serif" font-size="12" lengthAdjust="spacing" textLength="12.7793" x="121.2852" y="425.1855">ID</text><polygon fill="#F1F1F1" points="34.167,458.0156,303.2549,458.0156,313.2549,475,303.2549,491.9844,34.167,491.9844" style="stroke:#181818;stroke-width:0.5;"/><text fill="#000000" font-family="sans-serif" font-size="12" lengthAdjust="spacing" textLength="105.5039" x="44.167" y="479.1543">Refined Workflow</text><text fill="#000000" font-family="monospace" font-size="12" lengthAdjust="spacing" textLength="79.4707" x="153.4854" y="479.1543">record.json</text><text fill="#000000" font-family="sans-serif" font-size="12" lengthAdjust="spacing" textLength="56.4844" x="236.7705" y="479.1543">definition</text><rect fill="#F1F1F1" height="33.9688" rx="12.5" ry="12.5" style="stroke:#181818;stroke-width:0.5;" width="108.1016" x="114.6602" y="511.9844"/><text fill="#000000" font-family="sans-serif" font-size="12" lengthAdjust="spacing" textLength="88.1016" x="124.6602" y="533.123">Publish to OSC</text><ellipse cx="168.7109" cy="576.9531" fill="none" rx="11" ry="11" style="stroke:#222222;stroke-width:1;"/><ellipse cx="168.7109" cy="576.9531" fill="#222222" rx="6" ry="6" style="stroke:#222222;stroke-width:1;"/><line style="stroke:#181818;stroke-width:1;" x1="168.7109" x2="168.7109" y1="72.2969" y2="92.2969"/><polygon fill="#181818" points="164.7109,82.2969,168.7109,92.2969,172.7109,82.2969,168.7109,86.2969" style="stroke:#181818;stroke-width:1;"/><line style="stroke:#181818;stroke-width:1;" x1="168.7109" x2="168.7109" y1="126.2656" y2="146.2656"/><polygon fill="#181818" points="164.7109,136.2656,168.7109,146.2656,172.7109,136.2656,168.7109,140.2656" style="stroke:#181818;stroke-width:1;"/><line style="stroke:#181818;stroke-width:1;" x1="168.7109" x2="168.7109" y1="194.2031" y2="214.2031"/><polygon fill="#181818" points="164.7109,204.2031,168.7109,214.2031,172.7109,204.2031,168.7109,208.2031" style="stroke:#181818;stroke-width:1;"/><line style="stroke:#181818;stroke-width:1;" x1="168.7109" x2="168.7109" y1="248.1719" y2="268.1719"/><polygon fill="#181818" points="164.7109,258.1719,168.7109,268.1719,172.7109,258.1719,168.7109,262.1719" style="stroke:#181818;stroke-width:1;"/><line style="stroke:#181818;stroke-width:1;" x1="168.7109" x2="168.7109" y1="316.1094" y2="336.1094"/><polygon fill="#181818" points="164.7109,326.1094,168.7109,336.1094,172.7109,326.1094,168.7109,330.1094" style="stroke:#181818;stroke-width:1;"/><line style="stroke:#181818;stroke-width:1;" x1="168.7109" x2="168.7109" y1="370.0781" y2="390.0781"/><polygon fill="#181818" points="164.7109,380.0781,168.7109,390.0781,172.7109,380.0781,168.7109,384.0781" style="stroke:#181818;stroke-width:1;"/><line style="stroke:#181818;stroke-width:1;" x1="168.7109" x2="168.7109" y1="438.0156" y2="458.0156"/><polygon fill="#181818" points="164.7109,448.0156,168.7109,458.0156,172.7109,448.0156,168.7109,452.0156" style="stroke:#181818;stroke-width:1;"/><line style="stroke:#181818;stroke-width:1;" x1="168.7109" x2="168.7109" y1="491.9844" y2="511.9844"/><polygon fill="#181818" points="164.7109,501.9844,168.7109,511.9844,172.7109,501.9844,168.7109,505.9844" style="stroke:#181818;stroke-width:1;"/><line style="stroke:#181818;stroke-width:1;" x1="168.7109" x2="168.7109" y1="545.9531" y2="565.9531"/><polygon fill="#181818" points="164.7109,555.9531,168.7109,565.9531,172.7109,555.9531,168.7109,559.9531" style="stroke:#181818;stroke-width:1;"/><?plantuml-src fP6nJiGm38RtFeNL4ObZRuzR2iD9XwXWk3cahkgxN1mvBeMtnq58PM01naJ-_kztegG1eHDqYg0Jmf7bF0PUOC2H8YbnhAgiJhIgcbxmbNZEuHty9p90TpoiJA1uRc6xfPXctUsCk7zJSLxNaGTKDpXrC0fV2bqjDs0pCISAADSNIsqDt1Ut2ojOruAUPTYSCiUw_jQl67dMBwKvev2VVb0kf1CyFdVG2oSK9SnDTMN9fVT6C5ZihHrTIe6yAzbserng_glJ7ofnzaqIFg5N2zxV5VzJYRSt_xs_dry2vQdiOhAs_2Yd3m00?></g></svg>