<svg xmlns="http://www.w3.org/2000/svg" xmlns:xlink="http://www.w3.org/1999/xlink" contentStyleType="text/css" data-diagram-type="JSON" height="607px" preserveAspectRatio="none" style="width:1309px;height:607px;background:#FFFFFF;" version="1.1" viewBox="0 0 1309 607" width="1309px" zoomAndPan="magnify"><defs/><g><rect fill="#F1F1F1" height="101.4844" rx="5" ry="5" style="stroke:#F1F1F1;stroke-width:1.5;" width="255.9697" x="10" y="256.4063"/><text fill="#000000" font-family="sans-serif" font-size="14" font-weight="bold" lengthAdjust="spacing" textLength="94.0283" x="15" y="271.4014">workflow_id</text><text fill="#000000" font-family="sans-serif" font-size="14" lengthAdjust="spacing" textLength="13.3506" x="247.6191" y="271.4014">&#160;&#160;&#160;</text><line style="stroke:#000000;stroke-width:1;" x1="242.6191" x2="242.6191" y1="256.4063" y2="276.7031"/><line style="stroke:#000000;stroke-width:1;" x1="10" x2="265.9697" y1="276.7031" y2="276.7031"/><text fill="#000000" font-family="sans-serif" font-size="14" font-weight="bold" lengthAdjust="spacing" textLength="77.6494" x="15" y="291.6982">project_id</text><text fill="#000000" font-family="sans-serif" font-size="14" lengthAdjust="spacing" textLength="13.3506" x="247.6191" y="291.6982">&#160;&#160;&#160;</text><line style="stroke:#000000;stroke-width:1;" x1="242.6191" x2="242.6191" y1="276.7031" y2="297"/><line style="stroke:#000000;stroke-width:1;" x1="10" x2="265.9697" y1="297" y2="297"/><text fill="#000000" font-family="sans-serif" font-size="14" font-weight="bold" lengthAdjust="spacing" textLength="106.3262" x="15" y="311.9951">project_name</text><text fill="#000000" font-family="sans-serif" font-size="14" lengthAdjust="spacing" textLength="13.3506" x="247.6191" y="311.9951">&#160;&#160;&#160;</text><line style="stroke:#000000;stroke-width:1;" x1="242.6191" x2="242.6191" y1="297" y2="317.2969"/><line style="stroke:#000000;stroke-width:1;" x1="10" x2="265.9697" y1="317.2969" y2="317.2969"/><text fill="#000000" font-family="sans-serif" font-size="14" font-weight="bold" lengthAdjust="spacing" textLength="222.6191" x="15" y="332.292">ogc_api_processes_endpoint</text><text fill="#000000" font-family="sans-serif" font-size="14" lengthAdjust="spacing" textLength="13.3506" x="247.6191" y="332.292">&#160;&#160;&#160;</text><line style="stroke:#000000;stroke-width:1;" x1="242.6191" x2="242.6191" y1="317.2969" y2="337.5938"/><line style="stroke:#000000;stroke-width:1;" x1="10" x2="265.9697" y1="337.5938" y2="337.5938"/><text fill="#000000" font-family="sans-serif" font-size="14" font-weight="bold" lengthAdjust="spacing" textLength="175.4785" x="15" y="352.5889">cwl_workflow_location</text><text fill="#000000" font-family="sans-serif" font-size="14" lengthAdjust="spacing" textLength="13.3506" x="247.6191" y="352.5889">&#160;&#160;&#160;</text><line style="stroke:#000000;stroke-width:1;" x1="242.6191" x2="242.6191" y1="337.5938" y2="357.8906"/><rect fill="none" height="101.4844" rx="5" ry="5" style="stroke:#000000;stroke-width:1.5;" width="255.9697" x="10" y="256.4063"/><rect fill="#F1F1F1" height="101.4844" rx="5" ry="5" style="stroke:#F1F1F1;stroke-width:1.5;" width="180.6992" x="303" y="18.4063"/><text fill="#000000" font-family="sans-serif" font-size="14" font-weight="bold" lengthAdjust="spacing" textLength="60.1289" x="308" y="33.4014">schema</text><text fill="#000000" font-family="sans-serif" font-size="14" lengthAdjust="spacing" textLength="13.3506" x="421.9951" y="33.4014">&#160;&#160;&#160;</text><line style="stroke:#000000;stroke-width:1;" x1="416.9951" x2="416.9951" y1="18.4063" y2="38.7031"/><line style="stroke:#000000;stroke-width:1;" x1="303" x2="483.6992" y1="38.7031" y2="38.7031"/><text fill="#000000" font-family="sans-serif" font-size="14" font-weight="bold" lengthAdjust="spacing" textLength="75.8311" x="308" y="53.6982">metadata</text><text fill="#000000" font-family="sans-serif" font-size="14" lengthAdjust="spacing" textLength="13.3506" x="421.9951" y="53.6982">&#160;&#160;&#160;</text><line style="stroke:#000000;stroke-width:1;" x1="416.9951" x2="416.9951" y1="38.7031" y2="59"/><line style="stroke:#000000;stroke-width:1;" x1="303" x2="483.6992" y1="59" y2="59"/><text fill="#000000" font-family="sans-serif" font-size="14" font-weight="bold" lengthAdjust="spacing" textLength="83.0566" x="308" y="73.9951">minOccurs</text><text fill="#000000" font-family="sans-serif" font-size="14" lengthAdjust="spacing" textLength="8.9072" x="421.9951" y="73.9951">1</text><line style="stroke:#000000;stroke-width:1;" x1="416.9951" x2="416.9951" y1="59" y2="79.2969"/><line style="stroke:#000000;stroke-width:1;" x1="303" x2="483.6992" y1="79.2969" y2="79.2969"/><text fill="#000000" font-family="sans-serif" font-size="14" font-weight="bold" lengthAdjust="spacing" textLength="86.7686" x="308" y="94.292">maxOccurs</text><text fill="#000000" font-family="sans-serif" font-size="14" lengthAdjust="spacing" textLength="8.9072" x="421.9951" y="94.292">1</text><line style="stroke:#000000;stroke-width:1;" x1="416.9951" x2="416.9951" y1="79.2969" y2="99.5938"/><line style="stroke:#000000;stroke-width:1;" x1="303" x2="483.6992" y1="99.5938" y2="99.5938"/><text fill="#000000" font-family="sans-serif" font-size="14" font-weight="bold" lengthAdjust="spacing" textLength="103.9951" x="308" y="114.5889">valuePassing</text><text fill="#000000" font-family="sans-serif" font-size="14" lengthAdjust="spacing" textLength="56.7041" x="421.9951" y="114.5889">byValue</text><line style="stroke:#000000;stroke-width:1;" x1="416.9951" x2="416.9951" y1="99.5938" y2="119.8906"/><rect fill="none" height="101.4844" rx="5" ry="5" style="stroke:#000000;stroke-width:1.5;" width="180.6992" x="303" y="18.4063"/><rect fill="#F1F1F1" height="20.2969" rx="5" ry="5" style="stroke:#F1F1F1;stroke-width:1.5;" width="95.5234" x="530" y="10"/><text fill="#000000" font-family="sans-serif" font-size="14" font-weight="bold" lengthAdjust="spacing" textLength="35.335" x="535" y="24.9951">type</text><text fill="#000000" font-family="sans-serif" font-size="14" lengthAdjust="spacing" textLength="40.1885" x="580.335" y="24.9951">string</text><line style="stroke:#000000;stroke-width:1;" x1="575.335" x2="575.335" y1="10" y2="30.2969"/><rect fill="none" height="20.2969" rx="5" ry="5" style="stroke:#000000;stroke-width:1.5;" width="95.5234" x="530" y="10"/><rect fill="#F1F1F1" height="20.2969" rx="5" ry="5" style="stroke:#F1F1F1;stroke-width:1.5;" width="23.3506" x="566.5" y="48"/><text fill="#000000" font-family="sans-serif" font-size="14" lengthAdjust="spacing" textLength="13.3506" x="571.5" y="62.9951">&#160;&#160;&#160;</text><rect fill="none" height="20.2969" rx="5" ry="5" style="stroke:#000000;stroke-width:1.5;" width="23.3506" x="566.5" y="48"/><rect fill="#F1F1F1" height="40.5938" rx="5" ry="5" style="stroke:#F1F1F1;stroke-width:1.5;" width="121.8623" x="924" y="37.6484"/><text fill="#000000" font-family="sans-serif" font-size="14" font-weight="bold" lengthAdjust="spacing" textLength="32.4775" x="929" y="52.6436">title</text><text fill="#000000" font-family="sans-serif" font-size="14" lengthAdjust="spacing" textLength="59.0283" x="981.834" y="52.6436">cwl:type</text><line style="stroke:#000000;stroke-width:1;" x1="976.834" x2="976.834" y1="37.6484" y2="57.9453"/><line style="stroke:#000000;stroke-width:1;" x1="924" x2="1045.8623" y1="57.9453" y2="57.9453"/><text fill="#000000" font-family="sans-serif" font-size="14" font-weight="bold" lengthAdjust="spacing" textLength="42.834" x="929" y="72.9404">value</text><text fill="#000000" font-family="sans-serif" font-size="14" lengthAdjust="spacing" textLength="40.1885" x="981.834" y="72.9404">string</text><line style="stroke:#000000;stroke-width:1;" x1="976.834" x2="976.834" y1="57.9453" y2="78.2422"/><rect fill="none" height="40.5938" rx="5" ry="5" style="stroke:#000000;stroke-width:1.5;" width="121.8623" x="924" y="37.6484"/><rect fill="#F1F1F1" height="101.4844" rx="5" ry="5" style="stroke:#F1F1F1;stroke-width:1.5;" width="180.6992" x="303" y="137.4063"/><text fill="#000000" font-family="sans-serif" font-size="14" font-weight="bold" lengthAdjust="spacing" textLength="60.1289" x="308" y="152.4014">schema</text><text fill="#000000" font-family="sans-serif" font-size="14" lengthAdjust="spacing" textLength="13.3506" x="421.9951" y="152.4014">&#160;&#160;&#160;</text><line style="stroke:#000000;stroke-width:1;" x1="416.9951" x2="416.9951" y1="137.4063" y2="157.7031"/><line style="stroke:#000000;stroke-width:1;" x1="303" x2="483.6992" y1="157.7031" y2="157.7031"/><text fill="#000000" font-family="sans-serif" font-size="14" font-weight="bold" lengthAdjust="spacing" textLength="75.8311" x="308" y="172.6982">metadata</text><text fill="#000000" font-family="sans-serif" font-size="14" lengthAdjust="spacing" textLength="13.3506" x="421.9951" y="172.6982">&#160;&#160;&#160;</text><line style="stroke:#000000;stroke-width:1;" x1="416.9951" x2="416.9951" y1="157.7031" y2="178"/><line style="stroke:#000000;stroke-width:1;" x1="303" x2="483.6992" y1="178" y2="178"/><text fill="#000000" font-family="sans-serif" font-size="14" font-weight="bold" lengthAdjust="spacing" textLength="83.0566" x="308" y="192.9951">minOccurs</text><text fill="#000000" font-family="sans-serif" font-size="14" lengthAdjust="spacing" textLength="8.9072" x="421.9951" y="192.9951">1</text><line style="stroke:#000000;stroke-width:1;" x1="416.9951" x2="416.9951" y1="178" y2="198.2969"/><line style="stroke:#000000;stroke-width:1;" x1="303" x2="483.6992" y1="198.2969" y2="198.2969"/><text fill="#000000" font-family="sans-serif" font-size="14" font-weight="bold" lengthAdjust="spacing" textLength="86.7686" x="308" y="213.292">maxOccurs</text><text fill="#000000" font-family="sans-serif" font-size="14" lengthAdjust="spacing" textLength="8.9072" x="421.9951" y="213.292">1</text><line style="stroke:#000000;stroke-width:1;" x1="416.9951" x2="416.9951" y1="198.2969" y2="218.5938"/><line style="stroke:#000000;stroke-width:1;" x1="303" x2="483.6992" y1="218.5938" y2="218.5938"/><text fill="#000000" font-family="sans-serif" font-size="14" font-weight="bold" lengthAdjust="spacing" textLength="103.9951" x="308" y="233.5889">valuePassing</text><text fill="#000000" font-family="sans-serif" font-size="14" lengthAdjust="spacing" textLength="56.7041" x="421.9951" y="233.5889">byValue</text><line style="stroke:#000000;stroke-width:1;" x1="416.9951" x2="416.9951" y1="218.5938" y2="238.8906"/><rect fill="none" height="101.4844" rx="5" ry="5" style="stroke:#000000;stroke-width:1.5;" width="180.6992" x="303" y="137.4063"/><rect fill="#F1F1F1" height="20.2969" rx="5" ry="5" style="stroke:#F1F1F1;stroke-width:1.5;" width="95.5234" x="530" y="129"/><text fill="#000000" font-family="sans-serif" font-size="14" font-weight="bold" lengthAdjust="spacing" textLength="35.335" x="535" y="143.9951">type</text><text fill="#000000" font-family="sans-serif" font-size="14" lengthAdjust="spacing" textLength="40.1885" x="580.335" y="143.9951">string</text><line style="stroke:#000000;stroke-width:1;" x1="575.335" x2="575.335" y1="129" y2="149.2969"/><rect fill="none" height="20.2969" rx="5" ry="5" style="stroke:#000000;stroke-width:1.5;" width="95.5234" x="530" y="129"/><rect fill="#F1F1F1" height="20.2969" rx="5" ry="5" style="stroke:#F1F1F1;stroke-width:1.5;" width="23.3506" x="566.5" y="167"/><text fill="#000000" font-family="sans-serif" font-size="14" lengthAdjust="spacing" textLength="13.3506" x="571.5" y="181.9951">&#160;&#160;&#160;</text><rect fill="none" height="20.2969" rx="5" ry="5" style="stroke:#000000;stroke-width:1.5;" width="23.3506" x="566.5" y="167"/><rect fill="#F1F1F1" height="40.5938" rx="5" ry="5" style="stroke:#F1F1F1;stroke-width:1.5;" width="121.8623" x="924" y="156.6484"/><text fill="#000000" font-family="sans-serif" font-size="14" font-weight="bold" lengthAdjust="spacing" textLength="32.4775" x="929" y="171.6436">title</text><text fill="#000000" font-family="sans-serif" font-size="14" lengthAdjust="spacing" textLength="59.0283" x="981.834" y="171.6436">cwl:type</text><line style="stroke:#000000;stroke-width:1;" x1="976.834" x2="976.834" y1="156.6484" y2="176.9453"/><line style="stroke:#000000;stroke-width:1;" x1="924" x2="1045.8623" y1="176.9453" y2="176.9453"/><text fill="#000000" font-family="sans-serif" font-size="14" font-weight="bold" lengthAdjust="spacing" textLength="42.834" x="929" y="191.9404">value</text><text fill="#000000" font-family="sans-serif" font-size="14" lengthAdjust="spacing" textLength="40.1885" x="981.834" y="191.9404">string</text><line style="stroke:#000000;stroke-width:1;" x1="976.834" x2="976.834" y1="176.9453" y2="197.2422"/><rect fill="none" height="40.5938" rx="5" ry="5" style="stroke:#000000;stroke-width:1.5;" width="121.8623" x="924" y="156.6484"/><rect fill="#F1F1F1" height="101.4844" rx="5" ry="5" style="stroke:#F1F1F1;stroke-width:1.5;" width="180.6992" x="303" y="256.4063"/><text fill="#000000" font-family="sans-serif" font-size="14" font-weight="bold" lengthAdjust="spacing" textLength="60.1289" x="308" y="271.4014">schema</text><text fill="#000000" font-family="sans-serif" font-size="14" lengthAdjust="spacing" textLength="13.3506" x="421.9951" y="271.4014">&#160;&#160;&#160;</text><line style="stroke:#000000;stroke-width:1;" x1="416.9951" x2="416.9951" y1="256.4063" y2="276.7031"/><line style="stroke:#000000;stroke-width:1;" x1="303" x2="483.6992" y1="276.7031" y2="276.7031"/><text fill="#000000" font-family="sans-serif" font-size="14" font-weight="bold" lengthAdjust="spacing" textLength="75.8311" x="308" y="291.6982">metadata</text><text fill="#000000" font-family="sans-serif" font-size="14" lengthAdjust="spacing" textLength="13.3506" x="421.9951" y="291.6982">&#160;&#160;&#160;</text><line style="stroke:#000000;stroke-width:1;" x1="416.9951" x2="416.9951" y1="276.7031" y2="297"/><line style="stroke:#000000;stroke-width:1;" x1="303" x2="483.6992" y1="297" y2="297"/><text fill="#000000" font-family="sans-serif" font-size="14" font-weight="bold" lengthAdjust="spacing" textLength="83.0566" x="308" y="311.9951">minOccurs</text><text fill="#000000" font-family="sans-serif" font-size="14" lengthAdjust="spacing" textLength="8.9072" x="421.9951" y="311.9951">1</text><line style="stroke:#000000;stroke-width:1;" x1="416.9951" x2="416.9951" y1="297" y2="317.2969"/><line style="stroke:#000000;stroke-width:1;" x1="303" x2="483.6992" y1="317.2969" y2="317.2969"/><text fill="#000000" font-family="sans-serif" font-size="14" font-weight="bold" lengthAdjust="spacing" textLength="86.7686" x="308" y="332.292">maxOccurs</text><text fill="#000000" font-family="sans-serif" font-size="14" lengthAdjust="spacing" textLength="8.9072" x="421.9951" y="332.292">1</text><line style="stroke:#000000;stroke-width:1;" x1="416.9951" x2="416.9951" y1="317.2969" y2="337.5938"/><line style="stroke:#000000;stroke-width:1;" x1="303" x2="483.6992" y1="337.5938" y2="337.5938"/><text fill="#000000" font-family="sans-serif" font-size="14" font-weight="bold" lengthAdjust="spacing" textLength="103.9951" x="308" y="352.5889">valuePassing</text><text fill="#000000" font-family="sans-serif" font-size="14" lengthAdjust="spacing" textLength="56.7041" x="421.9951" y="352.5889">byValue</text><line style="stroke:#000000;stroke-width:1;" x1="416.9951" x2="416.9951" y1="337.5938" y2="357.8906"/><rect fill="none" height="101.4844" rx="5" ry="5" style="stroke:#000000;stroke-width:1.5;" width="180.6992" x="303" y="256.4063"/><rect fill="#F1F1F1" height="20.2969" rx="5" ry="5" style="stroke:#F1F1F1;stroke-width:1.5;" width="95.5234" x="530" y="248"/><text fill="#000000" font-family="sans-serif" font-size="14" font-weight="bold" lengthAdjust="spacing" textLength="35.335" x="535" y="262.9951">type</text><text fill="#000000" font-family="sans-serif" font-size="14" lengthAdjust="spacing" textLength="40.1885" x="580.335" y="262.9951">string</text><line style="stroke:#000000;stroke-width:1;" x1="575.335" x2="575.335" y1="248" y2="268.2969"/><rect fill="none" height="20.2969" rx="5" ry="5" style="stroke:#000000;stroke-width:1.5;" width="95.5234" x="530" y="248"/><rect fill="#F1F1F1" height="20.2969" rx="5" ry="5" style="stroke:#F1F1F1;stroke-width:1.5;" width="23.3506" x="566.5" y="286"/><text fill="#000000" font-family="sans-serif" font-size="14" lengthAdjust="spacing" textLength="13.3506" x="571.5" y="300.9951">&#160;&#160;&#160;</text><rect fill="none" height="20.2969" rx="5" ry="5" style="stroke:#000000;stroke-width:1.5;" width="23.3506" x="566.5" y="286"/><rect fill="#F1F1F1" height="40.5938" rx="5" ry="5" style="stroke:#F1F1F1;stroke-width:1.5;" width="121.8623" x="924" y="275.6484"/><text fill="#000000" font-family="sans-serif" font-size="14" font-weight="bold" lengthAdjust="spacing" textLength="32.4775" x="929" y="290.6436">title</text><text fill="#000000" font-family="sans-serif" font-size="14" lengthAdjust="spacing" textLength="59.0283" x="981.834" y="290.6436">cwl:type</text><line style="stroke:#000000;stroke-width:1;" x1="976.834" x2="976.834" y1="275.6484" y2="295.9453"/><line style="stroke:#000000;stroke-width:1;" x1="924" x2="1045.8623" y1="295.9453" y2="295.9453"/><text fill="#000000" font-family="sans-serif" font-size="14" font-weight="bold" lengthAdjust="spacing" textLength="42.834" x="929" y="310.9404">value</text><text fill="#000000" font-family="sans-serif" font-size="14" lengthAdjust="spacing" textLength="40.1885" x="981.834" y="310.9404">string</text><line style="stroke:#000000;stroke-width:1;" x1="976.834" x2="976.834" y1="295.9453" y2="316.2422"/><rect fill="none" height="40.5938" rx="5" ry="5" style="stroke:#000000;stroke-width:1.5;" width="121.8623" x="924" y="275.6484"/><rect fill="#F1F1F1" height="101.4844" rx="5" ry="5" style="stroke:#F1F1F1;stroke-width:1.5;" width="180.6992" x="303" y="375.4063"/><text fill="#000000" font-family="sans-serif" font-size="14" font-weight="bold" lengthAdjust="spacing" textLength="60.1289" x="308" y="390.4014">schema</text><text fill="#000000" font-family="sans-serif" font-size="14" lengthAdjust="spacing" textLength="13.3506" x="421.9951" y="390.4014">&#160;&#160;&#160;</text><line style="stroke:#000000;stroke-width:1;" x1="416.9951" x2="416.9951" y1="375.4063" y2="395.7031"/><line style="stroke:#000000;stroke-width:1;" x1="303" x2="483.6992" y1="395.7031" y2="395.7031"/><text fill="#000000" font-family="sans-serif" font-size="14" font-weight="bold" lengthAdjust="spacing" textLength="75.8311" x="308" y="410.6982">metadata</text><text fill="#000000" font-family="sans-serif" font-size="14" lengthAdjust="spacing" textLength="13.3506" x="421.9951" y="410.6982">&#160;&#160;&#160;</text><line style="stroke:#000000;stroke-width:1;" x1="416.9951" x2="416.9951" y1="395.7031" y2="416"/><line style="stroke:#000000;stroke-width:1;" x1="303" x2="483.6992" y1="416" y2="416"/><text fill="#000000" font-family="sans-serif" font-size="14" font-weight="bold" lengthAdjust="spacing" textLength="83.0566" x="308" y="430.9951">minOccurs</text><text fill="#000000" font-family="sans-serif" font-size="14" lengthAdjust="spacing" textLength="8.9072" x="421.9951" y="430.9951">1</text><line style="stroke:#000000;stroke-width:1;" x1="416.9951" x2="416.9951" y1="416" y2="436.2969"/><line style="stroke:#000000;stroke-width:1;" x1="303" x2="483.6992" y1="436.2969" y2="436.2969"/><text fill="#000000" font-family="sans-serif" font-size="14" font-weight="bold" lengthAdjust="spacing" textLength="86.7686" x="308" y="451.292">maxOccurs</text><text fill="#000000" font-family="sans-serif" font-size="14" lengthAdjust="spacing" textLength="8.9072" x="421.9951" y="451.292">1</text><line style="stroke:#000000;stroke-width:1;" x1="416.9951" x2="416.9951" y1="436.2969" y2="456.5938"/><line style="stroke:#000000;stroke-width:1;" x1="303" x2="483.6992" y1="456.5938" y2="456.5938"/><text fill="#000000" font-family="sans-serif" font-size="14" font-weight="bold" lengthAdjust="spacing" textLength="103.9951" x="308" y="471.5889">valuePassing</text><text fill="#000000" font-family="sans-serif" font-size="14" lengthAdjust="spacing" textLength="56.7041" x="421.9951" y="471.5889">byValue</text><line style="stroke:#000000;stroke-width:1;" x1="416.9951" x2="416.9951" y1="456.5938" y2="476.8906"/><rect fill="none" height="101.4844" rx="5" ry="5" style="stroke:#000000;stroke-width:1.5;" width="180.6992" x="303" y="375.4063"/><rect fill="#F1F1F1" height="40.5938" rx="5" ry="5" style="stroke:#F1F1F1;stroke-width:1.5;" width="113.5293" x="521" y="350.6484"/><text fill="#000000" font-family="sans-serif" font-size="14" font-weight="bold" lengthAdjust="spacing" textLength="35.335" x="526" y="365.6436">type</text><text fill="#000000" font-family="sans-serif" font-size="14" lengthAdjust="spacing" textLength="40.1885" x="589.3408" y="365.6436">string</text><line style="stroke:#000000;stroke-width:1;" x1="584.3408" x2="584.3408" y1="350.6484" y2="370.9453"/><line style="stroke:#000000;stroke-width:1;" x1="521" x2="634.5293" y1="370.9453" y2="370.9453"/><text fill="#000000" font-family="sans-serif" font-size="14" font-weight="bold" lengthAdjust="spacing" textLength="53.3408" x="526" y="385.9404">format</text><text fill="#000000" font-family="sans-serif" font-size="14" lengthAdjust="spacing" textLength="18.5186" x="589.3408" y="385.9404">uri</text><line style="stroke:#000000;stroke-width:1;" x1="584.3408" x2="584.3408" y1="370.9453" y2="391.2422"/><rect fill="none" height="40.5938" rx="5" ry="5" style="stroke:#000000;stroke-width:1.5;" width="113.5293" x="521" y="350.6484"/><rect fill="#F1F1F1" height="20.2969" rx="5" ry="5" style="stroke:#F1F1F1;stroke-width:1.5;" width="23.3506" x="566.5" y="410"/><text fill="#000000" font-family="sans-serif" font-size="14" lengthAdjust="spacing" textLength="13.3506" x="571.5" y="424.9951">&#160;&#160;&#160;</text><rect fill="none" height="20.2969" rx="5" ry="5" style="stroke:#000000;stroke-width:1.5;" width="23.3506" x="566.5" y="410"/><rect fill="#F1F1F1" height="40.5938" rx="5" ry="5" style="stroke:#F1F1F1;stroke-width:1.5;" width="625.9375" x="672" y="399.6484"/><text fill="#000000" font-family="sans-serif" font-size="14" font-weight="bold" lengthAdjust="spacing" textLength="32.4775" x="677" y="414.6436">title</text><text fill="#000000" font-family="sans-serif" font-size="14" lengthAdjust="spacing" textLength="59.0283" x="729.834" y="414.6436">cwl:type</text><line style="stroke:#000000;stroke-width:1;" x1="724.834" x2="724.834" y1="399.6484" y2="419.9453"/><line style="stroke:#000000;stroke-width:1;" x1="672" x2="1297.9375" y1="419.9453" y2="419.9453"/><text fill="#000000" font-family="sans-serif" font-size="14" font-weight="bold" lengthAdjust="spacing" textLength="42.834" x="677" y="434.9404">value</text><text fill="#000000" font-family="sans-serif" font-size="14" lengthAdjust="spacing" textLength="563.1035" x="729.834" y="434.9404">https://raw.githubusercontent.com/eoap/schemas/main/string_format.yaml#URI</text><line style="stroke:#000000;stroke-width:1;" x1="724.834" x2="724.834" y1="419.9453" y2="440.2422"/><rect fill="none" height="40.5938" rx="5" ry="5" style="stroke:#000000;stroke-width:1.5;" width="625.9375" x="672" y="399.6484"/><rect fill="#F1F1F1" height="101.4844" rx="5" ry="5" style="stroke:#F1F1F1;stroke-width:1.5;" width="180.6992" x="303" y="494.4063"/><text fill="#000000" font-family="sans-serif" font-size="14" font-weight="bold" lengthAdjust="spacing" textLength="60.1289" x="308" y="509.4014">schema</text><text fill="#000000" font-family="sans-serif" font-size="14" lengthAdjust="spacing" textLength="13.3506" x="421.9951" y="509.4014">&#160;&#160;&#160;</text><line style="stroke:#000000;stroke-width:1;" x1="416.9951" x2="416.9951" y1="494.4063" y2="514.7031"/><line style="stroke:#000000;stroke-width:1;" x1="303" x2="483.6992" y1="514.7031" y2="514.7031"/><text fill="#000000" font-family="sans-serif" font-size="14" font-weight="bold" lengthAdjust="spacing" textLength="75.8311" x="308" y="529.6982">metadata</text><text fill="#000000" font-family="sans-serif" font-size="14" lengthAdjust="spacing" textLength="13.3506" x="421.9951" y="529.6982">&#160;&#160;&#160;</text><line style="stroke:#000000;stroke-width:1;" x1="416.9951" x2="416.9951" y1="514.7031" y2="535"/><line style="stroke:#000000;stroke-width:1;" x1="303" x2="483.6992" y1="535" y2="535"/><text fill="#000000" font-family="sans-serif" font-size="14" font-weight="bold" lengthAdjust="spacing" textLength="83.0566" x="308" y="549.9951">minOccurs</text><text fill="#000000" font-family="sans-serif" font-size="14" lengthAdjust="spacing" textLength="8.9072" x="421.9951" y="549.9951">1</text><line style="stroke:#000000;stroke-width:1;" x1="416.9951" x2="416.9951" y1="535" y2="555.2969"/><line style="stroke:#000000;stroke-width:1;" x1="303" x2="483.6992" y1="555.2969" y2="555.2969"/><text fill="#000000" font-family="sans-serif" font-size="14" font-weight="bold" lengthAdjust="spacing" textLength="86.7686" x="308" y="570.292">maxOccurs</text><text fill="#000000" font-family="sans-serif" font-size="14" lengthAdjust="spacing" textLength="8.9072" x="421.9951" y="570.292">1</text><line style="stroke:#000000;stroke-width:1;" x1="416.9951" x2="416.9951" y1="555.2969" y2="575.5938"/><line style="stroke:#000000;stroke-width:1;" x1="303" x2="483.6992" y1="575.5938" y2="575.5938"/><text fill="#000000" font-family="sans-serif" font-size="14" font-weight="bold" lengthAdjust="spacing" textLength="103.9951" x="308" y="590.5889">valuePassing</text><text fill="#000000" font-family="sans-serif" font-size="14" lengthAdjust="spacing" textLength="56.7041" x="421.9951" y="590.5889">byValue</text><line style="stroke:#000000;stroke-width:1;" x1="416.9951" x2="416.9951" y1="575.5938" y2="595.8906"/><rect fill="none" height="101.4844" rx="5" ry="5" style="stroke:#000000;stroke-width:1.5;" width="180.6992" x="303" y="494.4063"/><rect fill="#F1F1F1" height="40.5938" rx="5" ry="5" style="stroke:#F1F1F1;stroke-width:1.5;" width="113.5293" x="521" y="469.6484"/><text fill="#000000" font-family="sans-serif" font-size="14" font-weight="bold" lengthAdjust="spacing" textLength="35.335" x="526" y="484.6436">type</text><text fill="#000000" font-family="sans-serif" font-size="14" lengthAdjust="spacing" textLength="40.1885" x="589.3408" y="484.6436">string</text><line style="stroke:#000000;stroke-width:1;" x1="584.3408" x2="584.3408" y1="469.6484" y2="489.9453"/><line style="stroke:#000000;stroke-width:1;" x1="521" x2="634.5293" y1="489.9453" y2="489.9453"/><text fill="#000000" font-family="sans-serif" font-size="14" font-weight="bold" lengthAdjust="spacing" textLength="53.3408" x="526" y="504.9404">format</text><text fill="#000000" font-family="sans-serif" font-size="14" lengthAdjust="spacing" textLength="18.5186" x="589.3408" y="504.9404">uri</text><line style="stroke:#000000;stroke-width:1;" x1="584.3408" x2="584.3408" y1="489.9453" y2="510.2422"/><rect fill="none" height="40.5938" rx="5" ry="5" style="stroke:#000000;stroke-width:1.5;" width="113.5293" x="521" y="469.6484"/><rect fill="#F1F1F1" height="20.2969" rx="5" ry="5" style="stroke:#F1F1F1;stroke-width:1.5;" width="23.3506" x="566.5" y="529"/><text fill="#000000" font-family="sans-serif" font-size="14" lengthAdjust="spacing" textLength="13.3506" x="571.5" y="543.9951">&#160;&#160;&#160;</text><rect fill="none" height="20.2969" rx="5" ry="5" style="stroke:#000000;stroke-width:1.5;" width="23.3506" x="566.5" y="529"/><rect fill="#F1F1F1" height="40.5938" rx="5" ry="5" style="stroke:#F1F1F1;stroke-width:1.5;" width="625.9375" x="672" y="518.6484"/><text fill="#000000" font-family="sans-serif" font-size="14" font-weight="bold" lengthAdjust="spacing" textLength="32.4775" x="677" y="533.6436">title</text><text fill="#000000" font-family="sans-serif" font-size="14" lengthAdjust="spacing" textLength="59.0283" x="729.834" y="533.6436">cwl:type</text><line style="stroke:#000000;stroke-width:1;" x1="724.834" x2="724.834" y1="518.6484" y2="538.9453"/><line style="stroke:#000000;stroke-width:1;" x1="672" x2="1297.9375" y1="538.9453" y2="538.9453"/><text fill="#000000" font-family="sans-serif" font-size="14" font-weight="bold" lengthAdjust="spacing" textLength="42.834" x="677" y="553.9404">value</text><text fill="#000000" font-family="sans-serif" font-size="14" lengthAdjust="spacing" textLength="563.1035" x="729.834" y="553.9404">https://raw.githubusercontent.com/eoap/schemas/main/string_format.yaml#URI</text><line style="stroke:#000000;stroke-width:1;" x1="724.834" x2="724.834" y1="538.9453" y2="559.2422"/><rect fill="none" height="40.5938" rx="5" ry="5" style="stroke:#000000;stroke-width:1.5;" width="625.9375" x="672" y="518.6484"/><path d="M472,28.1484 L485,28.1484 C497.1472,28.1484 510.1583,27.4552 522.4722,26.4769" fill="none" style="stroke:#000000;stroke-width:1;stroke-dasharray:3,3;"/><path d="M522.7292,29.5021 L524.7412,26.2842 L522.2153,23.4516 L530.0353,25.8345 L522.7292,29.5021" fill="#000000"/><ellipse cx="472" cy="28.1484" fill="#000000" rx="3" ry="3" style="stroke:#000000;stroke-width:1;"/><path d="M577.2129,58.1484 L590.2129,58.1484 C637.5407,58.1484 816.8748,58.1484 916.587,58.1484" fill="none" style="stroke:#000000;stroke-width:1;stroke-dasharray:3,3;"/><path d="M916.587,61.1993 L918.8751,58.1484 L916.587,55.0975 L924.2142,58.1484 L916.587,61.1993" fill="#000000"/><ellipse cx="577.2129" cy="58.1484" fill="#000000" rx="3" ry="3" style="stroke:#000000;stroke-width:1;"/><path d="M472,49.1484 L485,49.1484 C511.0017,49.1484 540.9224,52.7149 559.5242,55.3576" fill="none" style="stroke:#000000;stroke-width:1;stroke-dasharray:3,3;"/><path d="M559.085,58.3437 L561.7638,55.687 L559.9634,52.3715 L566.9895,56.4556 L559.085,58.3437" fill="#000000"/><ellipse cx="472" cy="49.1484" fill="#000000" rx="3" ry="3" style="stroke:#000000;stroke-width:1;"/><path d="M254.5,268.1484 L254.5,255.1484 C254.5,194.7281 265.1181,175.2184 303,128.1484 C303.626,127.3707 304.265,126.5996 304.9163,125.8354" fill="none" style="stroke:#000000;stroke-width:1;stroke-dasharray:3,3;"/><path d="M307.206,127.9234 L306.4823,124.1182 L302.6266,123.7475 L310.1363,120.1111 L307.206,127.9234" fill="#000000"/><ellipse cx="254.5" cy="268.1484" fill="#000000" rx="3" ry="3" style="stroke:#000000;stroke-width:1;"/><path d="M472,147.1484 L485,147.1484 C497.1472,147.1484 510.1583,146.4552 522.4722,145.4769" fill="none" style="stroke:#000000;stroke-width:1;stroke-dasharray:3,3;"/><path d="M522.7292,148.5021 L524.7412,145.2842 L522.2153,142.4516 L530.0353,144.8345 L522.7292,148.5021" fill="#000000"/><ellipse cx="472" cy="147.1484" fill="#000000" rx="3" ry="3" style="stroke:#000000;stroke-width:1;"/><path d="M577.2129,177.1484 L590.2129,177.1484 C637.5407,177.1484 816.8748,177.1484 916.587,177.1484" fill="none" style="stroke:#000000;stroke-width:1;stroke-dasharray:3,3;"/><path d="M916.587,180.1993 L918.8751,177.1484 L916.587,174.0975 L924.2142,177.1484 L916.587,180.1993" fill="#000000"/><ellipse cx="577.2129" cy="177.1484" fill="#000000" rx="3" ry="3" style="stroke:#000000;stroke-width:1;"/><path d="M472,168.1484 L485,168.1484 C511.0017,168.1484 540.9224,171.7149 559.5242,174.3576" fill="none" style="stroke:#000000;stroke-width:1;stroke-dasharray:3,3;"/><path d="M559.085,177.3437 L561.7638,174.687 L559.9634,171.3715 L566.9895,175.4556 L559.085,177.3437" fill="#000000"/><ellipse cx="472" cy="168.1484" fill="#000000" rx="3" ry="3" style="stroke:#000000;stroke-width:1;"/><path d="M254,287.1484 L267,287.1484 C290.9176,287.1484 284.8482,262.7228 303,247.1484 C304.1698,246.1447 305.3576,245.1445 306.5612,244.1484" fill="none" style="stroke:#000000;stroke-width:1;stroke-dasharray:3,3;"/><path d="M308.5376,246.6035 L308.4025,242.6661 L304.5848,241.6934 L312.6987,239.2074 L308.5376,246.6035" fill="#000000"/><ellipse cx="254" cy="287.1484" fill="#000000" rx="3" ry="3" style="stroke:#000000;stroke-width:1;"/><path d="M472,266.1484 L485,266.1484 C497.1472,266.1484 510.1583,265.4552 522.4722,264.4769" fill="none" style="stroke:#000000;stroke-width:1;stroke-dasharray:3,3;"/><path d="M522.7292,267.5021 L524.7412,264.2842 L522.2153,261.4516 L530.0353,263.8345 L522.7292,267.5021" fill="#000000"/><ellipse cx="472" cy="266.1484" fill="#000000" rx="3" ry="3" style="stroke:#000000;stroke-width:1;"/><path d="M577.2129,296.1484 L590.2129,296.1484 C637.5407,296.1484 816.8748,296.1484 916.587,296.1484" fill="none" style="stroke:#000000;stroke-width:1;stroke-dasharray:3,3;"/><path d="M916.587,299.1993 L918.8751,296.1484 L916.587,293.0975 L924.2142,296.1484 L916.587,299.1993" fill="#000000"/><ellipse cx="577.2129" cy="296.1484" fill="#000000" rx="3" ry="3" style="stroke:#000000;stroke-width:1;"/><path d="M472,287.1484 L485,287.1484 C511.0017,287.1484 540.9224,290.7149 559.5242,293.3576" fill="none" style="stroke:#000000;stroke-width:1;stroke-dasharray:3,3;"/><path d="M559.085,296.3437 L561.7638,293.687 L559.9634,290.3715 L566.9895,294.4556 L559.085,296.3437" fill="#000000"/><ellipse cx="472" cy="287.1484" fill="#000000" rx="3" ry="3" style="stroke:#000000;stroke-width:1;"/><path d="M254,307.1484 L267,307.1484 C276.2345,307.1484 285.8497,307.1484 295.4689,307.1484" fill="none" style="stroke:#000000;stroke-width:1;stroke-dasharray:3,3;"/><path d="M295.4689,310.2317 L297.7813,307.1484 L295.4689,304.0652 L303.177,307.1484 L295.4689,310.2317" fill="#000000"/><ellipse cx="254" cy="307.1484" fill="#000000" rx="3" ry="3" style="stroke:#000000;stroke-width:1;"/><path d="M472,385.1484 L485,385.1484 C494.3556,385.1484 504.1841,384.4396 513.7991,383.341" fill="none" style="stroke:#000000;stroke-width:1;stroke-dasharray:3,3;"/><path d="M514.1825,386.4019 L516.0948,383.0535 L513.4157,380.2802 L521.4513,382.3825 L514.1825,386.4019" fill="#000000"/><ellipse cx="472" cy="385.1484" fill="#000000" rx="3" ry="3" style="stroke:#000000;stroke-width:1;"/><path d="M577.2129,420.1484 L590.2129,420.1484 C604.7178,420.1484 631.6217,420.1484 664.8326,420.1484" fill="none" style="stroke:#000000;stroke-width:1;stroke-dasharray:3,3;"/><path d="M664.8326,423.2048 L667.1249,420.1484 L664.8326,417.0921 L672.4734,420.1484 L664.8326,423.2048" fill="#000000"/><ellipse cx="577.2129" cy="420.1484" fill="#000000" rx="3" ry="3" style="stroke:#000000;stroke-width:1;"/><path d="M472,406.1484 L485,406.1484 C511.0328,406.1484 540.7273,411.6364 559.2936,415.7404" fill="none" style="stroke:#000000;stroke-width:1;stroke-dasharray:3,3;"/><path d="M558.6101,418.7257 L561.5326,416.253 L559.977,412.755 L566.757,417.4491 L558.6101,418.7257" fill="#000000"/><ellipse cx="472" cy="406.1484" fill="#000000" rx="3" ry="3" style="stroke:#000000;stroke-width:1;"/><path d="M254,327.1484 L267,327.1484 C290.9176,327.1484 284.8482,351.574 303,367.1484 C304.1698,368.1521 305.3576,369.1524 306.5612,370.1484" fill="none" style="stroke:#000000;stroke-width:1;stroke-dasharray:3,3;"/><path d="M304.5848,372.6034 L308.4025,371.6307 L308.5376,367.6934 L312.6987,375.0895 L304.5848,372.6034" fill="#000000"/><ellipse cx="254" cy="327.1484" fill="#000000" rx="3" ry="3" style="stroke:#000000;stroke-width:1;"/><path d="M472,504.1484 L485,504.1484 C494.3556,504.1484 504.1841,503.4396 513.7991,502.341" fill="none" style="stroke:#000000;stroke-width:1;stroke-dasharray:3,3;"/><path d="M514.1825,505.4019 L516.0948,502.0535 L513.4157,499.2802 L521.4513,501.3825 L514.1825,505.4019" fill="#000000"/><ellipse cx="472" cy="504.1484" fill="#000000" rx="3" ry="3" style="stroke:#000000;stroke-width:1;"/><path d="M577.2129,539.1484 L590.2129,539.1484 C604.7178,539.1484 631.6217,539.1484 664.8326,539.1484" fill="none" style="stroke:#000000;stroke-width:1;stroke-dasharray:3,3;"/><path d="M664.8326,542.2048 L667.1249,539.1484 L664.8326,536.0921 L672.4734,539.1484 L664.8326,542.2048" fill="#000000"/><ellipse cx="577.2129" cy="539.1484" fill="#000000" rx="3" ry="3" style="stroke:#000000;stroke-width:1;"/><path d="M472,525.1484 L485,525.1484 C511.0328,525.1484 540.7273,530.6364 559.2936,534.7404" fill="none" style="stroke:#000000;stroke-width:1;stroke-dasharray:3,3;"/><path d="M558.6101,537.7257 L561.5326,535.253 L559.977,531.755 L566.757,536.4491 L558.6101,537.7257" fill="#000000"/><ellipse cx="472" cy="525.1484" fill="#000000" rx="3" ry="3" style="stroke:#000000;stroke-width:1;"/><path d="M254.5,346.1484 L254.5,359.1484 C254.5,419.5688 265.1181,439.0785 303,486.1484 C303.626,486.9262 304.265,487.6972 304.9163,488.4614" fill="none" style="stroke:#000000;stroke-width:1;stroke-dasharray:3,3;"/><path d="M302.6266,490.5494 L306.4823,490.1787 L307.206,486.3735 L310.1363,494.1857 L302.6266,490.5494" fill="#000000"/><ellipse cx="254.5" cy="346.1484" fill="#000000" rx="3" ry="3" style="stroke:#000000;stroke-width:1;"/><!--SRC=[xLHDRzD05BplhtWobrPgRISA27oge8082OtQ91U4h9VrYxDbFwpzS8XG_pjhfsuFFO7W0fnMEpjlD3ExsWldqVfRPpJxpW2IlR5VjzBiIr4b1NHG11tVaSA7VKJyeQ6uJvotGjT93z-T7TcAF5ReE_xdU_umrqqAB_jHlfT5BtFsUDYY34zqetA_VXdqXRxYF5WNYQC1mszFi5viWSvrIb5pSrZtykpUQj9OSqlS_qjHDIhwwyEQcfVOY3A6vkGSkP9qrHYX_Kz47zmdMsCLTfD9iEBtDxBpld55bbdSfxNmkx09ZYmtsfFsAJSg8uDDTlJhCeL2PqUBvT5PUa0bdwskF_pXLcEAyk5ta8QZ5qR_B_IN2cLtx2A-oVxRPGk9sg_cCsZ9kjWfZD9nFdwUZlAJPI3uP5h89p3AYt5UJ5x1_6O9tVafEtc_c84pmNA2IdGPDg6xb5CsnHRXEcWl51LmrP2UNduS07YhMs6DLh4FDbtF7mal9kUlXOSRij4AhEViahOOf8yJt5GnHm6hvRlpbso6kWvOHstIx8s9klPGW0vI_W00]--></g></svg>