<svg xmlns="http://www.w3.org/2000/svg" xmlns:xlink="http://www.w3.org/1999/xlink" contentStyleType="text/css" data-diagram-type="JSON" height="166px" preserveAspectRatio="none" style="width:661px;height:166px;background:#FFFFFF;" version="1.1" viewBox="0 0 661 166" width="661px" zoomAndPan="magnify"><defs/><g><rect fill="#F1F1F1" height="40.5938" rx="5" ry="5" style="stroke:#F1F1F1;stroke-width:1.5;" width="201.9043" x="10" y="55.6484"/><text fill="#000000" font-family="sans-serif" font-size="14" font-weight="bold" lengthAdjust="spacing" textLength="168.5537" x="15" y="70.6436">publish_workflow_log</text><text fill="#000000" font-family="sans-serif" font-size="14" lengthAdjust="spacing" textLength="13.3506" x="193.5537" y="70.6436">&#160;&#160;&#160;</text><line style="stroke:#000000;stroke-width:1;" x1="188.5537" x2="188.5537" y1="55.6484" y2="75.9453"/><line style="stroke:#000000;stroke-width:1;" x1="10" x2="211.9043" y1="75.9453" y2="75.9453"/><text fill="#000000" font-family="sans-serif" font-size="14" font-weight="bold" lengthAdjust="spacing" textLength="130.334" x="15" y="90.9404">changes_pushed</text><text fill="#000000" font-family="sans-serif" font-size="14" lengthAdjust="spacing" textLength="13.3506" x="193.5537" y="90.9404">&#160;&#160;&#160;</text><line style="stroke:#000000;stroke-width:1;" x1="188.5537" x2="188.5537" y1="75.9453" y2="96.2422"/><rect fill="none" height="40.5938" rx="5" ry="5" style="stroke:#000000;stroke-width:1.5;" width="201.9043" x="10" y="55.6484"/><rect fill="#F1F1F1" height="40.5938" rx="5" ry="5" style="stroke:#F1F1F1;stroke-width:1.5;" width="109.1816" x="249" y="26.6484"/><text fill="#000000" font-family="sans-serif" font-size="14" font-weight="bold" lengthAdjust="spacing" textLength="60.1289" x="254" y="41.6436">schema</text><text fill="#000000" font-family="sans-serif" font-size="14" lengthAdjust="spacing" textLength="13.3506" x="339.8311" y="41.6436">&#160;&#160;&#160;</text><line style="stroke:#000000;stroke-width:1;" x1="334.8311" x2="334.8311" y1="26.6484" y2="46.9453"/><line style="stroke:#000000;stroke-width:1;" x1="249" x2="358.1816" y1="46.9453" y2="46.9453"/><text fill="#000000" font-family="sans-serif" font-size="14" font-weight="bold" lengthAdjust="spacing" textLength="75.8311" x="254" y="61.9404">metadata</text><text fill="#000000" font-family="sans-serif" font-size="14" lengthAdjust="spacing" textLength="13.3506" x="339.8311" y="61.9404">&#160;&#160;&#160;</text><line style="stroke:#000000;stroke-width:1;" x1="334.8311" x2="334.8311" y1="46.9453" y2="67.2422"/><rect fill="none" height="40.5938" rx="5" ry="5" style="stroke:#000000;stroke-width:1.5;" width="109.1816" x="249" y="26.6484"/><rect fill="#F1F1F1" height="20.2969" rx="5" ry="5" style="stroke:#F1F1F1;stroke-width:1.5;" width="95.5234" x="395" y="10"/><text fill="#000000" font-family="sans-serif" font-size="14" font-weight="bold" lengthAdjust="spacing" textLength="35.335" x="400" y="24.9951">type</text><text fill="#000000" font-family="sans-serif" font-size="14" lengthAdjust="spacing" textLength="40.1885" x="445.335" y="24.9951">string</text><line style="stroke:#000000;stroke-width:1;" x1="440.335" x2="440.335" y1="10" y2="30.2969"/><rect fill="none" height="20.2969" rx="5" ry="5" style="stroke:#000000;stroke-width:1.5;" width="95.5234" x="395" y="10"/><rect fill="#F1F1F1" height="20.2969" rx="5" ry="5" style="stroke:#F1F1F1;stroke-width:1.5;" width="23.3506" x="431.5" y="48"/><text fill="#000000" font-family="sans-serif" font-size="14" lengthAdjust="spacing" textLength="13.3506" x="436.5" y="62.9951">&#160;&#160;&#160;</text><rect fill="none" height="20.2969" rx="5" ry="5" style="stroke:#000000;stroke-width:1.5;" width="23.3506" x="431.5" y="48"/><rect fill="#F1F1F1" height="40.5938" rx="5" ry="5" style="stroke:#F1F1F1;stroke-width:1.5;" width="121.8623" x="528" y="37.6484"/><text fill="#000000" font-family="sans-serif" font-size="14" font-weight="bold" lengthAdjust="spacing" textLength="32.4775" x="533" y="52.6436">title</text><text fill="#000000" font-family="sans-serif" font-size="14" lengthAdjust="spacing" textLength="59.0283" x="585.834" y="52.6436">cwl:type</text><line style="stroke:#000000;stroke-width:1;" x1="580.834" x2="580.834" y1="37.6484" y2="57.9453"/><line style="stroke:#000000;stroke-width:1;" x1="528" x2="649.8623" y1="57.9453" y2="57.9453"/><text fill="#000000" font-family="sans-serif" font-size="14" font-weight="bold" lengthAdjust="spacing" textLength="42.834" x="533" y="72.9404">value</text><text fill="#000000" font-family="sans-serif" font-size="14" lengthAdjust="spacing" textLength="40.1885" x="585.834" y="72.9404">string</text><line style="stroke:#000000;stroke-width:1;" x1="580.834" x2="580.834" y1="57.9453" y2="78.2422"/><rect fill="none" height="40.5938" rx="5" ry="5" style="stroke:#000000;stroke-width:1.5;" width="121.8623" x="528" y="37.6484"/><rect fill="#F1F1F1" height="40.5938" rx="5" ry="5" style="stroke:#F1F1F1;stroke-width:1.5;" width="109.1816" x="249" y="85.6484"/><text fill="#000000" font-family="sans-serif" font-size="14" font-weight="bold" lengthAdjust="spacing" textLength="60.1289" x="254" y="100.6436">schema</text><text fill="#000000" font-family="sans-serif" font-size="14" lengthAdjust="spacing" textLength="13.3506" x="339.8311" y="100.6436">&#160;&#160;&#160;</text><line style="stroke:#000000;stroke-width:1;" x1="334.8311" x2="334.8311" y1="85.6484" y2="105.9453"/><line style="stroke:#000000;stroke-width:1;" x1="249" x2="358.1816" y1="105.9453" y2="105.9453"/><text fill="#000000" font-family="sans-serif" font-size="14" font-weight="bold" lengthAdjust="spacing" textLength="75.8311" x="254" y="120.9404">metadata</text><text fill="#000000" font-family="sans-serif" font-size="14" lengthAdjust="spacing" textLength="13.3506" x="339.8311" y="120.9404">&#160;&#160;&#160;</text><line style="stroke:#000000;stroke-width:1;" x1="334.8311" x2="334.8311" y1="105.9453" y2="126.2422"/><rect fill="none" height="40.5938" rx="5" ry="5" style="stroke:#000000;stroke-width:1.5;" width="109.1816" x="249" y="85.6484"/><rect fill="#F1F1F1" height="20.2969" rx="5" ry="5" style="stroke:#F1F1F1;stroke-width:1.5;" width="95.5234" x="395" y="86"/><text fill="#000000" font-family="sans-serif" font-size="14" font-weight="bold" lengthAdjust="spacing" textLength="35.335" x="400" y="100.9951">type</text><text fill="#000000" font-family="sans-serif" font-size="14" lengthAdjust="spacing" textLength="40.1885" x="445.335" y="100.9951">string</text><line style="stroke:#000000;stroke-width:1;" x1="440.335" x2="440.335" y1="86" y2="106.2969"/><rect fill="none" height="20.2969" rx="5" ry="5" style="stroke:#000000;stroke-width:1.5;" width="95.5234" x="395" y="86"/><rect fill="#F1F1F1" height="20.2969" rx="5" ry="5" style="stroke:#F1F1F1;stroke-width:1.5;" width="23.3506" x="431.5" y="124"/><text fill="#000000" font-family="sans-serif" font-size="14" lengthAdjust="spacing" textLength="13.3506" x="436.5" y="138.9951">&#160;&#160;&#160;</text><rect fill="none" height="20.2969" rx="5" ry="5" style="stroke:#000000;stroke-width:1.5;" width="23.3506" x="431.5" y="124"/><rect fill="#F1F1F1" height="40.5938" rx="5" ry="5" style="stroke:#F1F1F1;stroke-width:1.5;" width="121.8623" x="528" y="113.6484"/><text fill="#000000" font-family="sans-serif" font-size="14" font-weight="bold" lengthAdjust="spacing" textLength="32.4775" x="533" y="128.6436">title</text><text fill="#000000" font-family="sans-serif" font-size="14" lengthAdjust="spacing" textLength="59.0283" x="585.834" y="128.6436">cwl:type</text><line style="stroke:#000000;stroke-width:1;" x1="580.834" x2="580.834" y1="113.6484" y2="133.9453"/><line style="stroke:#000000;stroke-width:1;" x1="528" x2="649.8623" y1="133.9453" y2="133.9453"/><text fill="#000000" font-family="sans-serif" font-size="14" font-weight="bold" lengthAdjust="spacing" textLength="42.834" x="533" y="148.9404">value</text><text fill="#000000" font-family="sans-serif" font-size="14" lengthAdjust="spacing" textLength="40.1885" x="585.834" y="148.9404">string</text><line style="stroke:#000000;stroke-width:1;" x1="580.834" x2="580.834" y1="133.9453" y2="154.2422"/><rect fill="none" height="40.5938" rx="5" ry="5" style="stroke:#000000;stroke-width:1.5;" width="121.8623" x="528" y="113.6484"/><path d="M346,37.1484 L359,37.1484 C372.7271,37.1484 387.4731,34.9151 400.6959,32.0673" fill="none" style="stroke:#000000;stroke-width:1;stroke-dasharray:3,3;"/><path d="M401.3901,35.1034 L402.973,31.5467 L400.0018,29.0312 L408.2861,30.3318 L401.3901,35.1034" fill="#000000"/><ellipse cx="346" cy="37.1484" fill="#000000" rx="3" ry="3" style="stroke:#000000;stroke-width:1;"/><path d="M442.366,58.1484 L455.366,58.1484 C469.8932,58.1484 495.6606,58.1484 520.6813,58.1484" fill="none" style="stroke:#000000;stroke-width:1;stroke-dasharray:3,3;"/><path d="M520.6813,61.2396 L522.9997,58.1484 L520.6813,55.0573 L528.4091,58.1484 L520.6813,61.2396" fill="#000000"/><ellipse cx="442.366" cy="58.1484" fill="#000000" rx="3" ry="3" style="stroke:#000000;stroke-width:1;"/><path d="M346,57.1484 L359,57.1484 C381.5505,57.1484 407.5243,57.5176 424.436,57.8074" fill="none" style="stroke:#000000;stroke-width:1;stroke-dasharray:3,3;"/><path d="M424.3825,60.8151 L426.6919,57.8475 L424.4896,54.7996 L431.9555,57.9412 L424.3825,60.8151" fill="#000000"/><ellipse cx="346" cy="57.1484" fill="#000000" rx="3" ry="3" style="stroke:#000000;stroke-width:1;"/><path d="M200,66.1484 L213,66.1484 C222.3246,66.1484 232.0778,65.16 241.5788,63.634" fill="none" style="stroke:#000000;stroke-width:1;stroke-dasharray:3,3;"/><path d="M242.111,66.655 L243.8446,63.2348 L241.0466,60.6129 L249.1314,62.3035 L242.111,66.655" fill="#000000"/><ellipse cx="200" cy="66.1484" fill="#000000" rx="3" ry="3" style="stroke:#000000;stroke-width:1;"/><path d="M346,96.1484 L359,96.1484 C368.2653,96.1484 378.1089,96.1484 387.6646,96.1484" fill="none" style="stroke:#000000;stroke-width:1;stroke-dasharray:3,3;"/><path d="M387.6646,99.1825 L389.9401,96.1484 L387.6646,93.1144 L395.2497,96.1484 L387.6646,99.1825" fill="#000000"/><ellipse cx="346" cy="96.1484" fill="#000000" rx="3" ry="3" style="stroke:#000000;stroke-width:1;"/><path d="M442.366,134.1484 L455.366,134.1484 C469.8932,134.1484 495.6606,134.1484 520.6813,134.1484" fill="none" style="stroke:#000000;stroke-width:1;stroke-dasharray:3,3;"/><path d="M520.6813,137.2396 L522.9997,134.1484 L520.6813,131.0573 L528.4091,134.1484 L520.6813,137.2396" fill="#000000"/><ellipse cx="442.366" cy="134.1484" fill="#000000" rx="3" ry="3" style="stroke:#000000;stroke-width:1;"/><path d="M346,116.1484 L359,116.1484 C381.9394,116.1484 407.6438,122.7205 424.3962,127.9223" fill="none" style="stroke:#000000;stroke-width:1;stroke-dasharray:3,3;"/><path d="M423.4327,130.9037 L426.6322,128.645 L425.3597,124.941 L431.8496,130.3311 L423.4327,130.9037" fill="#000000"/><ellipse cx="346" cy="116.1484" fill="#000000" rx="3" ry="3" style="stroke:#000000;stroke-width:1;"/><path d="M200,86.1484 L213,86.1484 C222.3461,86.1484 232.1109,87.1889 241.6172,88.7953" fill="none" style="stroke:#000000;stroke-width:1;stroke-dasharray:3,3;"/><path d="M241.057,91.8174 L243.8838,89.2154 L242.1774,85.7731 L249.1727,90.1957 L241.057,91.8174" fill="#000000"/><ellipse cx="200" cy="86.1484" fill="#000000" rx="3" ry="3" style="stroke:#000000;stroke-width:1;"/><!--SRC=[pP3TJi9048NlzoaclO84IDkWqRqYYfeWLI8_DyQGfHtQrUrkipybnF3kR2l8XI_WrMRcdFFDx8oCPTf-6YN9Dm48AhSHt1JhdT9VMw5sQw7oW4AZUTMa1PRij_OTkw_Gru6nciiyQDk7te-xHCioPXl_-yb_pZL9RaKRJNU2jfZUHQoPS7-udjo-7-Gq8qWB9dCqwygP0hD_kISva17AhBqmcGacxJAPGetQS2KX6iHXV3M8mix28Roe6i8XH26DGpgyXMI-W4RlaixJR0f6EPqYPBmPjd7M0xfamce6RqvQNYA5rmhbPFnyRi23hBbMiaHfoMILN0pNm_uTjp17xLU1LKB6k6LEM9z8LUQ_Gc6vUEpVaAc_i6EvPwCazyfpzPw2T48S0G00]--></g></svg>