<svg xmlns="http://www.w3.org/2000/svg" xmlns:xlink="http://www.w3.org/1999/xlink" contentStyleType="text/css" data-diagram-type="STATE" height="1073px" preserveAspectRatio="none" style="width:758px;height:1073px;background:#FFFFFF;" version="1.1" viewBox="0 0 758 1073" width="758px" zoomAndPan="magnify"><defs/><g><!--cluster publish_workflow--><g class="cluster" data-entity="publish_workflow" data-source-line="12" data-uid="ent0002" id="cluster_publish_workflow"><path d="M19.5,105 L669.5,105 A12.5,12.5 0 0 1 682,117.5 L682,126.2969 L7,126.2969 L7,117.5 A12.5,12.5 0 0 1 19.5,105" fill="#F1F1F1"/><rect fill="none" height="861.58" rx="12.5" ry="12.5" style="stroke:#181818;stroke-width:0.5;" width="675" x="7" y="105"/><line style="stroke:#181818;stroke-width:0.5;" x1="7" x2="682" y1="126.2969" y2="126.2969"/><text fill="#000000" font-family="sans-serif" font-size="14" lengthAdjust="spacing" textLength="120.3057" x="284.3472" y="122.9951">publish_workflow</text></g><!--cluster sync_git_repository--><g class="cluster" data-entity="sync_git_repository" data-source-line="31" data-uid="ent0008" id="cluster_sync_git_repository"><path d="M37.5,282 L179.5,282 A12.5,12.5 0 0 1 192,294.5 L192,303.2969 L25,303.2969 L25,294.5 A12.5,12.5 0 0 1 37.5,282" fill="#F1F1F1"/><rect fill="none" height="102.86" rx="12.5" ry="12.5" style="stroke:#181818;stroke-width:0.5;" width="167" x="25" y="282"/><line style="stroke:#181818;stroke-width:0.5;" x1="25" x2="192" y1="303.2969" y2="303.2969"/><text fill="#000000" font-family="sans-serif" font-size="14" lengthAdjust="spacing" textLength="135.5156" x="40.7422" y="299.9951">sync_git_repository</text></g><!--cluster publish_workflow--><g class="cluster" data-entity="publish_workflow" data-source-line="57" data-uid="ent0010" id="cluster_publish_workflow"><path d="M90.25,486.86 L195.25,486.86 A12.5,12.5 0 0 1 207.75,499.36 L207.75,508.1569 L77.75,508.1569 L77.75,499.36 A12.5,12.5 0 0 1 90.25,486.86" fill="#F1F1F1"/><rect fill="none" height="89.86" rx="12.5" ry="12.5" style="stroke:#181818;stroke-width:0.5;" width="130" x="77.75" y="486.86"/><line style="stroke:#181818;stroke-width:0.5;" x1="77.75" x2="207.75" y1="508.1569" y2="508.1569"/><text fill="#000000" font-family="sans-serif" font-size="14" lengthAdjust="spacing" textLength="120.3057" x="82.5972" y="504.8551">publish_workflow</text></g><!--cluster commit_and_push--><g class="cluster" data-entity="commit_and_push" data-source-line="132" data-uid="ent0014" id="cluster_commit_and_push"><path d="M45.5,767.72 L157.5,767.72 A12.5,12.5 0 0 1 170,780.22 L170,789.0169 L33,789.0169 L33,780.22 A12.5,12.5 0 0 1 45.5,767.72" fill="#F1F1F1"/><rect fill="none" height="101.86" rx="12.5" ry="12.5" style="stroke:#181818;stroke-width:0.5;" width="137" x="33" y="767.72"/><line style="stroke:#181818;stroke-width:0.5;" x1="33" x2="170" y1="789.0169" y2="789.0169"/><text fill="#000000" font-family="sans-serif" font-size="14" lengthAdjust="spacing" textLength="127.1826" x="37.9087" y="785.7151">commit_and_push</text></g><text fill="#000000" font-family="sans-serif" font-size="14" lengthAdjust="spacing" textLength="82.4893" x="6.2554" y="83.6982">workflow_id</text><ellipse cx="47.5" cy="105" fill="#F1F1F1" rx="6" ry="6" style="stroke:#181818;stroke-width:1.5;"/><text fill="#000000" font-family="sans-serif" font-size="14" lengthAdjust="spacing" textLength="68.6738" x="120.6631" y="83.6982">project_id</text><ellipse cx="155" cy="105" fill="#F1F1F1" rx="6" ry="6" style="stroke:#181818;stroke-width:1.5;"/><text fill="#000000" font-family="sans-serif" font-size="14" lengthAdjust="spacing" textLength="95.6006" x="226.6997" y="83.6982">project_name</text><ellipse cx="274.5" cy="105" fill="#F1F1F1" rx="6" ry="6" style="stroke:#181818;stroke-width:1.5;"/><text fill="#000000" font-family="sans-serif" font-size="14" lengthAdjust="spacing" textLength="199.5957" x="363.7021" y="83.6982">ogc_api_processes_endpoint</text><ellipse cx="463.5" cy="105" fill="#F1F1F1" rx="6" ry="6" style="stroke:#181818;stroke-width:1.5;"/><text fill="#000000" font-family="sans-serif" font-size="14" lengthAdjust="spacing" textLength="155.2988" x="586.3506" y="83.6982">cwl_workflow_location</text><ellipse cx="664" cy="105" fill="#F1F1F1" rx="6" ry="6" style="stroke:#181818;stroke-width:1.5;"/><g class="entity" data-entity="commit_and_push_commit_message_choice" data-uid="ent0013" id="entity_commit_and_push_commit_message_choice"><polygon fill="#F1F1F1" points="180,643.72,192,655.72,180,667.72,168,655.72,180,643.72" style="stroke:#181818;stroke-width:0.5;"/></g><text fill="#000000" font-family="sans-serif" font-size="14" lengthAdjust="spacing" textLength="148.6475" x="14.6763" y="985.5751">publish_workflow_log</text><ellipse cx="89" cy="966.58" fill="#F1F1F1" rx="6" ry="6" style="stroke:#181818;stroke-width:1.5;"/><line style="stroke:#181818;stroke-width:1.5;" x1="93.3891" x2="85.6109" y1="970.9691" y2="963.1909"/><line style="stroke:#181818;stroke-width:1.5;" x1="93.3891" x2="85.6109" y1="963.1909" y2="970.9691"/><text fill="#000000" font-family="sans-serif" font-size="14" lengthAdjust="spacing" textLength="117.2432" x="170.3784" y="985.5751">changes_pushed</text><ellipse cx="229" cy="966.58" fill="#F1F1F1" rx="6" ry="6" style="stroke:#181818;stroke-width:1.5;"/><line style="stroke:#181818;stroke-width:1.5;" x1="233.3891" x2="225.6109" y1="970.9691" y2="963.1909"/><line style="stroke:#181818;stroke-width:1.5;" x1="233.3891" x2="225.6109" y1="963.1909" y2="970.9691"/><text fill="#000000" font-family="sans-serif" font-size="14" lengthAdjust="spacing" textLength="133.8545" x="42.0728" y="403.8551">checkout_directory</text><ellipse cx="109" cy="384.86" fill="#F1F1F1" rx="6" ry="6" style="stroke:#181818;stroke-width:1.5;"/><line style="stroke:#181818;stroke-width:1.5;" x1="113.3891" x2="105.6109" y1="389.2491" y2="381.4709"/><line style="stroke:#181818;stroke-width:1.5;" x1="113.3891" x2="105.6109" y1="381.4709" y2="389.2491"/><text fill="#000000" font-family="sans-serif" font-size="14" lengthAdjust="spacing" textLength="86.1055" x="65.9473" y="465.5582">osc_location</text><ellipse cx="109" cy="486.86" fill="#F1F1F1" rx="6" ry="6" style="stroke:#181818;stroke-width:1.5;"/><text fill="#000000" font-family="sans-serif" font-size="14" lengthAdjust="spacing" textLength="21.3418" x="88.3291" y="595.7151">log</text><ellipse cx="99" cy="576.72" fill="#F1F1F1" rx="6" ry="6" style="stroke:#181818;stroke-width:1.5;"/><line style="stroke:#181818;stroke-width:1.5;" x1="103.3891" x2="95.6109" y1="581.1091" y2="573.3309"/><line style="stroke:#181818;stroke-width:1.5;" x1="103.3891" x2="95.6109" y1="573.3309" y2="581.1091"/><text fill="#000000" font-family="sans-serif" font-size="14" lengthAdjust="spacing" textLength="122.835" x="82.0825" y="746.4182">commit_message</text><ellipse cx="143.5" cy="767.72" fill="#F1F1F1" rx="6" ry="6" style="stroke:#181818;stroke-width:1.5;"/><text fill="#000000" font-family="sans-serif" font-size="14" lengthAdjust="spacing" textLength="117.2432" x="87.3784" y="888.5751">changes_pushed</text><ellipse cx="146" cy="869.58" fill="#F1F1F1" rx="6" ry="6" style="stroke:#181818;stroke-width:1.5;"/><line style="stroke:#181818;stroke-width:1.5;" x1="150.3891" x2="142.6109" y1="873.9691" y2="866.1909"/><line style="stroke:#181818;stroke-width:1.5;" x1="150.3891" x2="142.6109" y1="866.1909" y2="873.9691"/><ellipse cx="275" cy="16" fill="#222222" rx="10" ry="10" style="stroke:#222222;stroke-width:1;"/><ellipse cx="158" cy="1056.58" fill="none" rx="11" ry="11" style="stroke:#222222;stroke-width:1;"/><ellipse cx="158" cy="1056.58" fill="#222222" rx="6" ry="6" style="stroke:#222222;stroke-width:1;"/><!--link publish_workflow_workflow_id to publish_workflow_workflow_id--><g class="link" data-entity-1="publish_workflow_workflow_id" data-entity-2="publish_workflow_workflow_id" data-source-line="63" data-uid="lnk2" id="link_publish_workflow_workflow_id_publish_workflow_workflow_id"><path d="M53.57,102.29 C75.42,93.08 108,93.98 108,105 C108,116.02 80.9489,119.2505 59.0989,110.0405" fill="none" id="publish_workflow_workflow_id-to-publish_workflow_workflow_id" style="stroke:#181818;stroke-width:1;"/><polygon fill="#181818" points="53.57,107.71,60.3097,114.8917,58.1774,109.6521,63.417,107.5198,53.57,107.71" style="stroke:#181818;stroke-width:1;"/></g><!--link publish_workflow_project_id to publish_workflow_project_id--><g class="link" data-entity-1="publish_workflow_project_id" data-entity-2="publish_workflow_project_id" data-source-line="71" data-uid="lnk3" id="link_publish_workflow_project_id_publish_workflow_project_id"><path d="M161.26,101.94 C182.7,93.11 215,94.12 215,105 C215,115.87 188.2479,119.1749 166.8079,110.3449" fill="none" id="publish_workflow_project_id-to-publish_workflow_project_id" style="stroke:#181818;stroke-width:1;"/><polygon fill="#181818" points="161.26,108.06,168.0586,115.1859,165.8833,109.9641,171.1051,107.7887,161.26,108.06" style="stroke:#181818;stroke-width:1;"/></g><!--link publish_workflow_project_name to publish_workflow_project_name--><g class="link" data-entity-1="publish_workflow_project_name" data-entity-2="publish_workflow_project_name" data-source-line="79" data-uid="lnk4" id="link_publish_workflow_project_name_publish_workflow_project_name"><path d="M280.8,102.41 C304.66,93.07 339.5,93.94 339.5,105 C339.5,116.06 310.2472,119.1171 286.3872,109.7771" fill="none" id="publish_workflow_project_name-to-publish_workflow_project_name" style="stroke:#181818;stroke-width:1;"/><polygon fill="#181818" points="280.8,107.59,287.7227,114.5954,285.456,109.4126,290.6388,107.1459,280.8,107.59" style="stroke:#181818;stroke-width:1;"/></g><!--link publish_workflow_ogc_api_processes_endpoint to publish_workflow_ogc_api_processes_endpoint--><g class="link" data-entity-1="publish_workflow_ogc_api_processes_endpoint" data-entity-2="publish_workflow_ogc_api_processes_endpoint" data-source-line="87" data-uid="lnk5" id="link_publish_workflow_ogc_api_processes_endpoint_publish_workflow_ogc_api_processes_endpoint"><path d="M469.88,103.39 C510.57,93.03 567.5,93.56 567.5,105 C567.5,116.44 516.3845,118.4504 475.6945,108.0904" fill="none" id="publish_workflow_ogc_api_processes_endpoint-to-publish_workflow_ogc_api_processes_endpoint" style="stroke:#181818;stroke-width:1;"/><polygon fill="#181818" points="469.88,106.61,477.6148,112.707,474.7254,107.8437,479.5887,104.9543,469.88,106.61" style="stroke:#181818;stroke-width:1;"/></g><!--link sync_git_repository_checkout_directory to publish_workflow_osc_location--><g class="link" data-entity-1="sync_git_repository_checkout_directory" data-entity-2="publish_workflow_osc_location" data-source-line="95" data-uid="lnk6" id="link_sync_git_repository_checkout_directory_publish_workflow_osc_location"><path d="M109,390.96 C109,408.07 109,457.38 109,474.65" fill="none" id="sync_git_repository_checkout_directory-to-publish_workflow_osc_location" style="stroke:#181818;stroke-width:1;"/><polygon fill="#181818" points="109,480.65,113,471.65,109,475.65,105,471.65,109,480.65" style="stroke:#181818;stroke-width:1;"/></g><!--link publish_workflow_cwl_workflow_location to publish_workflow_cwl_workflow_location--><g class="link" data-entity-1="publish_workflow_cwl_workflow_location" data-entity-2="publish_workflow_cwl_workflow_location" data-source-line="103" data-uid="lnk7" id="link_publish_workflow_cwl_workflow_location_publish_workflow_cwl_workflow_location"><path d="M670.08,103.01 C703.64,93.04 751.5,93.7 751.5,105 C751.5,116.3 709.3916,118.6687 675.8316,108.6987" fill="none" id="publish_workflow_cwl_workflow_location-to-publish_workflow_cwl_workflow_location" style="stroke:#181818;stroke-width:1;"/><polygon fill="#181818" points="670.08,106.99,677.5682,113.3874,674.873,108.4139,679.8465,105.7186,670.08,106.99" style="stroke:#181818;stroke-width:1;"/></g><!--link publish_workflow_workflow_id to commit_and_push_commit_message_choice--><g class="link" data-entity-1="publish_workflow_workflow_id" data-entity-2="commit_and_push_commit_message_choice" data-source-line="121" data-uid="lnk8" id="link_publish_workflow_workflow_id_commit_and_push_commit_message_choice"><path d="M53.81,107.57 C81.76,115.31 201,150.31 201,184 C201,184 201,184 201,577.72 C201,603.77 192.076,627.5935 186.066,641.3235" fill="none" id="publish_workflow_workflow_id-to-commit_and_push_commit_message_choice" style="stroke:#181818;stroke-width:1;"/><polygon fill="#181818" points="183.66,646.82,190.9333,640.1792,185.665,642.2396,183.6046,636.9713,183.66,646.82" style="stroke:#181818;stroke-width:1;"/></g><!--link publish_workflow_project_name to commit_and_push_commit_message_choice--><g class="link" data-entity-1="publish_workflow_project_name" data-entity-2="commit_and_push_commit_message_choice" data-source-line="123" data-uid="lnk9" id="link_publish_workflow_project_name_commit_and_push_commit_message_choice"><path d="M275,111.3 C275,123.9 275,156.65 275,184 C275,184 275,184 275,577.72 C275,621.88 218.0299,643.3626 194.5099,650.5226" fill="none" id="publish_workflow_project_name-to-commit_and_push_commit_message_choice" style="stroke:#181818;stroke-width:1;"/><polygon fill="#181818" points="188.77,652.27,198.5448,653.4756,193.5533,650.8139,196.215,645.8223,188.77,652.27" style="stroke:#181818;stroke-width:1;"/></g><!--link publish_workflow_project_id to commit_and_push_commit_message_choice--><g class="link" data-entity-1="publish_workflow_project_id" data-entity-2="commit_and_push_commit_message_choice" data-source-line="125" data-uid="lnk10" id="link_publish_workflow_project_id_commit_and_push_commit_message_choice"><path d="M161.24,108.3 C180.54,115.85 238,141.88 238,184 C238,184 238,184 238,577.72 C238,611.19 207.5337,635.9456 192.0437,646.6656" fill="none" id="publish_workflow_project_id-to-commit_and_push_commit_message_choice" style="stroke:#181818;stroke-width:1;"/><polygon fill="#181818" points="187.11,650.08,196.7869,648.2475,191.2214,647.2346,192.2343,641.6692,187.11,650.08" style="stroke:#181818;stroke-width:1;"/></g><!--link publish_workflow_log to commit_and_push_commit_message_choice--><g class="link" data-entity-1="publish_workflow_log" data-entity-2="commit_and_push_commit_message_choice" data-source-line="127" data-uid="lnk11" id="link_publish_workflow_log_commit_and_push_commit_message_choice"><path d="M102.68,582.97 C104.48,585.41 106.74,588.31 109,590.72 C119.11,601.53 122.98,602.84 134,612.72 C148.49,625.71 160.939,637.1326 169.669,645.1826" fill="none" id="publish_workflow_log-to-commit_and_push_commit_message_choice" style="stroke:#181818;stroke-width:1;"/><polygon fill="#181818" points="174.08,649.25,170.1752,640.2083,170.4042,645.8605,164.752,646.0896,174.08,649.25" style="stroke:#181818;stroke-width:1;"/></g><!--link commit_and_push_commit_message_choice to commit_and_push_commit_message--><g class="link" data-entity-1="commit_and_push_commit_message_choice" data-entity-2="commit_and_push_commit_message" data-source-line="137" data-uid="lnk12" id="link_commit_and_push_commit_message_choice_commit_and_push_commit_message"><path d="M177.18,665.35 C170.01,687.23 153.1867,738.6478 147.5167,755.9678" fill="none" id="commit_and_push_commit_message_choice-to-commit_and_push_commit_message" style="stroke:#181818;stroke-width:1;"/><polygon fill="#181818" points="145.65,761.67,152.2516,754.3611,147.2056,756.9181,144.6486,751.8722,145.65,761.67" style="stroke:#181818;stroke-width:1;"/><text fill="#000000" font-family="sans-serif" font-size="13" lengthAdjust="spacing" textLength="33.9155" x="168" y="710.7869">None</text></g><!--link publish_workflow_log to publish_workflow_publish_workflow_log--><g class="link" data-entity-1="publish_workflow_log" data-entity-2="publish_workflow_publish_workflow_log" data-source-line="153" data-uid="lnk13" id="link_publish_workflow_log_publish_workflow_publish_workflow_log"><path d="M92.66,578.82 C78.56,581.63 44.63,590.49 29,612.72 C18.19,628.1 24,635.92 24,654.72 C24,654.72 24,654.72 24,870.58 C24,885.41 22.42,890.29 29,903.58 C42.03,929.89 65.4155,948.7476 77.9355,957.7876" fill="none" id="publish_workflow_log-to-publish_workflow_publish_workflow_log" style="stroke:#181818;stroke-width:1;"/><polygon fill="#181818" points="82.8,961.3,77.8449,952.7884,78.7463,958.373,73.1617,959.2744,82.8,961.3" style="stroke:#181818;stroke-width:1;"/></g><!--link commit_and_push_changes_pushed to publish_workflow_changes_pushed--><g class="link" data-entity-1="commit_and_push_changes_pushed" data-entity-2="publish_workflow_changes_pushed" data-source-line="158" data-uid="lnk14" id="link_commit_and_push_changes_pushed_publish_workflow_changes_pushed"><path d="M150.46,875.69 C164.87,892.18 206.1211,939.4027 220.5711,955.9327" fill="none" id="commit_and_push_changes_pushed-to-publish_workflow_changes_pushed" style="stroke:#181818;stroke-width:1;"/><polygon fill="#181818" points="224.52,960.45,221.6082,951.0414,221.2293,956.6856,215.5851,956.3066,224.52,960.45" style="stroke:#181818;stroke-width:1;"/></g><!--link *start* to publish_workflow_workflow_id--><g class="link" data-entity-1=".start." data-entity-2="publish_workflow_workflow_id" data-source-line="163" data-uid="lnk16" id="link_.start._publish_workflow_workflow_id"><path d="M265.9,20.24 C240.69,29.23 167.85,55.43 108,79 C87.84,86.94 69.6811,94.6577 59.1111,99.2077" fill="none" id="*start*-to-publish_workflow_workflow_id" style="stroke:#181818;stroke-width:1;"/><polygon fill="#181818" points="53.6,101.58,63.4482,101.6956,58.1926,99.6031,60.2851,94.3475,53.6,101.58" style="stroke:#181818;stroke-width:1;"/></g><!--link *start* to publish_workflow_project_id--><g class="link" data-entity-1=".start." data-entity-2="publish_workflow_project_id" data-source-line="165" data-uid="lnk17" id="link_.start._publish_workflow_project_id"><path d="M267.13,22.71 C244.81,38.89 186.3074,81.2978 166.1174,95.9378" fill="none" id="*start*-to-publish_workflow_project_id" style="stroke:#181818;stroke-width:1;"/><polygon fill="#181818" points="161.26,99.46,170.8942,97.415,165.3078,96.5249,166.198,90.9385,161.26,99.46" style="stroke:#181818;stroke-width:1;"/></g><!--link *start* to publish_workflow_project_name--><g class="link" data-entity-1=".start." data-entity-2="publish_workflow_project_name" data-source-line="167" data-uid="lnk18" id="link_.start._publish_workflow_project_name"><path d="M275,26.31 C275,44.55 275,78.44 275,92.75" fill="none" id="*start*-to-publish_workflow_project_name" style="stroke:#181818;stroke-width:1;"/><polygon fill="#181818" points="275,98.75,279,89.75,275,93.75,271,89.75,275,98.75" style="stroke:#181818;stroke-width:1;"/></g><!--link *start* to publish_workflow_ogc_api_processes_endpoint--><g class="link" data-entity-1=".start." data-entity-2="publish_workflow_ogc_api_processes_endpoint" data-source-line="169" data-uid="lnk19" id="link_.start._publish_workflow_ogc_api_processes_endpoint"><path d="M283.86,21.08 C316.41,36.06 423.4901,85.3504 451.9601,98.4604" fill="none" id="*start*-to-publish_workflow_ogc_api_processes_endpoint" style="stroke:#181818;stroke-width:1;"/><polygon fill="#181818" points="457.41,100.97,450.9082,93.5723,452.8684,98.8787,447.562,100.8389,457.41,100.97" style="stroke:#181818;stroke-width:1;"/></g><!--link *start* to publish_workflow_cwl_workflow_location--><g class="link" data-entity-1=".start." data-entity-2="publish_workflow_cwl_workflow_location" data-source-line="171" data-uid="lnk20" id="link_.start._publish_workflow_cwl_workflow_location"><path d="M284.65,18.87 C321.54,26.07 457.17,52.86 568,79 C602.2,87.07 637.0662,96.5538 652.1762,100.7238" fill="none" id="*start*-to-publish_workflow_cwl_workflow_location" style="stroke:#181818;stroke-width:1;"/><polygon fill="#181818" points="657.96,102.32,650.3484,96.0699,653.1402,100.9898,648.2202,103.7816,657.96,102.32" style="stroke:#181818;stroke-width:1;"/></g><!--link publish_workflow_publish_workflow_log to *end*--><g class="link" data-entity-1="publish_workflow_publish_workflow_log" data-entity-2=".end." data-source-line="175" data-uid="lnk22" id="link_publish_workflow_publish_workflow_log_.end."><path d="M93.11,972.82 C104.66,987.55 133.757,1024.669 147.797,1042.569" fill="none" id="publish_workflow_publish_workflow_log-to-*end*" style="stroke:#181818;stroke-width:1;"/><polygon fill="#181818" points="151.5,1047.29,149.0929,1037.7398,148.4142,1043.3558,142.7982,1042.6771,151.5,1047.29" style="stroke:#181818;stroke-width:1;"/></g><!--link publish_workflow_changes_pushed to *end*--><g class="link" data-entity-1="publish_workflow_changes_pushed" data-entity-2=".end." data-source-line="177" data-uid="lnk23" id="link_publish_workflow_changes_pushed_.end."><path d="M224.77,972.82 C212.83,987.62 182.5574,1025.1402 168.2374,1042.8902" fill="none" id="publish_workflow_changes_pushed-to-*end*" style="stroke:#181818;stroke-width:1;"/><polygon fill="#181818" points="164.47,1047.56,173.2343,1043.0669,167.6095,1043.6685,167.0079,1038.0437,164.47,1047.56" style="stroke:#181818;stroke-width:1;"/></g><!--SRC=[pLTHRziW47xthq1zgLGfQP8cKnjLUUhpj8UzJHEYc3giDY13cbdJ_ll0JMixER2JagaeYcBptNtSnt5ShYyJT8aUECbAKg2C2LOImrBqM26wpMTgK-JePJAUtumd3cXumRGXXLgYsMJsPJHPZAPttwUBvNo-dDwC5xTpYxfEaZLF6MA5CXLAcQObLuPBaTJ3sXk6BjJcCUTwZRUoV7xAvVO24OtsNw8_2RAZ_jhPlKrXde8ck0L0z_TCcBBw9hamgzM1BrNANumQhwjcVgWdGGeMzkKGVTvaHZ5HtDbGfZNJc8bKEJ3isu_lOxARtBZ99ILkds0I40hwJzndR_XV9Atrw4fGd763IwQavaQMrIu56cJ7-2sCDQFFScDmoaihiZMhOm3SuKEeY-4tD-qG6hQ_NSvZulhCCotDFMSEalcZPoyed7_vGPhHQ1K4zFFuYQEKYLX1jrZ0c9lvY26VNizYXrtp10DtY0YXdxVunf8bm0gAvCV7a4pJdikZZOWeoy023olIMb843SvnayPA5fWGL0M4dYAFLwXSPh0iTkA_NyMlQwAoA6mI4P5YjR5BsZtRNbUJZDcCafow8lVw0zYSuw-iGPGdy1oKotCJdJaUbnGH_GSxeJsEG2FKPQ_JERp0Zv_kOJdQBnLQegzIiAX7cgw9oEoLukXO2ilHWHnrpfj7prz7x2qfHzIOTn9l2Wxo7f3FBzPX5HwYrhlZ7gtXEj_115RTseqVLp-7jzj-DD2ezeCxpPqVFg3DyHk7xxvM7WxBCyTXkG9cm4PPWty0]--></g></svg>