<svg xmlns="http://www.w3.org/2000/svg" xmlns:xlink="http://www.w3.org/1999/xlink" contentStyleType="text/css" data-diagram-type="ACTIVITY" height="513px" preserveAspectRatio="none" style="width:784px;height:513px;background:#FFFFFF;" version="1.1" viewBox="0 0 784 513" width="784px" zoomAndPan="magnify"><defs/><g><ellipse cx="390.5215" cy="20" fill="#222222" rx="10" ry="10" style="stroke:#222222;stroke-width:1;"/><rect fill="none" height="420.0469" style="stroke:#000000;stroke-width:1.5;" width="762.375" x="11" y="40"/><path d="M141.3057,40 L141.3057,49.2969 L131.3057,59.2969 L11,59.2969" fill="none" style="stroke:#000000;stroke-width:1.5;"/><text fill="#000000" font-family="sans-serif" font-size="14" lengthAdjust="spacing" textLength="120.3057" x="14" y="53.9951">publish_workflow</text><line style="stroke:#181818;stroke-width:1.5;" x1="68.3525" x2="674.8184" y1="76.2969" y2="76.2969"/><polygon fill="#F1F1F1" points="23,96.2969,123.7051,96.2969,113.7051,113.2813,123.7051,130.2656,23,130.2656" style="stroke:#181818;stroke-width:0.5;"/><text fill="#000000" font-family="sans-serif" font-size="12" lengthAdjust="spacing" textLength="70.7051" x="33" y="117.4355">workflow_id</text><polygon fill="#F1F1F1" points="133.7051,96.2969,222.5684,96.2969,212.5684,113.2813,222.5684,130.2656,133.7051,130.2656" style="stroke:#181818;stroke-width:0.5;"/><text fill="#000000" font-family="sans-serif" font-size="12" lengthAdjust="spacing" textLength="58.8633" x="143.7051" y="117.4355">project_id</text><polygon fill="#F1F1F1" points="247.2363,96.2969,359.1797,96.2969,349.1797,113.2813,359.1797,130.2656,247.2363,130.2656" style="stroke:#181818;stroke-width:0.5;"/><text fill="#000000" font-family="sans-serif" font-size="12" lengthAdjust="spacing" textLength="81.9434" x="257.2363" y="117.4355">project_name</text><polygon fill="#F1F1F1" points="387.1797,96.2969,588.2617,96.2969,578.2617,113.2813,588.2617,130.2656,387.1797,130.2656" style="stroke:#181818;stroke-width:0.5;"/><text fill="#000000" font-family="sans-serif" font-size="12" lengthAdjust="spacing" textLength="171.082" x="397.1797" y="117.4355">ogc_api_processes_endpoint</text><polygon fill="#F1F1F1" points="598.2617,96.2969,761.375,96.2969,751.375,113.2813,761.375,130.2656,598.2617,130.2656" style="stroke:#181818;stroke-width:0.5;"/><text fill="#000000" font-family="sans-serif" font-size="12" lengthAdjust="spacing" textLength="133.1133" x="608.2617" y="117.4355">cwl_workflow_location</text><line style="stroke:#181818;stroke-width:1.5;" x1="68.3525" x2="674.8184" y1="150.2656" y2="150.2656"/><rect fill="#F1F1F1" height="47.9375" rx="12.5" ry="12.5" style="stroke:#181818;stroke-width:0.5;" width="275.3105" x="252.8662" y="170.2656"/><text fill="#000000" font-family="sans-serif" font-size="12" lengthAdjust="spacing" textLength="149.9707" x="262.8662" y="191.4043">step: sync_git_repository</text><text fill="#000000" font-family="sans-serif" font-size="12" lengthAdjust="spacing" textLength="255.3105" x="262.8662" y="205.373">CommandLineTool: sync_git_repository_cli</text><rect fill="#F1F1F1" height="47.9375" rx="12.5" ry="12.5" style="stroke:#181818;stroke-width:0.5;" width="262.2734" x="259.3848" y="238.2031"/><text fill="#000000" font-family="sans-serif" font-size="12" lengthAdjust="spacing" textLength="136.9336" x="269.3848" y="259.3418">step: publish_workflow</text><text fill="#000000" font-family="sans-serif" font-size="12" lengthAdjust="spacing" textLength="242.2734" x="269.3848" y="273.3105">CommandLineTool: publish_workflow_cli</text><rect fill="#F1F1F1" height="47.9375" rx="12.5" ry="12.5" style="stroke:#181818;stroke-width:0.5;" width="268.168" x="256.4375" y="306.1406"/><text fill="#000000" font-family="sans-serif" font-size="12" lengthAdjust="spacing" textLength="142.8281" x="266.4375" y="327.2793">step: commit_and_push</text><text fill="#000000" font-family="sans-serif" font-size="12" lengthAdjust="spacing" textLength="248.168" x="266.4375" y="341.248">CommandLineTool: commit_and_push_cli</text><line style="stroke:#181818;stroke-width:1.5;" x1="306.2744" x2="478.2275" y1="374.0781" y2="374.0781"/><polygon fill="#F1F1F1" points="232.5684,394.0781,379.9805,394.0781,389.9805,411.0625,379.9805,428.0469,232.5684,428.0469" style="stroke:#181818;stroke-width:0.5;"/><text fill="#000000" font-family="sans-serif" font-size="12" lengthAdjust="spacing" textLength="127.4121" x="242.5684" y="415.2168">publish_workflow_log</text><polygon fill="#F1F1F1" points="417.9805,394.0781,538.4746,394.0781,548.4746,411.0625,538.4746,428.0469,417.9805,428.0469" style="stroke:#181818;stroke-width:0.5;"/><text fill="#000000" font-family="sans-serif" font-size="12" lengthAdjust="spacing" textLength="100.4941" x="427.9805" y="415.2168">changes_pushed</text><line style="stroke:#181818;stroke-width:1.5;" x1="306.2744" x2="478.2275" y1="448.0469" y2="448.0469"/><ellipse cx="390.5215" cy="491.0469" fill="none" rx="11" ry="11" style="stroke:#222222;stroke-width:1;"/><ellipse cx="390.5215" cy="491.0469" fill="#222222" rx="6" ry="6" style="stroke:#222222;stroke-width:1;"/><line style="stroke:#181818;stroke-width:1;" x1="68.3525" x2="68.3525" y1="77.7969" y2="96.2969"/><polygon fill="#181818" points="64.3525,86.2969,68.3525,96.2969,72.3525,86.2969,68.3525,90.2969" style="stroke:#181818;stroke-width:1;"/><line style="stroke:#181818;stroke-width:1;" x1="173.1367" x2="173.1367" y1="77.7969" y2="96.2969"/><polygon fill="#181818" points="169.1367,86.2969,173.1367,96.2969,177.1367,86.2969,173.1367,90.2969" style="stroke:#181818;stroke-width:1;"/><line style="stroke:#181818;stroke-width:1;" x1="298.208" x2="298.208" y1="77.7969" y2="96.2969"/><polygon fill="#181818" points="294.208,86.2969,298.208,96.2969,302.208,86.2969,298.208,90.2969" style="stroke:#181818;stroke-width:1;"/><line style="stroke:#181818;stroke-width:1;" x1="482.7207" x2="482.7207" y1="77.7969" y2="96.2969"/><polygon fill="#181818" points="478.7207,86.2969,482.7207,96.2969,486.7207,86.2969,482.7207,90.2969" style="stroke:#181818;stroke-width:1;"/><line style="stroke:#181818;stroke-width:1;" x1="674.8184" x2="674.8184" y1="77.7969" y2="96.2969"/><polygon fill="#181818" points="670.8184,86.2969,674.8184,96.2969,678.8184,86.2969,674.8184,90.2969" style="stroke:#181818;stroke-width:1;"/><line style="stroke:#181818;stroke-width:1;" x1="68.3525" x2="68.3525" y1="130.2656" y2="150.2656"/><polygon fill="#181818" points="64.3525,140.2656,68.3525,150.2656,72.3525,140.2656,68.3525,144.2656" style="stroke:#181818;stroke-width:1;"/><line style="stroke:#181818;stroke-width:1;" x1="173.1367" x2="173.1367" y1="130.2656" y2="150.2656"/><polygon fill="#181818" points="169.1367,140.2656,173.1367,150.2656,177.1367,140.2656,173.1367,144.2656" style="stroke:#181818;stroke-width:1;"/><line style="stroke:#181818;stroke-width:1;" x1="298.208" x2="298.208" y1="130.2656" y2="150.2656"/><polygon fill="#181818" points="294.208,140.2656,298.208,150.2656,302.208,140.2656,298.208,144.2656" style="stroke:#181818;stroke-width:1;"/><line style="stroke:#181818;stroke-width:1;" x1="482.7207" x2="482.7207" y1="130.2656" y2="150.2656"/><polygon fill="#181818" points="478.7207,140.2656,482.7207,150.2656,486.7207,140.2656,482.7207,144.2656" style="stroke:#181818;stroke-width:1;"/><line style="stroke:#181818;stroke-width:1;" x1="674.8184" x2="674.8184" y1="130.2656" y2="150.2656"/><polygon fill="#181818" points="670.8184,140.2656,674.8184,150.2656,678.8184,140.2656,674.8184,144.2656" style="stroke:#181818;stroke-width:1;"/><line style="stroke:#181818;stroke-width:1;" x1="390.5215" x2="390.5215" y1="151.7656" y2="170.2656"/><polygon fill="#181818" points="386.5215,160.2656,390.5215,170.2656,394.5215,160.2656,390.5215,164.2656" style="stroke:#181818;stroke-width:1;"/><line style="stroke:#181818;stroke-width:1;" x1="390.5215" x2="390.5215" y1="218.2031" y2="238.2031"/><polygon fill="#181818" points="386.5215,228.2031,390.5215,238.2031,394.5215,228.2031,390.5215,232.2031" style="stroke:#181818;stroke-width:1;"/><line style="stroke:#181818;stroke-width:1;" x1="390.5215" x2="390.5215" y1="286.1406" y2="306.1406"/><polygon fill="#181818" points="386.5215,296.1406,390.5215,306.1406,394.5215,296.1406,390.5215,300.1406" style="stroke:#181818;stroke-width:1;"/><line style="stroke:#181818;stroke-width:1;" x1="306.2744" x2="306.2744" y1="375.5781" y2="394.0781"/><polygon fill="#181818" points="302.2744,384.0781,306.2744,394.0781,310.2744,384.0781,306.2744,388.0781" style="stroke:#181818;stroke-width:1;"/><line style="stroke:#181818;stroke-width:1;" x1="478.2275" x2="478.2275" y1="375.5781" y2="394.0781"/><polygon fill="#181818" points="474.2275,384.0781,478.2275,394.0781,482.2275,384.0781,478.2275,388.0781" style="stroke:#181818;stroke-width:1;"/><line style="stroke:#181818;stroke-width:1;" x1="306.2744" x2="306.2744" y1="428.0469" y2="448.0469"/><polygon fill="#181818" points="302.2744,438.0469,306.2744,448.0469,310.2744,438.0469,306.2744,442.0469" style="stroke:#181818;stroke-width:1;"/><line style="stroke:#181818;stroke-width:1;" x1="478.2275" x2="478.2275" y1="428.0469" y2="448.0469"/><polygon fill="#181818" points="474.2275,438.0469,478.2275,448.0469,482.2275,438.0469,478.2275,442.0469" style="stroke:#181818;stroke-width:1;"/><line style="stroke:#181818;stroke-width:1;" x1="390.5215" x2="390.5215" y1="354.0781" y2="374.0781"/><polygon fill="#181818" points="386.5215,364.0781,390.5215,374.0781,394.5215,364.0781,390.5215,368.0781" style="stroke:#181818;stroke-width:1;"/><line style="stroke:#181818;stroke-width:1;" x1="390.5215" x2="390.5215" y1="30" y2="76.2969"/><polygon fill="#181818" points="386.5215,66.2969,390.5215,76.2969,394.5215,66.2969,390.5215,70.2969" style="stroke:#181818;stroke-width:1;"/><line style="stroke:#181818;stroke-width:1;" x1="390.5215" x2="390.5215" y1="449.5469" y2="480.0469"/><polygon fill="#181818" points="386.5215,470.0469,390.5215,480.0469,394.5215,470.0469,390.5215,474.0469" style="stroke:#181818;stroke-width:1;"/><!--SRC=[bP9DRy8m38Rl_HMvSQAK0jCeYCjst95x5D8ic2LnbBX3_FkbtSPOouQmedmeZrydjYUZZ8tOCmWTX6LQEHK4gPhjJamUJUaRQzXxaSzdUT6215P54jPNh2pAXt6n69VJxNHHpT9OvlFbOw8cMPQOG5bdEc3ZcMzs1kAU7p6ylHey9iGRe8mbwwRg-uP3lMBhDJZVq6RpYJ6X1RWBs0SyA4btiKvOTPj6BRdmm9ENL36go9MhFOAZsxufO-SFSeDI4A2xT4jIxEBVNtEtd5MwJHL9fHp7avDS0_6WF4OW3AVi2QqLhdu1fxQ8vYh4fO7LZrfdVmOPb6OGeK_S9I-JMdfS4kI-YVkXUW-u8jvlbS5x3EespTZGl-NP2wTJGTieglxbq2zCU-uQjurEw3y0]--></g></svg>