<svg xmlns="http://www.w3.org/2000/svg" xmlns:xlink="http://www.w3.org/1999/xlink" contentStyleType="text/css" data-diagram-type="ACTIVITY" height="580px" preserveAspectRatio="none" style="width:1010px;height:580px;background:#FFFFFF;" version="1.1" viewBox="0 0 1010 580" width="1010px" zoomAndPan="magnify"><defs/><g><ellipse cx="499.0762" cy="20" fill="#222222" rx="10" ry="10" style="stroke:#222222;stroke-width:1;"/><rect fill="none" height="487.9844" style="stroke:#000000;stroke-width:1.5;" width="988.3027" x="11" y="40"/><path d="M227.6982,40 L227.6982,49.2969 L217.6982,59.2969 L11,59.2969" fill="none" style="stroke:#000000;stroke-width:1.5;"/><text fill="#000000" font-family="sans-serif" font-size="14" lengthAdjust="spacing" textLength="206.6982" x="14" y="53.9951">publish_experiment_products</text><line style="stroke:#181818;stroke-width:1.5;" x1="50.6221" x2="907.5518" y1="76.2969" y2="76.2969"/><polygon fill="#F1F1F1" points="23,96.2969,88.2441,96.2969,78.2441,113.2813,88.2441,130.2656,23,130.2656" style="stroke:#181818;stroke-width:0.5;"/><text fill="#000000" font-family="sans-serif" font-size="12" lengthAdjust="spacing" textLength="35.2441" x="33" y="117.4355">job_id</text><polygon fill="#F1F1F1" points="98.2441,96.2969,187.1074,96.2969,177.1074,113.2813,187.1074,130.2656,98.2441,130.2656" style="stroke:#181818;stroke-width:0.5;"/><text fill="#000000" font-family="sans-serif" font-size="12" lengthAdjust="spacing" textLength="58.8633" x="108.2441" y="117.4355">project_id</text><polygon fill="#F1F1F1" points="201.6982,96.2969,313.6416,96.2969,303.6416,113.2813,313.6416,130.2656,201.6982,130.2656" style="stroke:#181818;stroke-width:0.5;"/><text fill="#000000" font-family="sans-serif" font-size="12" lengthAdjust="spacing" textLength="81.9434" x="211.6982" y="117.4355">project_name</text><polygon fill="#F1F1F1" points="324.9004,96.2969,525.9824,96.2969,515.9824,113.2813,525.9824,130.2656,324.9004,130.2656" style="stroke:#181818;stroke-width:0.5;"/><text fill="#000000" font-family="sans-serif" font-size="12" lengthAdjust="spacing" textLength="171.082" x="334.9004" y="117.4355">ogc_api_processes_endpoint</text><polygon fill="#F1F1F1" points="553.9824,96.2969,717.0957,96.2969,707.0957,113.2813,717.0957,130.2656,553.9824,130.2656" style="stroke:#181818;stroke-width:0.5;"/><text fill="#000000" font-family="sans-serif" font-size="12" lengthAdjust="spacing" textLength="133.1133" x="563.9824" y="117.4355">cwl_workflow_location</text><polygon fill="#F1F1F1" points="727.0957,96.2969,827.8008,96.2969,817.8008,113.2813,827.8008,130.2656,727.0957,130.2656" style="stroke:#181818;stroke-width:0.5;"/><text fill="#000000" font-family="sans-serif" font-size="12" lengthAdjust="spacing" textLength="70.7051" x="737.0957" y="117.4355">workflow_id</text><polygon fill="#F1F1F1" points="837.8008,96.2969,987.3027,96.2969,977.3027,113.2813,987.3027,130.2656,837.8008,130.2656" style="stroke:#181818;stroke-width:0.5;"/><text fill="#000000" font-family="sans-serif" font-size="12" lengthAdjust="spacing" textLength="119.502" x="847.8008" y="117.4355">authorization_token</text><line style="stroke:#181818;stroke-width:1.5;" x1="50.6221" x2="907.5518" y1="150.2656" y2="150.2656"/><rect fill="#F1F1F1" height="47.9375" rx="12.5" ry="12.5" style="stroke:#181818;stroke-width:0.5;" width="275.3105" x="361.4209" y="170.2656"/><text fill="#000000" font-family="sans-serif" font-size="12" lengthAdjust="spacing" textLength="149.9707" x="371.4209" y="191.4043">step: sync_git_repository</text><text fill="#000000" font-family="sans-serif" font-size="12" lengthAdjust="spacing" textLength="255.3105" x="371.4209" y="205.373">CommandLineTool: sync_git_repository_cli</text><rect fill="#F1F1F1" height="47.9375" rx="12.5" ry="12.5" style="stroke:#181818;stroke-width:0.5;" width="254.9375" x="371.6074" y="238.2031"/><text fill="#000000" font-family="sans-serif" font-size="12" lengthAdjust="spacing" textLength="129.5977" x="381.6074" y="259.3418">step: publish_product</text><text fill="#000000" font-family="sans-serif" font-size="12" lengthAdjust="spacing" textLength="234.9375" x="381.6074" y="273.3105">CommandLineTool: publish_product_cli</text><rect fill="#F1F1F1" height="47.9375" rx="12.5" ry="12.5" style="stroke:#181818;stroke-width:0.5;" width="277.6543" x="360.249" y="306.1406"/><text fill="#000000" font-family="sans-serif" font-size="12" lengthAdjust="spacing" textLength="152.3145" x="370.249" y="327.2793">step: publish_experiment</text><text fill="#000000" font-family="sans-serif" font-size="12" lengthAdjust="spacing" textLength="257.6543" x="370.249" y="341.248">CommandLineTool: publish_experiment_cli</text><rect fill="#F1F1F1" height="47.9375" rx="12.5" ry="12.5" style="stroke:#181818;stroke-width:0.5;" width="268.168" x="364.9922" y="374.0781"/><text fill="#000000" font-family="sans-serif" font-size="12" lengthAdjust="spacing" textLength="142.8281" x="374.9922" y="395.2168">step: commit_and_push</text><text fill="#000000" font-family="sans-serif" font-size="12" lengthAdjust="spacing" textLength="248.168" x="374.9922" y="409.1855">CommandLineTool: commit_and_push_cli</text><line style="stroke:#181818;stroke-width:1.5;" x1="405.0381" x2="594.4727" y1="442.0156" y2="442.0156"/><polygon fill="#F1F1F1" points="323.6416,462.0156,486.4346,462.0156,496.4346,479,486.4346,495.9844,323.6416,495.9844" style="stroke:#181818;stroke-width:0.5;"/><text fill="#000000" font-family="sans-serif" font-size="12" lengthAdjust="spacing" textLength="142.793" x="333.6416" y="483.1543">publish_experiment_log</text><polygon fill="#F1F1F1" points="524.4346,462.0156,664.5107,462.0156,674.5107,479,664.5107,495.9844,524.4346,495.9844" style="stroke:#181818;stroke-width:0.5;"/><text fill="#000000" font-family="sans-serif" font-size="12" lengthAdjust="spacing" textLength="120.0762" x="534.4346" y="483.1543">publish_product_log</text><line style="stroke:#181818;stroke-width:1.5;" x1="405.0381" x2="594.4727" y1="515.9844" y2="515.9844"/><ellipse cx="499.0762" cy="558.9844" fill="none" rx="11" ry="11" style="stroke:#222222;stroke-width:1;"/><ellipse cx="499.0762" cy="558.9844" fill="#222222" rx="6" ry="6" style="stroke:#222222;stroke-width:1;"/><line style="stroke:#181818;stroke-width:1;" x1="50.6221" x2="50.6221" y1="77.7969" y2="96.2969"/><polygon fill="#181818" points="46.6221,86.2969,50.6221,96.2969,54.6221,86.2969,50.6221,90.2969" style="stroke:#181818;stroke-width:1;"/><line style="stroke:#181818;stroke-width:1;" x1="137.6758" x2="137.6758" y1="77.7969" y2="96.2969"/><polygon fill="#181818" points="133.6758,86.2969,137.6758,96.2969,141.6758,86.2969,137.6758,90.2969" style="stroke:#181818;stroke-width:1;"/><line style="stroke:#181818;stroke-width:1;" x1="252.6699" x2="252.6699" y1="77.7969" y2="96.2969"/><polygon fill="#181818" points="248.6699,86.2969,252.6699,96.2969,256.6699,86.2969,252.6699,90.2969" style="stroke:#181818;stroke-width:1;"/><line style="stroke:#181818;stroke-width:1;" x1="420.4414" x2="420.4414" y1="77.7969" y2="96.2969"/><polygon fill="#181818" points="416.4414,86.2969,420.4414,96.2969,424.4414,86.2969,420.4414,90.2969" style="stroke:#181818;stroke-width:1;"/><line style="stroke:#181818;stroke-width:1;" x1="630.5391" x2="630.5391" y1="77.7969" y2="96.2969"/><polygon fill="#181818" points="626.5391,86.2969,630.5391,96.2969,634.5391,86.2969,630.5391,90.2969" style="stroke:#181818;stroke-width:1;"/><line style="stroke:#181818;stroke-width:1;" x1="772.4482" x2="772.4482" y1="77.7969" y2="96.2969"/><polygon fill="#181818" points="768.4482,86.2969,772.4482,96.2969,776.4482,86.2969,772.4482,90.2969" style="stroke:#181818;stroke-width:1;"/><line style="stroke:#181818;stroke-width:1;" x1="907.5518" x2="907.5518" y1="77.7969" y2="96.2969"/><polygon fill="#181818" points="903.5518,86.2969,907.5518,96.2969,911.5518,86.2969,907.5518,90.2969" style="stroke:#181818;stroke-width:1;"/><line style="stroke:#181818;stroke-width:1;" x1="50.6221" x2="50.6221" y1="130.2656" y2="150.2656"/><polygon fill="#181818" points="46.6221,140.2656,50.6221,150.2656,54.6221,140.2656,50.6221,144.2656" style="stroke:#181818;stroke-width:1;"/><line style="stroke:#181818;stroke-width:1;" x1="137.6758" x2="137.6758" y1="130.2656" y2="150.2656"/><polygon fill="#181818" points="133.6758,140.2656,137.6758,150.2656,141.6758,140.2656,137.6758,144.2656" style="stroke:#181818;stroke-width:1;"/><line style="stroke:#181818;stroke-width:1;" x1="252.6699" x2="252.6699" y1="130.2656" y2="150.2656"/><polygon fill="#181818" points="248.6699,140.2656,252.6699,150.2656,256.6699,140.2656,252.6699,144.2656" style="stroke:#181818;stroke-width:1;"/><line style="stroke:#181818;stroke-width:1;" x1="420.4414" x2="420.4414" y1="130.2656" y2="150.2656"/><polygon fill="#181818" points="416.4414,140.2656,420.4414,150.2656,424.4414,140.2656,420.4414,144.2656" style="stroke:#181818;stroke-width:1;"/><line style="stroke:#181818;stroke-width:1;" x1="630.5391" x2="630.5391" y1="130.2656" y2="150.2656"/><polygon fill="#181818" points="626.5391,140.2656,630.5391,150.2656,634.5391,140.2656,630.5391,144.2656" style="stroke:#181818;stroke-width:1;"/><line style="stroke:#181818;stroke-width:1;" x1="772.4482" x2="772.4482" y1="130.2656" y2="150.2656"/><polygon fill="#181818" points="768.4482,140.2656,772.4482,150.2656,776.4482,140.2656,772.4482,144.2656" style="stroke:#181818;stroke-width:1;"/><line style="stroke:#181818;stroke-width:1;" x1="907.5518" x2="907.5518" y1="130.2656" y2="150.2656"/><polygon fill="#181818" points="903.5518,140.2656,907.5518,150.2656,911.5518,140.2656,907.5518,144.2656" style="stroke:#181818;stroke-width:1;"/><line style="stroke:#181818;stroke-width:1;" x1="499.0762" x2="499.0762" y1="151.7656" y2="170.2656"/><polygon fill="#181818" points="495.0762,160.2656,499.0762,170.2656,503.0762,160.2656,499.0762,164.2656" style="stroke:#181818;stroke-width:1;"/><line style="stroke:#181818;stroke-width:1;" x1="499.0762" x2="499.0762" y1="218.2031" y2="238.2031"/><polygon fill="#181818" points="495.0762,228.2031,499.0762,238.2031,503.0762,228.2031,499.0762,232.2031" style="stroke:#181818;stroke-width:1;"/><line style="stroke:#181818;stroke-width:1;" x1="499.0762" x2="499.0762" y1="286.1406" y2="306.1406"/><polygon fill="#181818" points="495.0762,296.1406,499.0762,306.1406,503.0762,296.1406,499.0762,300.1406" style="stroke:#181818;stroke-width:1;"/><line style="stroke:#181818;stroke-width:1;" x1="499.0762" x2="499.0762" y1="354.0781" y2="374.0781"/><polygon fill="#181818" points="495.0762,364.0781,499.0762,374.0781,503.0762,364.0781,499.0762,368.0781" style="stroke:#181818;stroke-width:1;"/><line style="stroke:#181818;stroke-width:1;" x1="405.0381" x2="405.0381" y1="443.5156" y2="462.0156"/><polygon fill="#181818" points="401.0381,452.0156,405.0381,462.0156,409.0381,452.0156,405.0381,456.0156" style="stroke:#181818;stroke-width:1;"/><line style="stroke:#181818;stroke-width:1;" x1="594.4727" x2="594.4727" y1="443.5156" y2="462.0156"/><polygon fill="#181818" points="590.4727,452.0156,594.4727,462.0156,598.4727,452.0156,594.4727,456.0156" style="stroke:#181818;stroke-width:1;"/><line style="stroke:#181818;stroke-width:1;" x1="405.0381" x2="405.0381" y1="495.9844" y2="515.9844"/><polygon fill="#181818" points="401.0381,505.9844,405.0381,515.9844,409.0381,505.9844,405.0381,509.9844" style="stroke:#181818;stroke-width:1;"/><line style="stroke:#181818;stroke-width:1;" x1="594.4727" x2="594.4727" y1="495.9844" y2="515.9844"/><polygon fill="#181818" points="590.4727,505.9844,594.4727,515.9844,598.4727,505.9844,594.4727,509.9844" style="stroke:#181818;stroke-width:1;"/><line style="stroke:#181818;stroke-width:1;" x1="499.0762" x2="499.0762" y1="422.0156" y2="442.0156"/><polygon fill="#181818" points="495.0762,432.0156,499.0762,442.0156,503.0762,432.0156,499.0762,436.0156" style="stroke:#181818;stroke-width:1;"/><line style="stroke:#181818;stroke-width:1;" x1="499.0762" x2="499.0762" y1="30" y2="76.2969"/><polygon fill="#181818" points="495.0762,66.2969,499.0762,76.2969,503.0762,66.2969,499.0762,70.2969" style="stroke:#181818;stroke-width:1;"/><line style="stroke:#181818;stroke-width:1;" x1="499.0762" x2="499.0762" y1="517.4844" y2="547.9844"/><polygon fill="#181818" points="495.0762,537.9844,499.0762,547.9844,503.0762,537.9844,499.0762,541.9844" style="stroke:#181818;stroke-width:1;"/><!--SRC=[dPEnSi8m38RtF8Kt9Y04w9N0iRHZHtQVSTmWS2oVBPVIfw-JKg01Iga69xdxzKcM_lGx2UkmPn2b4nKhbL5Ea2hOSiVaLcSsL9gzfRtHi9VMGe9AUHALpLcMPW_TTDpDqiLWb0yd-M3IUnoFewgV957ZA6cYT1Wiis6fmQ-uUhVAHOWXRXqMGPAFQgk14XQZEV8rBZaKKpQRWR61vlCl1HEb07EYYuIradINreXAtLPZARcmKFSebVVASsKAYs3eTcwS6z-Ysxngt7ADKX2WkPrsIFdBRKIW5JhuQDYSSAD-L8ZDifEXxi_cSM0qBxad5NVfTqRo4eWxPT43eTibJrXLmXGlODG2KLyKSQbXUgGrSRN8jmNsUpylq1By2txqrtN-YGVlAI4ZBzu-8haDVdNERmakmDj6lz2HnhBU90RwrSsjKRMpsWQelviViMw2q7u2]--></g></svg>