<svg xmlns="http://www.w3.org/2000/svg" xmlns:xlink="http://www.w3.org/1999/xlink" contentStyleType="text/css" data-diagram-type="JSON" height="166px" preserveAspectRatio="none" style="width:679px;height:166px;background:#FFFFFF;" version="1.1" viewBox="0 0 679 166" width="679px" zoomAndPan="magnify"><defs/><g><rect fill="#F1F1F1" height="40.5938" rx="5" ry="5" style="stroke:#F1F1F1;stroke-width:1.5;" width="220.1836" x="10" y="55.6484"/><text fill="#000000" font-family="sans-serif" font-size="14" font-weight="bold" lengthAdjust="spacing" textLength="186.833" x="15" y="70.6436">publish_experiment_log</text><text fill="#000000" font-family="sans-serif" font-size="14" lengthAdjust="spacing" textLength="13.3506" x="211.833" y="70.6436">&#160;&#160;&#160;</text><line style="stroke:#000000;stroke-width:1;" x1="206.833" x2="206.833" y1="55.6484" y2="75.9453"/><line style="stroke:#000000;stroke-width:1;" x1="10" x2="230.1836" y1="75.9453" y2="75.9453"/><text fill="#000000" font-family="sans-serif" font-size="14" font-weight="bold" lengthAdjust="spacing" textLength="157.8691" x="15" y="90.9404">publish_product_log</text><text fill="#000000" font-family="sans-serif" font-size="14" lengthAdjust="spacing" textLength="13.3506" x="211.833" y="90.9404">&#160;&#160;&#160;</text><line style="stroke:#000000;stroke-width:1;" x1="206.833" x2="206.833" y1="75.9453" y2="96.2422"/><rect fill="none" height="40.5938" rx="5" ry="5" style="stroke:#000000;stroke-width:1.5;" width="220.1836" x="10" y="55.6484"/><rect fill="#F1F1F1" height="40.5938" rx="5" ry="5" style="stroke:#F1F1F1;stroke-width:1.5;" width="109.1816" x="267" y="26.6484"/><text fill="#000000" font-family="sans-serif" font-size="14" font-weight="bold" lengthAdjust="spacing" textLength="60.1289" x="272" y="41.6436">schema</text><text fill="#000000" font-family="sans-serif" font-size="14" lengthAdjust="spacing" textLength="13.3506" x="357.8311" y="41.6436">&#160;&#160;&#160;</text><line style="stroke:#000000;stroke-width:1;" x1="352.8311" x2="352.8311" y1="26.6484" y2="46.9453"/><line style="stroke:#000000;stroke-width:1;" x1="267" x2="376.1816" y1="46.9453" y2="46.9453"/><text fill="#000000" font-family="sans-serif" font-size="14" font-weight="bold" lengthAdjust="spacing" textLength="75.8311" x="272" y="61.9404">metadata</text><text fill="#000000" font-family="sans-serif" font-size="14" lengthAdjust="spacing" textLength="13.3506" x="357.8311" y="61.9404">&#160;&#160;&#160;</text><line style="stroke:#000000;stroke-width:1;" x1="352.8311" x2="352.8311" y1="46.9453" y2="67.2422"/><rect fill="none" height="40.5938" rx="5" ry="5" style="stroke:#000000;stroke-width:1.5;" width="109.1816" x="267" y="26.6484"/><rect fill="#F1F1F1" height="20.2969" rx="5" ry="5" style="stroke:#F1F1F1;stroke-width:1.5;" width="95.5234" x="413" y="10"/><text fill="#000000" font-family="sans-serif" font-size="14" font-weight="bold" lengthAdjust="spacing" textLength="35.335" x="418" y="24.9951">type</text><text fill="#000000" font-family="sans-serif" font-size="14" lengthAdjust="spacing" textLength="40.1885" x="463.335" y="24.9951">string</text><line style="stroke:#000000;stroke-width:1;" x1="458.335" x2="458.335" y1="10" y2="30.2969"/><rect fill="none" height="20.2969" rx="5" ry="5" style="stroke:#000000;stroke-width:1.5;" width="95.5234" x="413" y="10"/><rect fill="#F1F1F1" height="20.2969" rx="5" ry="5" style="stroke:#F1F1F1;stroke-width:1.5;" width="23.3506" x="449.5" y="48"/><text fill="#000000" font-family="sans-serif" font-size="14" lengthAdjust="spacing" textLength="13.3506" x="454.5" y="62.9951">&#160;&#160;&#160;</text><rect fill="none" height="20.2969" rx="5" ry="5" style="stroke:#000000;stroke-width:1.5;" width="23.3506" x="449.5" y="48"/><rect fill="#F1F1F1" height="40.5938" rx="5" ry="5" style="stroke:#F1F1F1;stroke-width:1.5;" width="121.8623" x="546" y="37.6484"/><text fill="#000000" font-family="sans-serif" font-size="14" font-weight="bold" lengthAdjust="spacing" textLength="32.4775" x="551" y="52.6436">title</text><text fill="#000000" font-family="sans-serif" font-size="14" lengthAdjust="spacing" textLength="59.0283" x="603.834" y="52.6436">cwl:type</text><line style="stroke:#000000;stroke-width:1;" x1="598.834" x2="598.834" y1="37.6484" y2="57.9453"/><line style="stroke:#000000;stroke-width:1;" x1="546" x2="667.8623" y1="57.9453" y2="57.9453"/><text fill="#000000" font-family="sans-serif" font-size="14" font-weight="bold" lengthAdjust="spacing" textLength="42.834" x="551" y="72.9404">value</text><text fill="#000000" font-family="sans-serif" font-size="14" lengthAdjust="spacing" textLength="40.1885" x="603.834" y="72.9404">string</text><line style="stroke:#000000;stroke-width:1;" x1="598.834" x2="598.834" y1="57.9453" y2="78.2422"/><rect fill="none" height="40.5938" rx="5" ry="5" style="stroke:#000000;stroke-width:1.5;" width="121.8623" x="546" y="37.6484"/><rect fill="#F1F1F1" height="40.5938" rx="5" ry="5" style="stroke:#F1F1F1;stroke-width:1.5;" width="109.1816" x="267" y="85.6484"/><text fill="#000000" font-family="sans-serif" font-size="14" font-weight="bold" lengthAdjust="spacing" textLength="60.1289" x="272" y="100.6436">schema</text><text fill="#000000" font-family="sans-serif" font-size="14" lengthAdjust="spacing" textLength="13.3506" x="357.8311" y="100.6436">&#160;&#160;&#160;</text><line style="stroke:#000000;stroke-width:1;" x1="352.8311" x2="352.8311" y1="85.6484" y2="105.9453"/><line style="stroke:#000000;stroke-width:1;" x1="267" x2="376.1816" y1="105.9453" y2="105.9453"/><text fill="#000000" font-family="sans-serif" font-size="14" font-weight="bold" lengthAdjust="spacing" textLength="75.8311" x="272" y="120.9404">metadata</text><text fill="#000000" font-family="sans-serif" font-size="14" lengthAdjust="spacing" textLength="13.3506" x="357.8311" y="120.9404">&#160;&#160;&#160;</text><line style="stroke:#000000;stroke-width:1;" x1="352.8311" x2="352.8311" y1="105.9453" y2="126.2422"/><rect fill="none" height="40.5938" rx="5" ry="5" style="stroke:#000000;stroke-width:1.5;" width="109.1816" x="267" y="85.6484"/><rect fill="#F1F1F1" height="20.2969" rx="5" ry="5" style="stroke:#F1F1F1;stroke-width:1.5;" width="95.5234" x="413" y="86"/><text fill="#000000" font-family="sans-serif" font-size="14" font-weight="bold" lengthAdjust="spacing" textLength="35.335" x="418" y="100.9951">type</text><text fill="#000000" font-family="sans-serif" font-size="14" lengthAdjust="spacing" textLength="40.1885" x="463.335" y="100.9951">string</text><line style="stroke:#000000;stroke-width:1;" x1="458.335" x2="458.335" y1="86" y2="106.2969"/><rect fill="none" height="20.2969" rx="5" ry="5" style="stroke:#000000;stroke-width:1.5;" width="95.5234" x="413" y="86"/><rect fill="#F1F1F1" height="20.2969" rx="5" ry="5" style="stroke:#F1F1F1;stroke-width:1.5;" width="23.3506" x="449.5" y="124"/><text fill="#000000" font-family="sans-serif" font-size="14" lengthAdjust="spacing" textLength="13.3506" x="454.5" y="138.9951">&#160;&#160;&#160;</text><rect fill="none" height="20.2969" rx="5" ry="5" style="stroke:#000000;stroke-width:1.5;" width="23.3506" x="449.5" y="124"/><rect fill="#F1F1F1" height="40.5938" rx="5" ry="5" style="stroke:#F1F1F1;stroke-width:1.5;" width="121.8623" x="546" y="113.6484"/><text fill="#000000" font-family="sans-serif" font-size="14" font-weight="bold" lengthAdjust="spacing" textLength="32.4775" x="551" y="128.6436">title</text><text fill="#000000" font-family="sans-serif" font-size="14" lengthAdjust="spacing" textLength="59.0283" x="603.834" y="128.6436">cwl:type</text><line style="stroke:#000000;stroke-width:1;" x1="598.834" x2="598.834" y1="113.6484" y2="133.9453"/><line style="stroke:#000000;stroke-width:1;" x1="546" x2="667.8623" y1="133.9453" y2="133.9453"/><text fill="#000000" font-family="sans-serif" font-size="14" font-weight="bold" lengthAdjust="spacing" textLength="42.834" x="551" y="148.9404">value</text><text fill="#000000" font-family="sans-serif" font-size="14" lengthAdjust="spacing" textLength="40.1885" x="603.834" y="148.9404">string</text><line style="stroke:#000000;stroke-width:1;" x1="598.834" x2="598.834" y1="133.9453" y2="154.2422"/><rect fill="none" height="40.5938" rx="5" ry="5" style="stroke:#000000;stroke-width:1.5;" width="121.8623" x="546" y="113.6484"/><path d="M364,37.1484 L377,37.1484 C390.7271,37.1484 405.4731,34.9151 418.6959,32.0673" fill="none" style="stroke:#000000;stroke-width:1;stroke-dasharray:3,3;"/><path d="M419.3901,35.1034 L420.973,31.5467 L418.0018,29.0312 L426.2861,30.3318 L419.3901,35.1034" fill="#000000"/><ellipse cx="364" cy="37.1484" fill="#000000" rx="3" ry="3" style="stroke:#000000;stroke-width:1;"/><path d="M460.366,58.1484 L473.366,58.1484 C487.8932,58.1484 513.6606,58.1484 538.6813,58.1484" fill="none" style="stroke:#000000;stroke-width:1;stroke-dasharray:3,3;"/><path d="M538.6813,61.2396 L540.9997,58.1484 L538.6813,55.0573 L546.4091,58.1484 L538.6813,61.2396" fill="#000000"/><ellipse cx="460.366" cy="58.1484" fill="#000000" rx="3" ry="3" style="stroke:#000000;stroke-width:1;"/><path d="M364,57.1484 L377,57.1484 C399.5505,57.1484 425.5243,57.5176 442.436,57.8074" fill="none" style="stroke:#000000;stroke-width:1;stroke-dasharray:3,3;"/><path d="M442.3825,60.8151 L444.6919,57.8475 L442.4896,54.7996 L449.9555,57.9412 L442.3825,60.8151" fill="#000000"/><ellipse cx="364" cy="57.1484" fill="#000000" rx="3" ry="3" style="stroke:#000000;stroke-width:1;"/><path d="M217.5,66.1484 L230.5,66.1484 C240.095,66.1484 250.1424,65.1129 259.9081,63.5253" fill="none" style="stroke:#000000;stroke-width:1;stroke-dasharray:3,3;"/><path d="M260.4336,66.4856 L262.1284,63.1312 L259.3827,60.5649 L267.3089,62.2116 L260.4336,66.4856" fill="#000000"/><ellipse cx="217.5" cy="66.1484" fill="#000000" rx="3" ry="3" style="stroke:#000000;stroke-width:1;"/><path d="M364,96.1484 L377,96.1484 C386.2653,96.1484 396.1089,96.1484 405.6646,96.1484" fill="none" style="stroke:#000000;stroke-width:1;stroke-dasharray:3,3;"/><path d="M405.6646,99.1825 L407.9401,96.1484 L405.6646,93.1144 L413.2497,96.1484 L405.6646,99.1825" fill="#000000"/><ellipse cx="364" cy="96.1484" fill="#000000" rx="3" ry="3" style="stroke:#000000;stroke-width:1;"/><path d="M460.366,134.1484 L473.366,134.1484 C487.8932,134.1484 513.6606,134.1484 538.6813,134.1484" fill="none" style="stroke:#000000;stroke-width:1;stroke-dasharray:3,3;"/><path d="M538.6813,137.2396 L540.9997,134.1484 L538.6813,131.0573 L546.4091,134.1484 L538.6813,137.2396" fill="#000000"/><ellipse cx="460.366" cy="134.1484" fill="#000000" rx="3" ry="3" style="stroke:#000000;stroke-width:1;"/><path d="M364,116.1484 L377,116.1484 C399.9394,116.1484 425.6438,122.7205 442.3962,127.9223" fill="none" style="stroke:#000000;stroke-width:1;stroke-dasharray:3,3;"/><path d="M441.4327,130.9037 L444.6322,128.645 L443.3597,124.941 L449.8496,130.3311 L441.4327,130.9037" fill="#000000"/><ellipse cx="364" cy="116.1484" fill="#000000" rx="3" ry="3" style="stroke:#000000;stroke-width:1;"/><path d="M217.5,86.1484 L230.5,86.1484 C240.1168,86.1484 250.1759,87.2385 259.9466,88.9097" fill="none" style="stroke:#000000;stroke-width:1;stroke-dasharray:3,3;"/><path d="M259.3935,91.871 L262.1677,89.3245 L260.4998,85.9483 L267.3501,90.2925 L259.3935,91.871" fill="#000000"/><ellipse cx="217.5" cy="86.1484" fill="#000000" rx="3" ry="3" style="stroke:#000000;stroke-width:1;"/><!--SRC=[pL5BJy904BxlhvZq10cGGj3edeYY9aYLIE5Y35dQiQnPPfjzL8dXlxkjF0x-0K-RcUynt-oCh1F6VLXDx9i1HALVAsatA_mgqSWjabifNKGSQZJWDjlWLfpgq76x4aCTMMSa5L7JtdT-sLjq8XUkvhyU-4TThPHEDTBiK_76fdC6Aw7y7z_WtBnlx33ZbBSqElVP_mtBzco4b3SVpMPAa5iaKwZGMAa9-hr1FBZezUDMwX6UT0Nn4Fen7yHyU0t9F8KQRxFMmsmALdkJ8UIo7hRsBXYqsKHK0buykN0p3iybqcJyU6p07LNIQAhFoIRBv4ou77Plf8CvcX05bWaRuxlmoWL5flEm2eT5Uj-zObD1XHT5y4PYjphucXq7yahz0000]--></g></svg>