<svg xmlns="http://www.w3.org/2000/svg" xmlns:xlink="http://www.w3.org/1999/xlink" contentStyleType="text/css" data-diagram-type="STATE" height="929px" preserveAspectRatio="none" style="width:2462px;height:929px;background:#FFFFFF;" version="1.1" viewBox="0 0 2462 929" width="2462px" zoomAndPan="magnify"><defs/><g><!--cluster publish_experiment_products--><g class="cluster" data-entity="publish_experiment_products" data-source-line="12" data-uid="ent0002" id="cluster_publish_experiment_products"><path d="M74.5,105 L2348.5,105 A12.5,12.5 0 0 1 2361,117.5 L2361,126.2969 L62,126.2969 L62,117.5 A12.5,12.5 0 0 1 74.5,105" fill="#F1F1F1"/><rect fill="none" height="818.44" rx="12.5" ry="12.5" style="stroke:#181818;stroke-width:0.5;" width="2299" x="62" y="105"/><line style="stroke:#181818;stroke-width:0.5;" x1="62" x2="2361" y1="126.2969" y2="126.2969"/><text fill="#000000" font-family="sans-serif" font-size="14" lengthAdjust="spacing" textLength="206.6982" x="1108.1509" y="122.9951">publish_experiment_products</text></g><!--cluster sync_git_repository--><g class="cluster" data-entity="sync_git_repository" data-source-line="35" data-uid="ent0010" id="cluster_sync_git_repository"><path d="M306.5,282 L462.5,282 A12.5,12.5 0 0 1 475,294.5 L475,303.2969 L294,303.2969 L294,294.5 A12.5,12.5 0 0 1 306.5,282" fill="#F1F1F1"/><rect fill="none" height="102.86" rx="12.5" ry="12.5" style="stroke:#181818;stroke-width:0.5;" width="181" x="294" y="282"/><line style="stroke:#181818;stroke-width:0.5;" x1="294" x2="475" y1="303.2969" y2="303.2969"/><text fill="#000000" font-family="sans-serif" font-size="14" lengthAdjust="spacing" textLength="135.5156" x="316.7422" y="299.9951">sync_git_repository</text></g><!--cluster publish_product--><g class="cluster" data-entity="publish_product" data-source-line="65" data-uid="ent0012" id="cluster_publish_product"><path d="M154.5,486.86 L1069.5,486.86 A12.5,12.5 0 0 1 1082,499.36 L1082,508.1569 L142,508.1569 L142,499.36 A12.5,12.5 0 0 1 154.5,486.86" fill="#F1F1F1"/><rect fill="none" height="89.86" rx="12.5" ry="12.5" style="stroke:#181818;stroke-width:0.5;" width="940" x="142" y="486.86"/><line style="stroke:#181818;stroke-width:0.5;" x1="142" x2="1082" y1="508.1569" y2="508.1569"/><text fill="#000000" font-family="sans-serif" font-size="14" lengthAdjust="spacing" textLength="111.7471" x="556.1265" y="504.8551">publish_product</text></g><!--cluster publish_experiment--><g class="cluster" data-entity="publish_experiment" data-source-line="159" data-uid="ent0022" id="cluster_publish_experiment"><path d="M1156.5,486.86 L2081,486.86 A12.5,12.5 0 0 1 2093.5,499.36 L2093.5,508.1569 L1144,508.1569 L1144,499.36 A12.5,12.5 0 0 1 1156.5,486.86" fill="#F1F1F1"/><rect fill="none" height="89.86" rx="12.5" ry="12.5" style="stroke:#181818;stroke-width:0.5;" width="949.5" x="1144" y="486.86"/><line style="stroke:#181818;stroke-width:0.5;" x1="1144" x2="2093.5" y1="508.1569" y2="508.1569"/><text fill="#000000" font-family="sans-serif" font-size="14" lengthAdjust="spacing" textLength="138.25" x="1549.625" y="504.8551">publish_experiment</text></g><!--cluster commit_and_push--><g class="cluster" data-entity="commit_and_push" data-source-line="254" data-uid="ent0033" id="cluster_commit_and_push"><path d="M233.5,779.72 L346,779.72 A12.5,12.5 0 0 1 358.5,792.22 L358.5,801.0169 L221,801.0169 L221,792.22 A12.5,12.5 0 0 1 233.5,779.72" fill="#F1F1F1"/><rect fill="none" height="101.72" rx="12.5" ry="12.5" style="stroke:#181818;stroke-width:0.5;" width="137.5" x="221" y="779.72"/><line style="stroke:#181818;stroke-width:0.5;" x1="221" x2="358.5" y1="801.0169" y2="801.0169"/><text fill="#000000" font-family="sans-serif" font-size="14" lengthAdjust="spacing" textLength="127.1826" x="226.1587" y="797.7151">commit_and_push</text></g><text fill="#000000" font-family="sans-serif" font-size="14" lengthAdjust="spacing" textLength="41.1182" x="59.4409" y="83.6982">job_id</text><ellipse cx="80" cy="105" fill="#F1F1F1" rx="6" ry="6" style="stroke:#181818;stroke-width:1.5;"/><text fill="#000000" font-family="sans-serif" font-size="14" lengthAdjust="spacing" textLength="68.6738" x="175.6631" y="83.6982">project_id</text><ellipse cx="210" cy="105" fill="#F1F1F1" rx="6" ry="6" style="stroke:#181818;stroke-width:1.5;"/><text fill="#000000" font-family="sans-serif" font-size="14" lengthAdjust="spacing" textLength="95.6006" x="495.6997" y="83.6982">project_name</text><ellipse cx="543.5" cy="105" fill="#F1F1F1" rx="6" ry="6" style="stroke:#181818;stroke-width:1.5;"/><text fill="#000000" font-family="sans-serif" font-size="14" lengthAdjust="spacing" textLength="199.5957" x="614.7021" y="83.6982">ogc_api_processes_endpoint</text><ellipse cx="714.5" cy="105" fill="#F1F1F1" rx="6" ry="6" style="stroke:#181818;stroke-width:1.5;"/><text fill="#000000" font-family="sans-serif" font-size="14" lengthAdjust="spacing" textLength="155.2988" x="819.3506" y="83.6982">cwl_workflow_location</text><ellipse cx="897" cy="105" fill="#F1F1F1" rx="6" ry="6" style="stroke:#181818;stroke-width:1.5;"/><text fill="#000000" font-family="sans-serif" font-size="14" lengthAdjust="spacing" textLength="82.4893" x="2034.2554" y="83.6982">workflow_id</text><ellipse cx="2075.5" cy="105" fill="#F1F1F1" rx="6" ry="6" style="stroke:#181818;stroke-width:1.5;"/><text fill="#000000" font-family="sans-serif" font-size="14" lengthAdjust="spacing" textLength="139.4189" x="983.2905" y="83.6982">authorization_token</text><ellipse cx="1053" cy="105" fill="#F1F1F1" rx="6" ry="6" style="stroke:#181818;stroke-width:1.5;"/><g class="entity" data-entity="commit_and_push_commit_message_choice" data-uid="ent0032" id="entity_commit_and_push_commit_message_choice"><polygon fill="#F1F1F1" points="341,649.72,353,661.72,341,673.72,329,661.72,341,649.72" style="stroke:#181818;stroke-width:0.5;"/></g><text fill="#000000" font-family="sans-serif" font-size="14" lengthAdjust="spacing" textLength="166.5918" x="2277.7041" y="680.7151">publish_experiment_log</text><ellipse cx="2361" cy="661.72" fill="#F1F1F1" rx="6" ry="6" style="stroke:#181818;stroke-width:1.5;"/><line style="stroke:#181818;stroke-width:1.5;" x1="2365.3891" x2="2357.6109" y1="666.1091" y2="658.3309"/><line style="stroke:#181818;stroke-width:1.5;" x1="2365.3891" x2="2357.6109" y1="658.3309" y2="666.1091"/><text fill="#000000" font-family="sans-serif" font-size="14" lengthAdjust="spacing" textLength="140.0889" x="2123.9556" y="680.7151">publish_product_log</text><ellipse cx="2194" cy="661.72" fill="#F1F1F1" rx="6" ry="6" style="stroke:#181818;stroke-width:1.5;"/><line style="stroke:#181818;stroke-width:1.5;" x1="2198.3891" x2="2190.6109" y1="666.1091" y2="658.3309"/><line style="stroke:#181818;stroke-width:1.5;" x1="2198.3891" x2="2190.6109" y1="658.3309" y2="666.1091"/><text fill="#000000" font-family="sans-serif" font-size="14" lengthAdjust="spacing" textLength="133.8545" x="390.0728" y="403.8551">checkout_directory</text><ellipse cx="457" cy="384.86" fill="#F1F1F1" rx="6" ry="6" style="stroke:#181818;stroke-width:1.5;"/><line style="stroke:#181818;stroke-width:1.5;" x1="461.3891" x2="453.6109" y1="389.2491" y2="381.4709"/><line style="stroke:#181818;stroke-width:1.5;" x1="461.3891" x2="453.6109" y1="381.4709" y2="389.2491"/><text fill="#000000" font-family="sans-serif" font-size="14" lengthAdjust="spacing" textLength="41.1182" x="233.4409" y="465.5582">job_id</text><ellipse cx="254" cy="486.86" fill="#F1F1F1" rx="6" ry="6" style="stroke:#181818;stroke-width:1.5;"/><text fill="#000000" font-family="sans-serif" font-size="14" lengthAdjust="spacing" textLength="68.6738" x="310.6631" y="465.5582">project_id</text><ellipse cx="345" cy="486.86" fill="#F1F1F1" rx="6" ry="6" style="stroke:#181818;stroke-width:1.5;"/><text fill="#000000" font-family="sans-serif" font-size="14" lengthAdjust="spacing" textLength="95.6006" x="495.6997" y="465.5582">project_name</text><ellipse cx="543.5" cy="486.86" fill="#F1F1F1" rx="6" ry="6" style="stroke:#181818;stroke-width:1.5;"/><text fill="#000000" font-family="sans-serif" font-size="14" lengthAdjust="spacing" textLength="199.5957" x="614.7021" y="465.5582">ogc_api_processes_endpoint</text><ellipse cx="714.5" cy="486.86" fill="#F1F1F1" rx="6" ry="6" style="stroke:#181818;stroke-width:1.5;"/><text fill="#000000" font-family="sans-serif" font-size="14" lengthAdjust="spacing" textLength="86.1055" x="396.9473" y="465.5582">osc_location</text><ellipse cx="440" cy="486.86" fill="#F1F1F1" rx="6" ry="6" style="stroke:#181818;stroke-width:1.5;"/><text fill="#000000" font-family="sans-serif" font-size="14" lengthAdjust="spacing" textLength="155.2988" x="819.3506" y="465.5582">cwl_workflow_location</text><ellipse cx="897" cy="486.86" fill="#F1F1F1" rx="6" ry="6" style="stroke:#181818;stroke-width:1.5;"/><text fill="#000000" font-family="sans-serif" font-size="14" lengthAdjust="spacing" textLength="100.4336" x="109.7832" y="465.5582">experiment_id</text><ellipse cx="160" cy="486.86" fill="#F1F1F1" rx="6" ry="6" style="stroke:#181818;stroke-width:1.5;"/><text fill="#000000" font-family="sans-serif" font-size="14" lengthAdjust="spacing" textLength="139.4189" x="983.2905" y="465.5582">authorization_token</text><ellipse cx="1053" cy="486.86" fill="#F1F1F1" rx="6" ry="6" style="stroke:#181818;stroke-width:1.5;"/><text fill="#000000" font-family="sans-serif" font-size="14" lengthAdjust="spacing" textLength="21.3418" x="1053.3291" y="595.7151">log</text><ellipse cx="1064" cy="576.72" fill="#F1F1F1" rx="6" ry="6" style="stroke:#181818;stroke-width:1.5;"/><line style="stroke:#181818;stroke-width:1.5;" x1="1068.3891" x2="1060.6109" y1="581.1091" y2="573.3309"/><line style="stroke:#181818;stroke-width:1.5;" x1="1068.3891" x2="1060.6109" y1="573.3309" y2="581.1091"/><text fill="#000000" font-family="sans-serif" font-size="14" lengthAdjust="spacing" textLength="41.1182" x="1141.4409" y="465.5582">job_id</text><ellipse cx="1162" cy="486.86" fill="#F1F1F1" rx="6" ry="6" style="stroke:#181818;stroke-width:1.5;"/><text fill="#000000" font-family="sans-serif" font-size="14" lengthAdjust="spacing" textLength="68.6738" x="1218.6631" y="465.5582">project_id</text><ellipse cx="1253" cy="486.86" fill="#F1F1F1" rx="6" ry="6" style="stroke:#181818;stroke-width:1.5;"/><text fill="#000000" font-family="sans-serif" font-size="14" lengthAdjust="spacing" textLength="95.6006" x="1403.6997" y="465.5582">project_name</text><ellipse cx="1451.5" cy="486.86" fill="#F1F1F1" rx="6" ry="6" style="stroke:#181818;stroke-width:1.5;"/><text fill="#000000" font-family="sans-serif" font-size="14" lengthAdjust="spacing" textLength="199.5957" x="1522.7021" y="465.5582">ogc_api_processes_endpoint</text><ellipse cx="1622.5" cy="486.86" fill="#F1F1F1" rx="6" ry="6" style="stroke:#181818;stroke-width:1.5;"/><text fill="#000000" font-family="sans-serif" font-size="14" lengthAdjust="spacing" textLength="86.1055" x="1304.9473" y="465.5582">osc_location</text><ellipse cx="1348" cy="486.86" fill="#F1F1F1" rx="6" ry="6" style="stroke:#181818;stroke-width:1.5;"/><text fill="#000000" font-family="sans-serif" font-size="14" lengthAdjust="spacing" textLength="155.2988" x="1727.3506" y="465.5582">cwl_workflow_location</text><ellipse cx="1805" cy="486.86" fill="#F1F1F1" rx="6" ry="6" style="stroke:#181818;stroke-width:1.5;"/><text fill="#000000" font-family="sans-serif" font-size="14" lengthAdjust="spacing" textLength="82.4893" x="2034.2554" y="465.5582">workflow_id</text><ellipse cx="2075.5" cy="486.86" fill="#F1F1F1" rx="6" ry="6" style="stroke:#181818;stroke-width:1.5;"/><text fill="#000000" font-family="sans-serif" font-size="14" lengthAdjust="spacing" textLength="139.4189" x="1891.2905" y="465.5582">authorization_token</text><ellipse cx="1961" cy="486.86" fill="#F1F1F1" rx="6" ry="6" style="stroke:#181818;stroke-width:1.5;"/><text fill="#000000" font-family="sans-serif" font-size="14" lengthAdjust="spacing" textLength="21.3418" x="1607.3291" y="595.7151">log</text><ellipse cx="1618" cy="576.72" fill="#F1F1F1" rx="6" ry="6" style="stroke:#181818;stroke-width:1.5;"/><line style="stroke:#181818;stroke-width:1.5;" x1="1622.3891" x2="1614.6109" y1="581.1091" y2="573.3309"/><line style="stroke:#181818;stroke-width:1.5;" x1="1622.3891" x2="1614.6109" y1="573.3309" y2="581.1091"/><text fill="#000000" font-family="sans-serif" font-size="14" lengthAdjust="spacing" textLength="122.835" x="279.0825" y="758.4182">commit_message</text><ellipse cx="340.5" cy="779.72" fill="#F1F1F1" rx="6" ry="6" style="stroke:#181818;stroke-width:1.5;"/><text fill="#000000" font-family="sans-serif" font-size="14" lengthAdjust="spacing" textLength="117.2432" x="281.3784" y="900.4351">changes_pushed</text><ellipse cx="340" cy="881.44" fill="#F1F1F1" rx="6" ry="6" style="stroke:#181818;stroke-width:1.5;"/><line style="stroke:#181818;stroke-width:1.5;" x1="344.3891" x2="336.6109" y1="885.8291" y2="878.0509"/><line style="stroke:#181818;stroke-width:1.5;" x1="344.3891" x2="336.6109" y1="878.0509" y2="885.8291"/><ellipse cx="715" cy="16" fill="#222222" rx="10" ry="10" style="stroke:#222222;stroke-width:1;"/><ellipse cx="2445" cy="779.72" fill="none" rx="11" ry="11" style="stroke:#222222;stroke-width:1;"/><ellipse cx="2445" cy="779.72" fill="#222222" rx="6" ry="6" style="stroke:#222222;stroke-width:1;"/><!--link publish_experiment_products_job_id to publish_product_job_id--><g class="link" data-entity-1="publish_experiment_products_job_id" data-entity-2="publish_product_job_id" data-source-line="71" data-uid="lnk2" id="link_publish_experiment_products_job_id_publish_product_job_id"><path d="M80,111.3 C80,123.9 80,156.65 80,184 C80,184 80,184 80,385.86 C80,422.85 155.95,410.35 209,441.86 C226.85,452.46 239.2988,466.8297 246.4388,475.9797" fill="none" id="publish_experiment_products_job_id-to-publish_product_job_id" style="stroke:#181818;stroke-width:1;"/><polygon fill="#181818" points="250.13,480.71,247.7468,471.1538,247.054,476.7681,241.4398,476.0754,250.13,480.71" style="stroke:#181818;stroke-width:1;"/></g><!--link publish_experiment_products_project_id to publish_product_project_id--><g class="link" data-entity-1="publish_experiment_products_project_id" data-entity-2="publish_product_project_id" data-source-line="79" data-uid="lnk3" id="link_publish_experiment_products_project_id_publish_product_project_id"><path d="M207.82,111.19 C202.83,123.56 191,155.85 191,184 C191,184 191,184 191,385.86 C191,410.56 198.22,420.51 219,433.86 C249.06,453.18 266.54,426.92 299,441.86 C318.27,450.73 331.0015,466.1827 337.9215,475.7827" fill="none" id="publish_experiment_products_project_id-to-publish_product_project_id" style="stroke:#181818;stroke-width:1;"/><polygon fill="#181818" points="341.43,480.65,339.4121,471.0101,338.5063,476.5939,332.9224,475.6881,341.43,480.65" style="stroke:#181818;stroke-width:1;"/></g><!--link publish_experiment_products_project_name to publish_product_project_name--><g class="link" data-entity-1="publish_experiment_products_project_name" data-entity-2="publish_product_project_name" data-source-line="87" data-uid="lnk4" id="link_publish_experiment_products_project_name_publish_product_project_name"><path d="M544,111.3 C544,123.9 544,156.65 544,184 C544,184 544,184 544,385.86 C544,421.97 544,459.42 544,474.44" fill="none" id="publish_experiment_products_project_name-to-publish_product_project_name" style="stroke:#181818;stroke-width:1;"/><polygon fill="#181818" points="544,480.44,548,471.44,544,475.44,540,471.44,544,480.44" style="stroke:#181818;stroke-width:1;"/></g><!--link publish_experiment_products_ogc_api_processes_endpoint to publish_product_ogc_api_processes_endpoint--><g class="link" data-entity-1="publish_experiment_products_ogc_api_processes_endpoint" data-entity-2="publish_product_ogc_api_processes_endpoint" data-source-line="95" data-uid="lnk5" id="link_publish_experiment_products_ogc_api_processes_endpoint_publish_product_ogc_api_processes_endpoint"><path d="M715,111.3 C715,123.9 715,156.65 715,184 C715,184 715,184 715,385.86 C715,421.97 715,459.42 715,474.44" fill="none" id="publish_experiment_products_ogc_api_processes_endpoint-to-publish_product_ogc_api_processes_endpoint" style="stroke:#181818;stroke-width:1;"/><polygon fill="#181818" points="715,480.44,719,471.44,715,475.44,711,471.44,715,480.44" style="stroke:#181818;stroke-width:1;"/></g><!--link sync_git_repository_checkout_directory to publish_product_osc_location--><g class="link" data-entity-1="sync_git_repository_checkout_directory" data-entity-2="publish_product_osc_location" data-source-line="103" data-uid="lnk6" id="link_sync_git_repository_checkout_directory_publish_product_osc_location"><path d="M456.13,390.96 C453.22,408.07 444.8236,457.4645 441.8936,474.7345" fill="none" id="sync_git_repository_checkout_directory-to-publish_product_osc_location" style="stroke:#181818;stroke-width:1;"/><polygon fill="#181818" points="440.89,480.65,446.3391,472.4459,441.7263,475.7204,438.4518,471.1077,440.89,480.65" style="stroke:#181818;stroke-width:1;"/></g><!--link publish_experiment_products_cwl_workflow_location to publish_product_cwl_workflow_location--><g class="link" data-entity-1="publish_experiment_products_cwl_workflow_location" data-entity-2="publish_product_cwl_workflow_location" data-source-line="111" data-uid="lnk7" id="link_publish_experiment_products_cwl_workflow_location_publish_product_cwl_workflow_location"><path d="M897,111.3 C897,123.9 897,156.65 897,184 C897,184 897,184 897,385.86 C897,421.97 897,459.42 897,474.44" fill="none" id="publish_experiment_products_cwl_workflow_location-to-publish_product_cwl_workflow_location" style="stroke:#181818;stroke-width:1;"/><polygon fill="#181818" points="897,480.44,901,471.44,897,475.44,893,471.44,897,480.44" style="stroke:#181818;stroke-width:1;"/></g><!--link publish_experiment_products_job_id to publish_product_experiment_id--><g class="link" data-entity-1="publish_experiment_products_job_id" data-entity-2="publish_product_experiment_id" data-source-line="119" data-uid="lnk8" id="link_publish_experiment_products_job_id_publish_product_experiment_id"><path d="M75.46,111.26 C65.58,123.28 43,154.02 43,184 C43,184 43,184 43,385.86 C43,410.56 50.87,419.56 71,433.86 C86.14,444.61 95.42,433.5 112,441.86 C131.38,451.64 144.9467,466.8109 152.3867,476.1309" fill="none" id="publish_experiment_products_job_id-to-publish_product_experiment_id" style="stroke:#181818;stroke-width:1;"/><polygon fill="#181818" points="156.13,480.82,153.6412,471.2908,153.0106,476.9124,147.389,476.2818,156.13,480.82" style="stroke:#181818;stroke-width:1;"/></g><!--link publish_experiment_products_authorization_token to publish_product_authorization_token--><g class="link" data-entity-1="publish_experiment_products_authorization_token" data-entity-2="publish_product_authorization_token" data-source-line="127" data-uid="lnk9" id="link_publish_experiment_products_authorization_token_publish_product_authorization_token"><path d="M1053,111.3 C1053,123.9 1053,156.65 1053,184 C1053,184 1053,184 1053,385.86 C1053,421.97 1053,459.42 1053,474.44" fill="none" id="publish_experiment_products_authorization_token-to-publish_product_authorization_token" style="stroke:#181818;stroke-width:1;"/><polygon fill="#181818" points="1053,480.44,1057,471.44,1053,475.44,1049,471.44,1053,480.44" style="stroke:#181818;stroke-width:1;"/></g><!--link publish_experiment_products_job_id to publish_experiment_job_id--><g class="link" data-entity-1="publish_experiment_products_job_id" data-entity-2="publish_experiment_job_id" data-source-line="165" data-uid="lnk10" id="link_publish_experiment_products_job_id_publish_experiment_job_id"><path d="M84.54,111.26 C94.42,123.28 117,154.02 117,184 C117,184 117,184 117,337.36 C117,393.24 166.68,391.25 219,410.86 C322.24,449.56 355.9,428.07 466,433.86 C484.03,434.81 1099.28,435.03 1116,441.86 C1135.85,449.97 1148.6364,466.1019 1155.3164,475.8419" fill="none" id="publish_experiment_products_job_id-to-publish_experiment_job_id" style="stroke:#181818;stroke-width:1;"/><polygon fill="#181818" points="1158.71,480.79,1156.9184,471.1055,1155.882,476.6666,1150.3209,475.6302,1158.71,480.79" style="stroke:#181818;stroke-width:1;"/></g><!--link publish_experiment_products_project_id to publish_experiment_project_id--><g class="link" data-entity-1="publish_experiment_products_project_id" data-entity-2="publish_experiment_project_id" data-source-line="173" data-uid="lnk11" id="link_publish_experiment_products_project_id_publish_experiment_project_id"><path d="M212.06,111.2 C216.79,123.59 228,155.93 228,184 C228,184 228,184 228,385.86 C228,439.99 270.67,420.32 487,433.86 C506.96,435.11 1188.48,434.31 1207,441.86 C1226.85,449.95 1239.6364,466.1019 1246.3164,475.8419" fill="none" id="publish_experiment_products_project_id-to-publish_experiment_project_id" style="stroke:#181818;stroke-width:1;"/><polygon fill="#181818" points="1249.71,480.79,1247.9184,471.1055,1246.882,476.6666,1241.3209,475.6302,1249.71,480.79" style="stroke:#181818;stroke-width:1;"/></g><!--link publish_experiment_products_project_name to publish_experiment_project_name--><g class="link" data-entity-1="publish_experiment_products_project_name" data-entity-2="publish_experiment_project_name" data-source-line="181" data-uid="lnk12" id="link_publish_experiment_products_project_name_publish_experiment_project_name"><path d="M549.76,107.94 C575.41,116.74 678,153.85 678,184 C678,184 678,184 678,337.36 C678,442.91 791.93,411.11 895,433.86 C949.04,445.79 1340.62,424.01 1393,441.86 C1416.46,449.86 1434.1438,466.6252 1443.3138,476.3952" fill="none" id="publish_experiment_products_project_name-to-publish_experiment_project_name" style="stroke:#181818;stroke-width:1;"/><polygon fill="#181818" points="1447.42,480.77,1444.1773,471.4703,1443.9982,477.1243,1438.3442,476.9452,1447.42,480.77" style="stroke:#181818;stroke-width:1;"/></g><!--link publish_experiment_products_ogc_api_processes_endpoint to publish_experiment_ogc_api_processes_endpoint--><g class="link" data-entity-1="publish_experiment_products_ogc_api_processes_endpoint" data-entity-2="publish_experiment_ogc_api_processes_endpoint" data-source-line="189" data-uid="lnk13" id="link_publish_experiment_products_ogc_api_processes_endpoint_publish_experiment_ogc_api_processes_endpoint"><path d="M720.51,107.63 C746.99,115.64 860,151.7 860,184 C860,184 860,184 860,337.36 C860,432.47 958.68,410.99 1051,433.86 C1099.32,445.83 1450.01,432.98 1499,441.86 C1545.75,450.34 1592.9706,471.515 1611.0706,480.115" fill="none" id="publish_experiment_products_ogc_api_processes_endpoint-to-publish_experiment_ogc_api_processes_endpoint" style="stroke:#181818;stroke-width:1;"/><polygon fill="#181818" points="1616.49,482.69,1610.0776,475.2147,1611.9739,480.5442,1606.6443,482.4405,1616.49,482.69" style="stroke:#181818;stroke-width:1;"/></g><!--link sync_git_repository_checkout_directory to publish_experiment_osc_location--><g class="link" data-entity-1="sync_git_repository_checkout_directory" data-entity-2="publish_experiment_osc_location" data-source-line="197" data-uid="lnk14" id="link_sync_git_repository_checkout_directory_publish_experiment_osc_location"><path d="M459.4,391.03 C464.55,401.45 477.79,424.75 497,433.86 C537.11,452.89 1254.39,426.38 1296,441.86 C1317.5,449.86 1332.5301,466.3162 1340.3601,476.0962" fill="none" id="sync_git_repository_checkout_directory-to-publish_experiment_osc_location" style="stroke:#181818;stroke-width:1;"/><polygon fill="#181818" points="1344.11,480.78,1341.6077,471.2543,1340.9851,476.8768,1335.3626,476.2542,1344.11,480.78" style="stroke:#181818;stroke-width:1;"/></g><!--link publish_experiment_products_cwl_workflow_location to publish_experiment_cwl_workflow_location--><g class="link" data-entity-1="publish_experiment_products_cwl_workflow_location" data-entity-2="publish_experiment_cwl_workflow_location" data-source-line="205" data-uid="lnk15" id="link_publish_experiment_products_cwl_workflow_location_publish_experiment_cwl_workflow_location"><path d="M903.06,106.91 C927.31,110.94 1016,129.41 1016,184 C1016,184 1016,184 1016,337.36 C1016,450.74 1404.38,420.74 1517,433.86 C1559.42,438.8 1667.48,431.89 1709,441.86 C1745.01,450.51 1778.8414,469.7695 1793.6714,478.8395" fill="none" id="publish_experiment_products_cwl_workflow_location-to-publish_experiment_cwl_workflow_location" style="stroke:#181818;stroke-width:1;"/><polygon fill="#181818" points="1798.79,481.97,1793.1991,473.8618,1794.5245,479.3612,1789.0251,480.6866,1798.79,481.97" style="stroke:#181818;stroke-width:1;"/></g><!--link publish_experiment_products_workflow_id to publish_experiment_workflow_id--><g class="link" data-entity-1="publish_experiment_products_workflow_id" data-entity-2="publish_experiment_workflow_id" data-source-line="213" data-uid="lnk16" id="link_publish_experiment_products_workflow_id_publish_experiment_workflow_id"><path d="M2076,111.3 C2076,123.9 2076,156.65 2076,184 C2076,184 2076,184 2076,385.86 C2076,421.97 2076,459.42 2076,474.44" fill="none" id="publish_experiment_products_workflow_id-to-publish_experiment_workflow_id" style="stroke:#181818;stroke-width:1;"/><polygon fill="#181818" points="2076,480.44,2080,471.44,2076,475.44,2072,471.44,2076,480.44" style="stroke:#181818;stroke-width:1;"/></g><!--link publish_experiment_products_authorization_token to publish_experiment_authorization_token--><g class="link" data-entity-1="publish_experiment_products_authorization_token" data-entity-2="publish_experiment_authorization_token" data-source-line="221" data-uid="lnk17" id="link_publish_experiment_products_authorization_token_publish_experiment_authorization_token"><path d="M1059.33,106.35 C1115.46,109.52 1526,134.38 1526,184 C1526,184 1526,184 1526,385.86 C1526,464.41 1800.34,417.45 1875,441.86 C1906.56,452.18 1935.6903,469.6352 1949.5603,478.4752" fill="none" id="publish_experiment_products_authorization_token-to-publish_experiment_authorization_token" style="stroke:#181818;stroke-width:1;"/><polygon fill="#181818" points="1954.62,481.7,1949.1803,473.4897,1950.4036,479.0127,1944.8806,480.236,1954.62,481.7" style="stroke:#181818;stroke-width:1;"/></g><!--link publish_experiment_products_job_id to commit_and_push_commit_message_choice--><g class="link" data-entity-1="publish_experiment_products_job_id" data-entity-2="commit_and_push_commit_message_choice" data-source-line="239" data-uid="lnk18" id="link_publish_experiment_products_job_id_commit_and_push_commit_message_choice"><path d="M73.94,108.73 C56.27,117.17 6,144.61 6,184 C6,184 6,184 6,577.72 C6,646.18 266.8932,658.3544 324.2332,660.2244" fill="none" id="publish_experiment_products_job_id-to-commit_and_push_commit_message_choice" style="stroke:#181818;stroke-width:1;"/><polygon fill="#181818" points="330.23,660.42,321.3652,656.1288,325.2327,660.257,321.1044,664.1245,330.23,660.42" style="stroke:#181818;stroke-width:1;"/></g><!--link publish_experiment_products_workflow_id to commit_and_push_commit_message_choice--><g class="link" data-entity-1="publish_experiment_products_workflow_id" data-entity-2="commit_and_push_commit_message_choice" data-source-line="241" data-uid="lnk19" id="link_publish_experiment_products_workflow_id_commit_and_push_commit_message_choice"><path d="M2081.63,109.43 C2096.73,119.1 2137,148.24 2137,184 C2137,184 2137,184 2137,577.72 C2137,676.68 447.24,603.11 357,643.72 C352.27,645.85 351.8946,645.3186 349.0746,649.0386" fill="none" id="publish_experiment_products_workflow_id-to-commit_and_push_commit_message_choice" style="stroke:#181818;stroke-width:1;"/><polygon fill="#181818" points="345.45,653.82,354.0746,649.0643,348.4705,649.8355,347.6993,644.2314,345.45,653.82" style="stroke:#181818;stroke-width:1;"/></g><!--link publish_experiment_products_project_name to commit_and_push_commit_message_choice--><g class="link" data-entity-1="publish_experiment_products_project_name" data-entity-2="commit_and_push_commit_message_choice" data-source-line="243" data-uid="lnk20" id="link_publish_experiment_products_project_name_commit_and_push_commit_message_choice"><path d="M537.38,106.37 C495.13,108.93 265,125.53 265,184 C265,184 265,184 265,337.36 C265,424.16 141.85,365.81 100,441.86 C68.1,499.82 60.27,537.81 100,590.72 C129.1,629.48 283.7256,652.9254 325.2456,658.6154" fill="none" id="publish_experiment_products_project_name-to-commit_and_push_commit_message_choice" style="stroke:#181818;stroke-width:1;"/><polygon fill="#181818" points="331.19,659.43,322.8164,654.2451,326.2363,658.7511,321.7302,662.171,331.19,659.43" style="stroke:#181818;stroke-width:1;"/></g><!--link publish_experiment_products_project_id to commit_and_push_commit_message_choice--><g class="link" data-entity-1="publish_experiment_products_project_id" data-entity-2="commit_and_push_commit_message_choice" data-source-line="245" data-uid="lnk21" id="link_publish_experiment_products_project_id_commit_and_push_commit_message_choice"><path d="M203.58,110.45 C188.87,121.23 154,150.33 154,184 C154,184 154,184 154,337.36 C154,396.67 90.53,385.86 71,441.86 C45.84,513.98 21.84,555.26 71,613.72 C105.07,654.23 277.8808,659.73 324.0908,660.5" fill="none" id="publish_experiment_products_project_id-to-commit_and_push_commit_message_choice" style="stroke:#181818;stroke-width:1;"/><polygon fill="#181818" points="330.09,660.6,321.1579,656.4506,325.0907,660.5167,321.0246,664.4495,330.09,660.6" style="stroke:#181818;stroke-width:1;"/></g><!--link publish_experiment_log to commit_and_push_commit_message_choice--><g class="link" data-entity-1="publish_experiment_log" data-entity-2="commit_and_push_commit_message_choice" data-source-line="247" data-uid="lnk22" id="link_publish_experiment_log_commit_and_push_commit_message_choice"><path d="M1611.81,578.1 C1563.92,581.02 1247.38,600.24 990,613.72 C919.68,617.4 420.96,614.27 357,643.72 C352.29,645.89 351.9208,645.3633 349.1008,649.0733" fill="none" id="publish_experiment_log-to-commit_and_push_commit_message_choice" style="stroke:#181818;stroke-width:1;"/><polygon fill="#181818" points="345.47,653.85,354.1007,649.1055,348.4957,649.8694,347.7318,644.2644,345.47,653.85" style="stroke:#181818;stroke-width:1;"/></g><!--link publish_product_log to commit_and_push_commit_message_choice--><g class="link" data-entity-1="publish_product_log" data-entity-2="commit_and_push_commit_message_choice" data-source-line="249" data-uid="lnk23" id="link_publish_product_log_commit_and_push_commit_message_choice"><path d="M1061.4,582.92 C1059.71,585.74 1057.21,588.99 1054,590.72 C917.35,664.58 497.15,576.74 357,643.72 C352.32,645.96 351.9714,645.449 349.1414,649.139" fill="none" id="publish_product_log-to-commit_and_push_commit_message_choice" style="stroke:#181818;stroke-width:1;"/><polygon fill="#181818" points="345.49,653.9,354.1411,649.1927,348.5328,649.9325,347.7931,644.3242,345.49,653.9" style="stroke:#181818;stroke-width:1;"/></g><!--link commit_and_push_commit_message_choice to commit_and_push_commit_message--><g class="link" data-entity-1="commit_and_push_commit_message_choice" data-entity-2="commit_and_push_commit_message" data-source-line="259" data-uid="lnk24" id="link_commit_and_push_commit_message_choice_commit_and_push_commit_message"><path d="M336.15,669.29 C330.04,678.01 319.89,694.12 316,709.72 C309.89,734.2 324.5725,757.3032 333.1725,768.6832" fill="none" id="commit_and_push_commit_message_choice-to-commit_and_push_commit_message" style="stroke:#181818;stroke-width:1;"/><polygon fill="#181818" points="336.79,773.47,334.555,763.8781,333.7754,769.481,328.1726,768.7014,336.79,773.47" style="stroke:#181818;stroke-width:1;"/><text fill="#000000" font-family="sans-serif" font-size="13" lengthAdjust="spacing" textLength="33.9155" x="317" y="722.7869">None</text></g><!--link publish_experiment_log to publish_experiment_products_publish_experiment_log--><g class="link" data-entity-1="publish_experiment_log" data-entity-2="publish_experiment_products_publish_experiment_log" data-source-line="275" data-uid="lnk25" id="link_publish_experiment_log_publish_experiment_products_publish_experiment_log"><path d="M1624.03,578.2 C1671.99,582.01 1996.79,608.4 2259,643.72 C2295.3,648.61 2332.6227,655.3947 2348.6827,658.4047" fill="none" id="publish_experiment_log-to-publish_experiment_products_publish_experiment_log" style="stroke:#181818;stroke-width:1;"/><polygon fill="#181818" points="2354.58,659.51,2346.4709,653.9205,2349.6656,658.5889,2344.9972,661.7836,2354.58,659.51" style="stroke:#181818;stroke-width:1;"/></g><!--link publish_product_log to publish_experiment_products_publish_product_log--><g class="link" data-entity-1="publish_product_log" data-entity-2="publish_experiment_products_publish_product_log" data-source-line="280" data-uid="lnk26" id="link_publish_product_log_publish_experiment_products_publish_product_log"><path d="M1070.03,579.53 C1080.08,582.46 1100.93,588.16 1119,590.72 C1315.94,618.6 1367.37,602.28 1566,612.72 C1812.71,625.68 1876.45,608.68 2121,643.72 C2145.99,647.3 2169.2633,653.5632 2181.8633,657.1832" fill="none" id="publish_product_log-to-publish_experiment_products_publish_product_log" style="stroke:#181818;stroke-width:1;"/><polygon fill="#181818" points="2187.63,658.84,2180.0844,652.5103,2182.8244,657.4593,2177.8754,660.1993,2187.63,658.84" style="stroke:#181818;stroke-width:1;"/></g><!--link *start* to publish_experiment_products_job_id--><g class="link" data-entity-1=".start." data-entity-2="publish_experiment_products_job_id" data-source-line="285" data-uid="lnk28" id="link_.start._publish_experiment_products_job_id"><path d="M705.09,17.44 C650.34,20.03 379.34,34.65 163,79 C133.81,84.98 105.7619,94.6281 92.0019,99.6081" fill="none" id="*start*-to-publish_experiment_products_job_id" style="stroke:#181818;stroke-width:1;"/><polygon fill="#181818" points="86.36,101.65,96.1841,102.3484,91.0616,99.9484,93.4615,94.8259,86.36,101.65" style="stroke:#181818;stroke-width:1;"/></g><!--link *start* to publish_experiment_products_project_id--><g class="link" data-entity-1=".start." data-entity-2="publish_experiment_products_project_id" data-source-line="287" data-uid="lnk29" id="link_.start._publish_experiment_products_project_id"><path d="M704.91,18.74 C638.74,30.14 273.7629,93.0114 221.9229,101.9414" fill="none" id="*start*-to-publish_experiment_products_project_id" style="stroke:#181818;stroke-width:1;"/><polygon fill="#181818" points="216.01,102.96,225.5584,105.3741,220.9374,102.1112,224.2003,97.4902,216.01,102.96" style="stroke:#181818;stroke-width:1;"/></g><!--link *start* to publish_experiment_products_project_name--><g class="link" data-entity-1=".start." data-entity-2="publish_experiment_products_project_name" data-source-line="289" data-uid="lnk30" id="link_.start._publish_experiment_products_project_name"><path d="M706.24,21.28 C685.92,31.25 633.99,56.82 591,79 C576.05,86.71 563.8778,93.2361 555.0378,98.0161" fill="none" id="*start*-to-publish_experiment_products_project_name" style="stroke:#181818;stroke-width:1;"/><polygon fill="#181818" points="549.76,100.87,559.5793,100.1078,554.1582,98.4918,555.7742,93.0707,549.76,100.87" style="stroke:#181818;stroke-width:1;"/></g><!--link *start* to publish_experiment_products_ogc_api_processes_endpoint--><g class="link" data-entity-1=".start." data-entity-2="publish_experiment_products_ogc_api_processes_endpoint" data-source-line="291" data-uid="lnk31" id="link_.start._publish_experiment_products_ogc_api_processes_endpoint"><path d="M715,26.31 C715,44.55 715,78.44 715,92.75" fill="none" id="*start*-to-publish_experiment_products_ogc_api_processes_endpoint" style="stroke:#181818;stroke-width:1;"/><polygon fill="#181818" points="715,98.75,719,89.75,715,93.75,711,89.75,715,98.75" style="stroke:#181818;stroke-width:1;"/></g><!--link *start* to publish_experiment_products_cwl_workflow_location--><g class="link" data-entity-1=".start." data-entity-2="publish_experiment_products_cwl_workflow_location" data-source-line="293" data-uid="lnk32" id="link_.start._publish_experiment_products_cwl_workflow_location"><path d="M723.78,21.2 C755.45,36.33 857.9663,85.3431 885.2763,98.3931" fill="none" id="*start*-to-publish_experiment_products_cwl_workflow_location" style="stroke:#181818;stroke-width:1;"/><polygon fill="#181818" points="890.69,100.98,884.2941,93.4905,886.1786,98.8242,880.8449,100.7088,890.69,100.98" style="stroke:#181818;stroke-width:1;"/></g><!--link *start* to publish_experiment_products_workflow_id--><g class="link" data-entity-1=".start." data-entity-2="publish_experiment_products_workflow_id" data-source-line="295" data-uid="lnk33" id="link_.start._publish_experiment_products_workflow_id"><path d="M725.17,17.65 C844.37,25.27 1966.6622,97.0069 2063.4022,103.1969" fill="none" id="*start*-to-publish_experiment_products_workflow_id" style="stroke:#181818;stroke-width:1;"/><polygon fill="#181818" points="2069.39,103.58,2060.6638,99.0135,2064.4002,103.2607,2060.1529,106.9971,2069.39,103.58" style="stroke:#181818;stroke-width:1;"/></g><!--link *start* to publish_experiment_products_authorization_token--><g class="link" data-entity-1=".start." data-entity-2="publish_experiment_products_authorization_token" data-source-line="297" data-uid="lnk34" id="link_.start._publish_experiment_products_authorization_token"><path d="M724.65,19.22 C758.22,26.98 873,53.79 967,79 C997.04,87.06 1026.8907,96.0306 1041.0307,100.3406" fill="none" id="*start*-to-publish_experiment_products_authorization_token" style="stroke:#181818;stroke-width:1;"/><polygon fill="#181818" points="1046.77,102.09,1039.3273,95.6397,1041.9872,100.6322,1036.9948,103.2921,1046.77,102.09" style="stroke:#181818;stroke-width:1;"/></g><!--link publish_experiment_products_publish_experiment_log to *end*--><g class="link" data-entity-1="publish_experiment_products_publish_experiment_log" data-entity-2=".end." data-source-line="301" data-uid="lnk36" id="link_publish_experiment_products_publish_experiment_log_.end."><path d="M2364.83,668.01 C2378.18,686.44 2419.2409,743.1504 2435.4909,765.5904" fill="none" id="publish_experiment_products_publish_experiment_log-to-*end*" style="stroke:#181818;stroke-width:1;"/><polygon fill="#181818" points="2439.01,770.45,2436.9711,760.8145,2436.0774,766.4003,2430.4916,765.5066,2439.01,770.45" style="stroke:#181818;stroke-width:1;"/></g><!--link publish_experiment_products_publish_product_log to *end*--><g class="link" data-entity-1="publish_experiment_products_publish_product_log" data-entity-2=".end." data-source-line="303" data-uid="lnk37" id="link_publish_experiment_products_publish_product_log_.end."><path d="M2200.2,665.59 C2233.8,681.11 2388.4735,752.593 2429.8035,771.693" fill="none" id="publish_experiment_products_publish_product_log-to-*end*" style="stroke:#181818;stroke-width:1;"/><polygon fill="#181818" points="2435.25,774.21,2428.7582,766.8035,2430.7112,772.1125,2425.4022,774.0655,2435.25,774.21" style="stroke:#181818;stroke-width:1;"/></g><!--SRC=[xLbTRzem57tFhx3wKcaIbD5s4wZYQS_J7lOsJLPmtE2In57YZB9f_tqs4E8a_WfDW4sB42h9lVUSUsrV7wTtjnwu1P-87sP-34ASuCndE03BBK2RQ9eMSGH-JCOFz-E9C6GanZdputGEffFfXz7aSJITV7t_CB-VpQUpyUpn8xUwyxmL2J30SSgs8C0voaZA24sytSNz6GOtQR6CIBw2-3N56G-RC9XcD2WGos-0dmF3S_3B0_pQVHsYlT0b987D4UxDmDCJlvjjlr2IiCMY5OoRls34N09Mfgv14p_6pc65iIqm3H7qKo9y4Cvpd4ES1AamjiBeNMsWV7B03StMpn7Tm8WYNuol5K_fPOCwEZWCXsHh2-iNR4KpydF70JAwndR-2XybZ2S-ZKj_mvDevTi4mP0mcE6KveJHR7kOxPLbpRaSZnL6Qrem692CJnpkjaj64GwsJKKEhuJ9ALHel-kONVBwrvv8urJEaiFKaCUeCJAApdHmCdGZOu7rb1rQtsYqqF2mu-Y1pOspn34tom5obW1LULUFUyozrT-RQBgUFc3-EqXJ1OH13pLmt8fAz6xRpm3rCH1GLKjltaVjSgJUI8_eaa6FzN7S8fJra1ZrK06xfYY1dNN407D6ZQqgZzAoXpf9h3IDjcPn-VsbHgU70jYaMudhADS6A8OAMLKPXTqfzT5MAgAXiZBy_d_HTxBegqQyc-wJPigbfL-Bod3ghyxeAWIWajAG6b01U0qoK4FhV4fG8l2tY44doaFgGPd0rKX23Qcpg489-xg5eOre3zLoU5bcUKSsG6LaH4qz99Cp24G9-7erefdae39HWhw4KjopGZIEUG_oam2c1ITr-1tpJkk7c3SaIf3OGVT_ACRfL8ta1FmsjEQAE0DaImIS4NFmBCKi7G11FYxr6Dvuo6XW64uOTVJT0ZOJV7jZSrkJzbA1EVXC4znh4qChFmcv1XDmE52NesRIgQzLF_N_lpIqqMf9T6cnHqp3bEyEPYXk8pTf_ZidPd_5qCggkSmwmXZoaKRnsxllrk2Dex2JZ-80sSclTk1oydGuTZZ5CMjGfn0gsURaQ58qqbexOIK9PCwWMupc3EG1_W00]--></g></svg>