<svg xmlns="http://www.w3.org/2000/svg" xmlns:xlink="http://www.w3.org/1999/xlink" contentStyleType="text/css" data-diagram-type="SEQUENCE" height="891px" preserveAspectRatio="none" style="width:1160px;height:891px;background:#FFFFFF;" version="1.1" viewBox="0 0 1160 891" width="1160px" zoomAndPan="magnify"><?plantuml 1.2026.4beta2?><defs/><g><g class="title" data-source-line="1"><text fill="#000000" font-family="sans-serif" font-size="14" font-weight="700" lengthAdjust="spacing" textLength="259.8887" x="446.8005" y="27.9951">Create the Experiment definition</text></g><g><title>Operator</title><rect fill="#FFFFFF" height="671.9219" style="stroke:#181818;stroke-width:1;" width="10" x="34.3325" y="128.5938"/></g><g><title>Open Science Catalog</title><rect fill="#FFFFFF" height="671.9219" style="stroke:#181818;stroke-width:1;" width="10" x="334.3628" y="128.5938"/></g><g><title>Application Packages Registry</title><rect fill="#FFFFFF" height="29.1328" style="stroke:#181818;stroke-width:1;" width="10" x="589.166" y="266.2578"/></g><g><title>OGC API Processes</title><rect fill="#FFFFFF" height="29.1328" style="stroke:#181818;stroke-width:1;" width="10" x="780.9292" y="405.9219"/></g><g><title>File System</title><rect fill="#FFFFFF" height="671.9219" style="stroke:#181818;stroke-width:1;" width="10" x="907.6108" y="128.5938"/></g><g><title>Open Science Catalog</title><rect fill="#FFFFFF" height="29.1328" style="stroke:#181818;stroke-width:1;" width="10" x="1045.3257" y="566.5859"/></g><g><title>Open Science Catalog</title><rect fill="#FFFFFF" height="29.1328" style="stroke:#181818;stroke-width:1;" width="10" x="1045.3257" y="711.25"/></g><rect fill="none" height="75.3984" style="stroke:#000000;stroke-width:1.5;" width="623.8613" x="245.1987" y="367.6563"/><rect fill="none" height="335.4609" style="stroke:#000000;stroke-width:1.5;" width="899.291" x="245.1987" y="457.0547"/><g class="participant-lifeline" data-entity-uid="part1" data-qualified-name="operator" data-source-line="3" id="part1-lifeline"><g><title>Operator</title><rect fill="#000000" fill-opacity="0.00000" height="690.9219" width="8" x="35.3325" y="118.5938"/><line style="stroke:#181818;stroke-width:0.5;stroke-dasharray:5,5;" x1="39" x2="39" y1="118.5938" y2="809.5156"/></g></g><g class="participant-lifeline" data-entity-uid="part2" data-qualified-name="oscc" data-source-line="4" id="part2-lifeline"><g><title>Open Science Catalog</title><rect fill="#000000" fill-opacity="0.00000" height="690.9219" width="8" x="335.3628" y="118.5938"/><line style="stroke:#181818;stroke-width:0.5;stroke-dasharray:5,5;" x1="339.1987" x2="339.1987" y1="118.5938" y2="809.5156"/></g></g><g class="participant-lifeline" data-entity-uid="part3" data-qualified-name="apr" data-source-line="5" id="part3-lifeline"><g><title>Application Packages Registry</title><rect fill="#000000" fill-opacity="0.00000" height="690.9219" width="8" x="590.166" y="118.5938"/><line style="stroke:#181818;stroke-width:0.5;stroke-dasharray:5,5;" x1="593.5337" x2="593.5337" y1="118.5938" y2="809.5156"/></g></g><g class="participant-lifeline" data-entity-uid="part4" data-qualified-name="oap" data-source-line="6" id="part4-lifeline"><g><title>OGC API Processes</title><rect fill="#000000" fill-opacity="0.00000" height="690.9219" width="8" x="781.9292" y="118.5938"/><line style="stroke:#181818;stroke-width:0.5;stroke-dasharray:5,5;" x1="785.7983" x2="785.7983" y1="118.5938" y2="809.5156"/></g></g><g class="participant-lifeline" data-entity-uid="part5" data-qualified-name="fs" data-source-line="7" id="part5-lifeline"><g><title>File System</title><rect fill="#000000" fill-opacity="0.00000" height="690.9219" width="8" x="908.6108" y="118.5938"/><line style="stroke:#181818;stroke-width:0.5;stroke-dasharray:5,5;" x1="912.0601" x2="912.0601" y1="118.5938" y2="809.5156"/></g></g><g class="participant-lifeline" data-entity-uid="part6" data-qualified-name="osc" data-source-line="8" id="part6-lifeline"><g><title>Open Science Catalog</title><rect fill="#000000" fill-opacity="0.00000" height="690.9219" width="8" x="1046.3257" y="118.5938"/><line style="stroke:#181818;stroke-width:0.5;stroke-dasharray:5,5;" x1="1050.1616" x2="1050.1616" y1="118.5938" y2="809.5156"/></g></g><g class="participant participant-head" data-entity-uid="part1" data-qualified-name="operator" data-source-line="3" id="part1-head"><text fill="#000000" font-family="sans-serif" font-size="14" lengthAdjust="spacing" textLength="62.665" x="5" y="115.292">Operator</text><ellipse cx="39.3325" cy="50.7969" fill="#E2E2F0" rx="8" ry="8" style="stroke:#181818;stroke-width:0.5;"/><path d="M39.3325,58.7969 L39.3325,85.7969 M26.3325,66.7969 L52.3325,66.7969 M39.3325,85.7969 L26.3325,100.7969 M39.3325,85.7969 L52.3325,100.7969" fill="none" style="stroke:#181818;stroke-width:0.5;"/></g><g class="participant participant-tail" data-entity-uid="part1" data-qualified-name="operator" data-source-line="3" id="part1-tail"><text fill="#000000" font-family="sans-serif" font-size="14" lengthAdjust="spacing" textLength="62.665" x="5" y="821.5107">Operator</text><ellipse cx="39.3325" cy="833.3125" fill="#E2E2F0" rx="8" ry="8" style="stroke:#181818;stroke-width:0.5;"/><path d="M39.3325,841.3125 L39.3325,868.3125 M26.3325,849.3125 L52.3325,849.3125 M39.3325,868.3125 L26.3325,883.3125 M39.3325,868.3125 L52.3325,883.3125" fill="none" style="stroke:#181818;stroke-width:0.5;"/></g><g class="participant participant-head" data-entity-uid="part2" data-qualified-name="oscc" data-source-line="4" id="part2-head"><rect fill="#E2E2F0" height="46.5938" rx="2.5" ry="2.5" style="stroke:#181818;stroke-width:0.5;" width="168.3281" x="255.1987" y="71"/><text fill="#000000" font-family="sans-serif" font-size="14" lengthAdjust="spacing" textLength="154.3281" x="262.1987" y="90.9951">Open Science Catalog</text><text fill="#000000" font-family="sans-serif" font-size="14" lengthAdjust="spacing" textLength="40.5303" x="319.0977" y="107.292">Client</text></g><g class="participant participant-tail" data-entity-uid="part2" data-qualified-name="oscc" data-source-line="4" id="part2-tail"><rect fill="#E2E2F0" height="46.5938" rx="2.5" ry="2.5" style="stroke:#181818;stroke-width:0.5;" width="168.3281" x="255.1987" y="808.5156"/><text fill="#000000" font-family="sans-serif" font-size="14" lengthAdjust="spacing" textLength="154.3281" x="262.1987" y="828.5107">Open Science Catalog</text><text fill="#000000" font-family="sans-serif" font-size="14" lengthAdjust="spacing" textLength="40.5303" x="319.0977" y="844.8076">Client</text></g><g class="participant participant-head" data-entity-uid="part3" data-qualified-name="apr" data-source-line="5" id="part3-head"><text fill="#000000" font-family="sans-serif" font-size="14" lengthAdjust="spacing" textLength="211.2646" x="485.5337" y="115.292">Application Packages Registry</text><path d="M576.166,66.2969 C576.166,56.2969 594.166,56.2969 594.166,56.2969 C594.166,56.2969 612.166,56.2969 612.166,66.2969 L612.166,92.2969 C612.166,102.2969 594.166,102.2969 594.166,102.2969 C594.166,102.2969 576.166,102.2969 576.166,92.2969 L576.166,66.2969" fill="#E2E2F0" style="stroke:#181818;stroke-width:0.5;"/><path d="M576.166,66.2969 C576.166,76.2969 594.166,76.2969 594.166,76.2969 C594.166,76.2969 612.166,76.2969 612.166,66.2969" fill="none" style="stroke:#181818;stroke-width:0.5;"/></g><g class="participant participant-tail" data-entity-uid="part3" data-qualified-name="apr" data-source-line="5" id="part3-tail"><text fill="#000000" font-family="sans-serif" font-size="14" lengthAdjust="spacing" textLength="211.2646" x="485.5337" y="821.5107">Application Packages Registry</text><path d="M576.166,834.8125 C576.166,824.8125 594.166,824.8125 594.166,824.8125 C594.166,824.8125 612.166,824.8125 612.166,834.8125 L612.166,860.8125 C612.166,870.8125 594.166,870.8125 594.166,870.8125 C594.166,870.8125 576.166,870.8125 576.166,860.8125 L576.166,834.8125" fill="#E2E2F0" style="stroke:#181818;stroke-width:0.5;"/><path d="M576.166,834.8125 C576.166,844.8125 594.166,844.8125 594.166,844.8125 C594.166,844.8125 612.166,844.8125 612.166,834.8125" fill="none" style="stroke:#181818;stroke-width:0.5;"/></g><g class="participant participant-head" data-entity-uid="part4" data-qualified-name="oap" data-source-line="6" id="part4-head"><rect fill="#E2E2F0" height="30.2969" rx="2.5" ry="2.5" style="stroke:#181818;stroke-width:0.5;" width="146.2617" x="712.7983" y="87.2969"/><text fill="#000000" font-family="sans-serif" font-size="14" lengthAdjust="spacing" textLength="132.2617" x="719.7983" y="107.292">OGC API Processes</text></g><g class="participant participant-tail" data-entity-uid="part4" data-qualified-name="oap" data-source-line="6" id="part4-tail"><rect fill="#E2E2F0" height="30.2969" rx="2.5" ry="2.5" style="stroke:#181818;stroke-width:0.5;" width="146.2617" x="712.7983" y="808.5156"/><text fill="#000000" font-family="sans-serif" font-size="14" lengthAdjust="spacing" textLength="132.2617" x="719.7983" y="828.5107">OGC API Processes</text></g><g class="participant participant-head" data-entity-uid="part5" data-qualified-name="fs" data-source-line="7" id="part5-head"><text fill="#000000" font-family="sans-serif" font-size="14" lengthAdjust="spacing" textLength="81.1016" x="869.0601" y="115.292">File System</text><path d="M894.6108,66.2969 C894.6108,56.2969 912.6108,56.2969 912.6108,56.2969 C912.6108,56.2969 930.6108,56.2969 930.6108,66.2969 L930.6108,92.2969 C930.6108,102.2969 912.6108,102.2969 912.6108,102.2969 C912.6108,102.2969 894.6108,102.2969 894.6108,92.2969 L894.6108,66.2969" fill="#E2E2F0" style="stroke:#181818;stroke-width:0.5;"/><path d="M894.6108,66.2969 C894.6108,76.2969 912.6108,76.2969 912.6108,76.2969 C912.6108,76.2969 930.6108,76.2969 930.6108,66.2969" fill="none" style="stroke:#181818;stroke-width:0.5;"/></g><g class="participant participant-tail" data-entity-uid="part5" data-qualified-name="fs" data-source-line="7" id="part5-tail"><text fill="#000000" font-family="sans-serif" font-size="14" lengthAdjust="spacing" textLength="81.1016" x="869.0601" y="821.5107">File System</text><path d="M894.6108,834.8125 C894.6108,824.8125 912.6108,824.8125 912.6108,824.8125 C912.6108,824.8125 930.6108,824.8125 930.6108,834.8125 L930.6108,860.8125 C930.6108,870.8125 912.6108,870.8125 912.6108,870.8125 C912.6108,870.8125 894.6108,870.8125 894.6108,860.8125 L894.6108,834.8125" fill="#E2E2F0" style="stroke:#181818;stroke-width:0.5;"/><path d="M894.6108,834.8125 C894.6108,844.8125 912.6108,844.8125 912.6108,844.8125 C912.6108,844.8125 930.6108,844.8125 930.6108,834.8125" fill="none" style="stroke:#181818;stroke-width:0.5;"/></g><g class="participant participant-head" data-entity-uid="part6" data-qualified-name="osc" data-source-line="8" id="part6-head"><rect fill="#E2E2F0" height="30.2969" rx="2.5" ry="2.5" style="stroke:#181818;stroke-width:0.5;" width="168.3281" x="966.1616" y="87.2969"/><text fill="#000000" font-family="sans-serif" font-size="14" lengthAdjust="spacing" textLength="154.3281" x="973.1616" y="107.292">Open Science Catalog</text></g><g class="participant participant-tail" data-entity-uid="part6" data-qualified-name="osc" data-source-line="8" id="part6-tail"><rect fill="#E2E2F0" height="30.2969" rx="2.5" ry="2.5" style="stroke:#181818;stroke-width:0.5;" width="168.3281" x="966.1616" y="808.5156"/><text fill="#000000" font-family="sans-serif" font-size="14" lengthAdjust="spacing" textLength="154.3281" x="973.1616" y="828.5107">Open Science Catalog</text></g><g><title>Operator</title><rect fill="#FFFFFF" height="671.9219" style="stroke:#181818;stroke-width:1;" width="10" x="34.3325" y="128.5938"/></g><g><title>Open Science Catalog</title><rect fill="#FFFFFF" height="671.9219" style="stroke:#181818;stroke-width:1;" width="10" x="334.3628" y="128.5938"/></g><g><title>Application Packages Registry</title><rect fill="#FFFFFF" height="29.1328" style="stroke:#181818;stroke-width:1;" width="10" x="589.166" y="266.2578"/></g><g><title>OGC API Processes</title><rect fill="#FFFFFF" height="29.1328" style="stroke:#181818;stroke-width:1;" width="10" x="780.9292" y="405.9219"/></g><g><title>File System</title><rect fill="#FFFFFF" height="671.9219" style="stroke:#181818;stroke-width:1;" width="10" x="907.6108" y="128.5938"/></g><g><title>Open Science Catalog</title><rect fill="#FFFFFF" height="29.1328" style="stroke:#181818;stroke-width:1;" width="10" x="1045.3257" y="566.5859"/></g><g><title>Open Science Catalog</title><rect fill="#FFFFFF" height="29.1328" style="stroke:#181818;stroke-width:1;" width="10" x="1045.3257" y="711.25"/></g><g class="message" data-entity-1="part1" data-entity-2="part2" data-source-line="14" id="msg1"><polygon fill="#181818" points="322.3628,145.7266,332.3628,149.7266,322.3628,153.7266,326.3628,149.7266" style="stroke:#181818;stroke-width:1;"/><line style="stroke:#181818;stroke-width:1;" x1="44.3325" x2="328.3628" y1="149.7266" y2="149.7266"/><text fill="#000000" font-family="sans-serif" font-size="13" lengthAdjust="spacing" textLength="198.8911" x="51.3325" y="144.6606">Configure Application Package</text></g><g class="message" data-entity-1="part1" data-entity-2="part2" data-source-line="15" id="msg2"><polygon fill="#181818" points="322.3628,174.8594,332.3628,178.8594,322.3628,182.8594,326.3628,178.8594" style="stroke:#181818;stroke-width:1;"/><line style="stroke:#181818;stroke-width:1;" x1="44.3325" x2="328.3628" y1="178.8594" y2="178.8594"/><text fill="#000000" font-family="sans-serif" font-size="13" lengthAdjust="spacing" textLength="240.5063" x="51.3325" y="173.7935">Configure OGC API Records workflow</text></g><g class="message" data-entity-1="part1" data-entity-2="part2" data-source-line="16" id="msg3"><polygon fill="#181818" points="322.3628,203.9922,332.3628,207.9922,322.3628,211.9922,326.3628,207.9922" style="stroke:#181818;stroke-width:1;"/><line style="stroke:#181818;stroke-width:1;" x1="44.3325" x2="328.3628" y1="207.9922" y2="207.9922"/><text fill="#000000" font-family="sans-serif" font-size="13" lengthAdjust="spacing" textLength="266.0303" x="51.3325" y="202.9263">Configure OGC API Processes entry point</text></g><g class="message" data-entity-1="part1" data-entity-2="part2" data-source-line="17" id="msg4"><polygon fill="#181818" points="322.3628,233.125,332.3628,237.125,322.3628,241.125,326.3628,237.125" style="stroke:#181818;stroke-width:1;"/><line style="stroke:#181818;stroke-width:1;" x1="44.3325" x2="328.3628" y1="237.125" y2="237.125"/><text fill="#000000" font-family="sans-serif" font-size="13" lengthAdjust="spacing" textLength="232.3877" x="51.3325" y="232.0591">Configure OGC API Processes Job ID</text></g><g class="message" data-entity-1="part2" data-entity-2="part3" data-source-line="18" id="msg5"><polygon fill="#181818" points="577.166,262.2578,587.166,266.2578,577.166,270.2578,581.166,266.2578" style="stroke:#181818;stroke-width:1;"/><line style="stroke:#181818;stroke-width:1;" x1="344.3628" x2="583.166" y1="266.2578" y2="266.2578"/><text fill="#000000" font-family="sans-serif" font-size="13" lengthAdjust="spacing" textLength="151.2837" x="351.3628" y="261.1919">Request CWL Workflow</text></g><g class="message" data-entity-1="part3" data-entity-2="part2" data-source-line="19" id="msg6"><polygon fill="#181818" points="355.3628,291.3906,345.3628,295.3906,355.3628,299.3906,351.3628,295.3906" style="stroke:#181818;stroke-width:1;"/><line style="stroke:#181818;stroke-width:1;stroke-dasharray:2,2;" x1="349.3628" x2="593.166" y1="295.3906" y2="295.3906"/><text fill="#000000" font-family="sans-serif" font-size="13" lengthAdjust="spacing" textLength="172.0532" x="361.3628" y="290.3247">Provide the CWL Workflow</text></g><g class="message" data-entity-1="part2" data-entity-2="part2" data-source-line="21" id="msg7"><line style="stroke:#181818;stroke-width:1;" x1="344.3628" x2="386.3628" y1="339.6563" y2="339.6563"/><line style="stroke:#181818;stroke-width:1;" x1="386.3628" x2="386.3628" y1="339.6563" y2="352.6563"/><line style="stroke:#181818;stroke-width:1;" x1="345.3628" x2="386.3628" y1="352.6563" y2="352.6563"/><polygon fill="#181818" points="355.3628,348.6563,345.3628,352.6563,355.3628,356.6563,351.3628,352.6563" style="stroke:#181818;stroke-width:1;"/><text fill="#000000" font-family="sans-serif" font-size="13" lengthAdjust="spacing" textLength="220.8032" x="351.3628" y="319.4575">Transpile the Application Package</text><text fill="#000000" font-family="sans-serif" font-size="13" lengthAdjust="spacing" textLength="127.8989" x="351.3628" y="334.5903">to OGC API Records</text></g><path d="M245.1987,367.6563 L321.8228,367.6563 L321.8228,374.7891 L311.8228,384.7891 L245.1987,384.7891 L245.1987,367.6563" fill="#EEEEEE" style="stroke:#000000;stroke-width:1.5;"/><rect fill="none" height="75.3984" style="stroke:#000000;stroke-width:1.5;" width="623.8613" x="245.1987" y="367.6563"/><text fill="#000000" font-family="sans-serif" font-size="13" font-weight="700" lengthAdjust="spacing" textLength="31.624" x="260.1987" y="380.7231">loop</text><text fill="#000000" font-family="sans-serif" font-size="11" font-weight="700" lengthAdjust="spacing" textLength="283.9321" x="336.8228" y="379.8667">[StatusInfo.status is "accepted" or "running"]</text><g class="message" data-entity-1="part2" data-entity-2="part4" data-source-line="24" id="msg8"><polygon fill="#181818" points="768.9292,401.9219,778.9292,405.9219,768.9292,409.9219,772.9292,405.9219" style="stroke:#181818;stroke-width:1;"/><line style="stroke:#181818;stroke-width:1;" x1="344.3628" x2="774.9292" y1="405.9219" y2="405.9219"/><text fill="#000000" font-family="monospace" font-size="13" lengthAdjust="spacing" textLength="133.0532" x="351.3628" y="400.856">GET&#160;/jobs/{jobId}</text></g><g class="message" data-entity-1="part4" data-entity-2="part2" data-source-line="25" id="msg9"><polygon fill="#181818" points="355.3628,431.0547,345.3628,435.0547,355.3628,439.0547,351.3628,435.0547" style="stroke:#181818;stroke-width:1;"/><line style="stroke:#181818;stroke-width:1;stroke-dasharray:2,2;" x1="349.3628" x2="784.9292" y1="435.0547" y2="435.0547"/><text fill="#000000" font-family="sans-serif" font-size="13" lengthAdjust="spacing" textLength="143.0254" x="361.3628" y="429.9888">Provide Job StatusInfo</text></g><path d="M245.1987,457.0547 L309.6416,457.0547 L309.6416,464.1875 L299.6416,474.1875 L245.1987,474.1875 L245.1987,457.0547" fill="#EEEEEE" style="stroke:#000000;stroke-width:1.5;"/><rect fill="none" height="335.4609" style="stroke:#000000;stroke-width:1.5;" width="899.291" x="245.1987" y="457.0547"/><text fill="#000000" font-family="sans-serif" font-size="13" font-weight="700" lengthAdjust="spacing" textLength="19.4429" x="260.1987" y="470.1216">alt</text><text fill="#000000" font-family="sans-serif" font-size="11" font-weight="700" lengthAdjust="spacing" textLength="220.709" x="324.6416" y="469.2651">["succeeded" == StatusInfo.status]</text><g class="message" data-entity-1="part2" data-entity-2="part2" data-source-line="29" id="msg10"><line style="stroke:#181818;stroke-width:1;" x1="344.3628" x2="386.3628" y1="495.3203" y2="495.3203"/><line style="stroke:#181818;stroke-width:1;" x1="386.3628" x2="386.3628" y1="495.3203" y2="508.3203"/><line style="stroke:#181818;stroke-width:1;" x1="345.3628" x2="386.3628" y1="508.3203" y2="508.3203"/><polygon fill="#181818" points="355.3628,504.3203,345.3628,508.3203,355.3628,512.3203,351.3628,508.3203" style="stroke:#181818;stroke-width:1;"/><text fill="#000000" font-family="sans-serif" font-size="13" lengthAdjust="spacing" textLength="153.2705" x="351.3628" y="490.2544">Extract workflow inputs</text></g><g class="message" data-entity-1="part2" data-entity-2="part5" data-source-line="30" id="msg11"><polygon fill="#181818" points="895.6108,533.4531,905.6108,537.4531,895.6108,541.4531,899.6108,537.4531" style="stroke:#181818;stroke-width:1;"/><line style="stroke:#181818;stroke-width:1;" x1="344.3628" x2="901.6108" y1="537.4531" y2="537.4531"/><text fill="#000000" font-family="sans-serif" font-size="13" lengthAdjust="spacing" textLength="55.2183" x="351.3628" y="532.3872">Serialize</text><text fill="#000000" font-family="monospace" font-size="13" lengthAdjust="spacing" textLength="86.0933" x="410.7134" y="532.3872">inputs.yaml</text></g><g class="message" data-entity-1="part2" data-entity-2="part6" data-source-line="31" id="msg12"><polygon fill="#181818" points="1033.3257,562.5859,1043.3257,566.5859,1033.3257,570.5859,1037.3257,566.5859" style="stroke:#181818;stroke-width:1;"/><line style="stroke:#181818;stroke-width:1;" x1="344.3628" x2="1039.3257" y1="566.5859" y2="566.5859"/><text fill="#000000" font-family="sans-serif" font-size="13" lengthAdjust="spacing" textLength="111.6743" x="351.3628" y="561.52">Upload serialized</text><text fill="#000000" font-family="monospace" font-size="13" lengthAdjust="spacing" textLength="86.0933" x="467.1694" y="561.52">inputs.yaml</text></g><g class="message" data-entity-1="part6" data-entity-2="part2" data-source-line="32" id="msg13"><polygon fill="#181818" points="355.3628,591.7188,345.3628,595.7188,355.3628,599.7188,351.3628,595.7188" style="stroke:#181818;stroke-width:1;"/><line style="stroke:#181818;stroke-width:1;" x1="349.3628" x2="1049.3257" y1="595.7188" y2="595.7188"/><text fill="#000000" font-family="sans-serif" font-size="13" lengthAdjust="spacing" textLength="26.4951" x="361.3628" y="590.6528">ACK</text></g><g class="message" data-entity-1="part2" data-entity-2="part2" data-source-line="34" id="msg14"><line style="stroke:#181818;stroke-width:1;" x1="344.3628" x2="386.3628" y1="639.9844" y2="639.9844"/><line style="stroke:#181818;stroke-width:1;" x1="386.3628" x2="386.3628" y1="639.9844" y2="652.9844"/><line style="stroke:#181818;stroke-width:1;" x1="345.3628" x2="386.3628" y1="652.9844" y2="652.9844"/><polygon fill="#181818" points="355.3628,648.9844,345.3628,652.9844,355.3628,656.9844,351.3628,652.9844" style="stroke:#181818;stroke-width:1;"/><text fill="#000000" font-family="sans-serif" font-size="13" lengthAdjust="spacing" textLength="42.4404" x="351.3628" y="619.7856">Attach</text><text fill="#000000" font-family="monospace" font-size="13" lengthAdjust="spacing" textLength="86.0933" x="397.9355" y="619.7856">inputs.yaml</text><text fill="#000000" font-family="sans-serif" font-size="13" lengthAdjust="spacing" textLength="65.6411" x="488.1611" y="619.7856">link to the</text><text fill="#000000" font-family="sans-serif" font-size="13" lengthAdjust="spacing" textLength="110.7158" x="351.3628" y="634.9185">OGC API Records</text></g><g class="message" data-entity-1="part2" data-entity-2="part5" data-source-line="36" id="msg15"><polygon fill="#181818" points="895.6108,678.1172,905.6108,682.1172,895.6108,686.1172,899.6108,682.1172" style="stroke:#181818;stroke-width:1;"/><line style="stroke:#181818;stroke-width:1;" x1="344.3628" x2="901.6108" y1="682.1172" y2="682.1172"/><text fill="#000000" font-family="sans-serif" font-size="13" lengthAdjust="spacing" textLength="55.2183" x="351.3628" y="677.0513">Serialize</text><text fill="#000000" font-family="monospace" font-size="13" lengthAdjust="spacing" textLength="117.3999" x="410.7134" y="677.0513">experiment.json</text></g><g class="message" data-entity-1="part2" data-entity-2="part6" data-source-line="37" id="msg16"><polygon fill="#181818" points="1033.3257,707.25,1043.3257,711.25,1033.3257,715.25,1037.3257,711.25" style="stroke:#181818;stroke-width:1;"/><line style="stroke:#181818;stroke-width:1;" x1="344.3628" x2="1039.3257" y1="711.25" y2="711.25"/><text fill="#000000" font-family="sans-serif" font-size="13" lengthAdjust="spacing" textLength="111.6743" x="351.3628" y="706.1841">Upload serialized</text><text fill="#000000" font-family="monospace" font-size="13" lengthAdjust="spacing" textLength="117.3999" x="467.1694" y="706.1841">experiment.json</text></g><g class="message" data-entity-1="part6" data-entity-2="part2" data-source-line="38" id="msg17"><polygon fill="#181818" points="355.3628,736.3828,345.3628,740.3828,355.3628,744.3828,351.3628,740.3828" style="stroke:#181818;stroke-width:1;"/><line style="stroke:#181818;stroke-width:1;" x1="349.3628" x2="1049.3257" y1="740.3828" y2="740.3828"/><text fill="#000000" font-family="sans-serif" font-size="13" lengthAdjust="spacing" textLength="26.4951" x="361.3628" y="735.3169">ACK</text></g><line style="stroke:#000000;stroke-width:1;stroke-dasharray:2,2;" x1="245.1987" x2="1144.4897" y1="749.3828" y2="749.3828"/><g class="message" data-entity-1="part2" data-entity-2="part2" data-source-line="40" id="msg18"><line style="stroke:#181818;stroke-width:1;" x1="344.3628" x2="386.3628" y1="771.5156" y2="771.5156"/><line style="stroke:#181818;stroke-width:1;" x1="386.3628" x2="386.3628" y1="771.5156" y2="784.5156"/><line style="stroke:#181818;stroke-width:1;" x1="345.3628" x2="386.3628" y1="784.5156" y2="784.5156"/><polygon fill="#181818" points="355.3628,780.5156,345.3628,784.5156,355.3628,788.5156,351.3628,784.5156" style="stroke:#181818;stroke-width:1;"/><text fill="#000000" font-family="sans-serif" font-size="13" lengthAdjust="spacing" textLength="97.1191" x="351.3628" y="766.4497">Manage failure</text></g><?plantuml-src bLHDRzim3BtxLn2w5adl1JeWyB8Y-y22f4ClkR0odQfH94sarsR3_llek4xQ9EkwYooOV8_laRJ5YISeCw4Go1t1-35HTciA0XNLBZXnCHG5MeaPlceCsmionATxaJ2BiowXGenc19XRHy4gBGhwk5o4qkiBCLiOMrjK6hX59Z2ZbBops1Q1ATeLBebXHal7aZTR0AR34bSbZAOJcEPeYPcuuyNqZFQ3KrVp3Gkjjz6Q_ospbrSKlJKuEojgRizMTVlSXmRljbRW0ieOQhTiCi49Cwy3UYipiZ5N30ynhseV7zw6sZK0jBbv0ocw8FyB_HXlOVA-CwW8xRRwLCoClZV40kNDPxZfPRNHGSyx66YQ4lrmLRSwBr9tZ4yQhZC6JkrOsjGJdLe4YOSDAGeVOuAve3Gy2NKSylOAZi6WjPI4AWDgrkGc11UMPbyNK-V4cAlnDPpVnri-_wNdfFfjD4t3fwsq7TbNB2XKklvUbuORhKXLM_7oybZKeUFnesJzR7P31HTI8_iqtQmBcEl7Xjxzr9qrNNoumRKtvZbRv-DRyX4hu1vHdOB02qkZyjFH84OYQEyEiU1TM85EGAUp24TZ-AjcslqkXlSSmrjrduGTQoVFTAZ_2mRT5gZHUTteTZn_0000?></g></svg>