<svg xmlns="http://www.w3.org/2000/svg" xmlns:xlink="http://www.w3.org/1999/xlink" contentStyleType="text/css" data-diagram-type="SEQUENCE" height="851px" preserveAspectRatio="none" style="width:1173px;height:851px;background:#FFFFFF;" version="1.1" viewBox="0 0 1173 851" width="1173px" zoomAndPan="magnify"><?plantuml 1.2026.4beta2?><defs/><g><g class="title" data-source-line="1"><text fill="#000000" font-family="sans-serif" font-size="14" font-weight="700" lengthAdjust="spacing" textLength="239.4287" x="463.502" y="27.9951">Create the Products definition</text></g><g><title>Operator</title><rect fill="#FFFFFF" height="631.7891" style="stroke:#181818;stroke-width:1;" width="10" x="34.3325" y="128.5938"/></g><g><title>Open Science Catalog</title><rect fill="#FFFFFF" height="631.7891" style="stroke:#181818;stroke-width:1;" width="10" x="334.3628" y="128.5938"/></g><g><title>Application Packages Registry</title><rect fill="#FFFFFF" height="29.1328" style="stroke:#181818;stroke-width:1;" width="10" x="602.1089" y="266.2578"/></g><g><title>OGC API Processes</title><rect fill="#FFFFFF" height="29.1328" style="stroke:#181818;stroke-width:1;" width="10" x="793.8721" y="405.9219"/></g><g><title>OGC API Processes</title><rect fill="#FFFFFF" height="29.1328" style="stroke:#181818;stroke-width:1;" width="10" x="793.8721" y="495.3203"/></g><g><title>File System</title><rect fill="#FFFFFF" height="631.7891" style="stroke:#181818;stroke-width:1;" width="10" x="920.5537" y="128.5938"/></g><g><title>Open Science Catalog</title><rect fill="#FFFFFF" height="29.1328" style="stroke:#181818;stroke-width:1;" width="10" x="1058.2686" y="671.1172"/></g><rect fill="none" height="75.3984" style="stroke:#000000;stroke-width:1.5;" width="636.8042" x="245.1987" y="367.6563"/><rect fill="none" height="295.3281" style="stroke:#000000;stroke-width:1.5;" width="922.2339" x="235.1987" y="457.0547"/><rect fill="none" height="74.3984" style="stroke:#000000;stroke-width:1.5;" width="361.9102" x="245.1987" y="539.4531"/><g class="participant-lifeline" data-entity-uid="part1" data-qualified-name="operator" data-source-line="3" id="part1-lifeline"><g><title>Operator</title><rect fill="#000000" fill-opacity="0.00000" height="650.7891" width="8" x="35.3325" y="118.5938"/><line style="stroke:#181818;stroke-width:0.5;stroke-dasharray:5,5;" x1="39" x2="39" y1="118.5938" y2="769.3828"/></g></g><g class="participant-lifeline" data-entity-uid="part2" data-qualified-name="oscc" data-source-line="4" id="part2-lifeline"><g><title>Open Science Catalog</title><rect fill="#000000" fill-opacity="0.00000" height="650.7891" width="8" x="335.3628" y="118.5938"/><line style="stroke:#181818;stroke-width:0.5;stroke-dasharray:5,5;" x1="339.1987" x2="339.1987" y1="118.5938" y2="769.3828"/></g></g><g class="participant-lifeline" data-entity-uid="part3" data-qualified-name="apr" data-source-line="5" id="part3-lifeline"><g><title>Application Packages Registry</title><rect fill="#000000" fill-opacity="0.00000" height="650.7891" width="8" x="603.1089" y="118.5938"/><line style="stroke:#181818;stroke-width:0.5;stroke-dasharray:5,5;" x1="606.4766" x2="606.4766" y1="118.5938" y2="769.3828"/></g></g><g class="participant-lifeline" data-entity-uid="part4" data-qualified-name="oap" data-source-line="6" id="part4-lifeline"><g><title>OGC API Processes</title><rect fill="#000000" fill-opacity="0.00000" height="650.7891" width="8" x="794.8721" y="118.5938"/><line style="stroke:#181818;stroke-width:0.5;stroke-dasharray:5,5;" x1="798.7412" x2="798.7412" y1="118.5938" y2="769.3828"/></g></g><g class="participant-lifeline" data-entity-uid="part5" data-qualified-name="fs" data-source-line="7" id="part5-lifeline"><g><title>File System</title><rect fill="#000000" fill-opacity="0.00000" height="650.7891" width="8" x="921.5537" y="118.5938"/><line style="stroke:#181818;stroke-width:0.5;stroke-dasharray:5,5;" x1="925.0029" x2="925.0029" y1="118.5938" y2="769.3828"/></g></g><g class="participant-lifeline" data-entity-uid="part6" data-qualified-name="osc" data-source-line="8" id="part6-lifeline"><g><title>Open Science Catalog</title><rect fill="#000000" fill-opacity="0.00000" height="650.7891" width="8" x="1059.2686" y="118.5938"/><line style="stroke:#181818;stroke-width:0.5;stroke-dasharray:5,5;" x1="1063.1045" x2="1063.1045" y1="118.5938" y2="769.3828"/></g></g><g class="participant participant-head" data-entity-uid="part1" data-qualified-name="operator" data-source-line="3" id="part1-head"><text fill="#000000" font-family="sans-serif" font-size="14" lengthAdjust="spacing" textLength="62.665" x="5" y="115.292">Operator</text><ellipse cx="39.3325" cy="50.7969" fill="#E2E2F0" rx="8" ry="8" style="stroke:#181818;stroke-width:0.5;"/><path d="M39.3325,58.7969 L39.3325,85.7969 M26.3325,66.7969 L52.3325,66.7969 M39.3325,85.7969 L26.3325,100.7969 M39.3325,85.7969 L52.3325,100.7969" fill="none" style="stroke:#181818;stroke-width:0.5;"/></g><g class="participant participant-tail" data-entity-uid="part1" data-qualified-name="operator" data-source-line="3" id="part1-tail"><text fill="#000000" font-family="sans-serif" font-size="14" lengthAdjust="spacing" textLength="62.665" x="5" y="781.3779">Operator</text><ellipse cx="39.3325" cy="793.1797" fill="#E2E2F0" rx="8" ry="8" style="stroke:#181818;stroke-width:0.5;"/><path d="M39.3325,801.1797 L39.3325,828.1797 M26.3325,809.1797 L52.3325,809.1797 M39.3325,828.1797 L26.3325,843.1797 M39.3325,828.1797 L52.3325,843.1797" fill="none" style="stroke:#181818;stroke-width:0.5;"/></g><g class="participant participant-head" data-entity-uid="part2" data-qualified-name="oscc" data-source-line="4" id="part2-head"><rect fill="#E2E2F0" height="46.5938" rx="2.5" ry="2.5" style="stroke:#181818;stroke-width:0.5;" width="168.3281" x="255.1987" y="71"/><text fill="#000000" font-family="sans-serif" font-size="14" lengthAdjust="spacing" textLength="154.3281" x="262.1987" y="90.9951">Open Science Catalog</text><text fill="#000000" font-family="sans-serif" font-size="14" lengthAdjust="spacing" textLength="40.5303" x="319.0977" y="107.292">Client</text></g><g class="participant participant-tail" data-entity-uid="part2" data-qualified-name="oscc" data-source-line="4" id="part2-tail"><rect fill="#E2E2F0" height="46.5938" rx="2.5" ry="2.5" style="stroke:#181818;stroke-width:0.5;" width="168.3281" x="255.1987" y="768.3828"/><text fill="#000000" font-family="sans-serif" font-size="14" lengthAdjust="spacing" textLength="154.3281" x="262.1987" y="788.3779">Open Science Catalog</text><text fill="#000000" font-family="sans-serif" font-size="14" lengthAdjust="spacing" textLength="40.5303" x="319.0977" y="804.6748">Client</text></g><g class="participant participant-head" data-entity-uid="part3" data-qualified-name="apr" data-source-line="5" id="part3-head"><text fill="#000000" font-family="sans-serif" font-size="14" lengthAdjust="spacing" textLength="211.2646" x="498.4766" y="115.292">Application Packages Registry</text><path d="M589.1089,66.2969 C589.1089,56.2969 607.1089,56.2969 607.1089,56.2969 C607.1089,56.2969 625.1089,56.2969 625.1089,66.2969 L625.1089,92.2969 C625.1089,102.2969 607.1089,102.2969 607.1089,102.2969 C607.1089,102.2969 589.1089,102.2969 589.1089,92.2969 L589.1089,66.2969" fill="#E2E2F0" style="stroke:#181818;stroke-width:0.5;"/><path d="M589.1089,66.2969 C589.1089,76.2969 607.1089,76.2969 607.1089,76.2969 C607.1089,76.2969 625.1089,76.2969 625.1089,66.2969" fill="none" style="stroke:#181818;stroke-width:0.5;"/></g><g class="participant participant-tail" data-entity-uid="part3" data-qualified-name="apr" data-source-line="5" id="part3-tail"><text fill="#000000" font-family="sans-serif" font-size="14" lengthAdjust="spacing" textLength="211.2646" x="498.4766" y="781.3779">Application Packages Registry</text><path d="M589.1089,794.6797 C589.1089,784.6797 607.1089,784.6797 607.1089,784.6797 C607.1089,784.6797 625.1089,784.6797 625.1089,794.6797 L625.1089,820.6797 C625.1089,830.6797 607.1089,830.6797 607.1089,830.6797 C607.1089,830.6797 589.1089,830.6797 589.1089,820.6797 L589.1089,794.6797" fill="#E2E2F0" style="stroke:#181818;stroke-width:0.5;"/><path d="M589.1089,794.6797 C589.1089,804.6797 607.1089,804.6797 607.1089,804.6797 C607.1089,804.6797 625.1089,804.6797 625.1089,794.6797" fill="none" style="stroke:#181818;stroke-width:0.5;"/></g><g class="participant participant-head" data-entity-uid="part4" data-qualified-name="oap" data-source-line="6" id="part4-head"><rect fill="#E2E2F0" height="30.2969" rx="2.5" ry="2.5" style="stroke:#181818;stroke-width:0.5;" width="146.2617" x="725.7412" y="87.2969"/><text fill="#000000" font-family="sans-serif" font-size="14" lengthAdjust="spacing" textLength="132.2617" x="732.7412" y="107.292">OGC API Processes</text></g><g class="participant participant-tail" data-entity-uid="part4" data-qualified-name="oap" data-source-line="6" id="part4-tail"><rect fill="#E2E2F0" height="30.2969" rx="2.5" ry="2.5" style="stroke:#181818;stroke-width:0.5;" width="146.2617" x="725.7412" y="768.3828"/><text fill="#000000" font-family="sans-serif" font-size="14" lengthAdjust="spacing" textLength="132.2617" x="732.7412" y="788.3779">OGC API Processes</text></g><g class="participant participant-head" data-entity-uid="part5" data-qualified-name="fs" data-source-line="7" id="part5-head"><text fill="#000000" font-family="sans-serif" font-size="14" lengthAdjust="spacing" textLength="81.1016" x="882.0029" y="115.292">File System</text><path d="M907.5537,66.2969 C907.5537,56.2969 925.5537,56.2969 925.5537,56.2969 C925.5537,56.2969 943.5537,56.2969 943.5537,66.2969 L943.5537,92.2969 C943.5537,102.2969 925.5537,102.2969 925.5537,102.2969 C925.5537,102.2969 907.5537,102.2969 907.5537,92.2969 L907.5537,66.2969" fill="#E2E2F0" style="stroke:#181818;stroke-width:0.5;"/><path d="M907.5537,66.2969 C907.5537,76.2969 925.5537,76.2969 925.5537,76.2969 C925.5537,76.2969 943.5537,76.2969 943.5537,66.2969" fill="none" style="stroke:#181818;stroke-width:0.5;"/></g><g class="participant participant-tail" data-entity-uid="part5" data-qualified-name="fs" data-source-line="7" id="part5-tail"><text fill="#000000" font-family="sans-serif" font-size="14" lengthAdjust="spacing" textLength="81.1016" x="882.0029" y="781.3779">File System</text><path d="M907.5537,794.6797 C907.5537,784.6797 925.5537,784.6797 925.5537,784.6797 C925.5537,784.6797 943.5537,784.6797 943.5537,794.6797 L943.5537,820.6797 C943.5537,830.6797 925.5537,830.6797 925.5537,830.6797 C925.5537,830.6797 907.5537,830.6797 907.5537,820.6797 L907.5537,794.6797" fill="#E2E2F0" style="stroke:#181818;stroke-width:0.5;"/><path d="M907.5537,794.6797 C907.5537,804.6797 925.5537,804.6797 925.5537,804.6797 C925.5537,804.6797 943.5537,804.6797 943.5537,794.6797" fill="none" style="stroke:#181818;stroke-width:0.5;"/></g><g class="participant participant-head" data-entity-uid="part6" data-qualified-name="osc" data-source-line="8" id="part6-head"><rect fill="#E2E2F0" height="30.2969" rx="2.5" ry="2.5" style="stroke:#181818;stroke-width:0.5;" width="168.3281" x="979.1045" y="87.2969"/><text fill="#000000" font-family="sans-serif" font-size="14" lengthAdjust="spacing" textLength="154.3281" x="986.1045" y="107.292">Open Science Catalog</text></g><g class="participant participant-tail" data-entity-uid="part6" data-qualified-name="osc" data-source-line="8" id="part6-tail"><rect fill="#E2E2F0" height="30.2969" rx="2.5" ry="2.5" style="stroke:#181818;stroke-width:0.5;" width="168.3281" x="979.1045" y="768.3828"/><text fill="#000000" font-family="sans-serif" font-size="14" lengthAdjust="spacing" textLength="154.3281" x="986.1045" y="788.3779">Open Science Catalog</text></g><g><title>Operator</title><rect fill="#FFFFFF" height="631.7891" style="stroke:#181818;stroke-width:1;" width="10" x="34.3325" y="128.5938"/></g><g><title>Open Science Catalog</title><rect fill="#FFFFFF" height="631.7891" style="stroke:#181818;stroke-width:1;" width="10" x="334.3628" y="128.5938"/></g><g><title>Application Packages Registry</title><rect fill="#FFFFFF" height="29.1328" style="stroke:#181818;stroke-width:1;" width="10" x="602.1089" y="266.2578"/></g><g><title>OGC API Processes</title><rect fill="#FFFFFF" height="29.1328" style="stroke:#181818;stroke-width:1;" width="10" x="793.8721" y="405.9219"/></g><g><title>OGC API Processes</title><rect fill="#FFFFFF" height="29.1328" style="stroke:#181818;stroke-width:1;" width="10" x="793.8721" y="495.3203"/></g><g><title>File System</title><rect fill="#FFFFFF" height="631.7891" style="stroke:#181818;stroke-width:1;" width="10" x="920.5537" y="128.5938"/></g><g><title>Open Science Catalog</title><rect fill="#FFFFFF" height="29.1328" style="stroke:#181818;stroke-width:1;" width="10" x="1058.2686" y="671.1172"/></g><g class="message" data-entity-1="part1" data-entity-2="part2" data-source-line="14" id="msg1"><polygon fill="#181818" points="322.3628,145.7266,332.3628,149.7266,322.3628,153.7266,326.3628,149.7266" style="stroke:#181818;stroke-width:1;"/><line style="stroke:#181818;stroke-width:1;" x1="44.3325" x2="328.3628" y1="149.7266" y2="149.7266"/><text fill="#000000" font-family="sans-serif" font-size="13" lengthAdjust="spacing" textLength="198.8911" x="51.3325" y="144.6606">Configure Application Package</text></g><g class="message" data-entity-1="part1" data-entity-2="part2" data-source-line="15" id="msg2"><polygon fill="#181818" points="322.3628,174.8594,332.3628,178.8594,322.3628,182.8594,326.3628,178.8594" style="stroke:#181818;stroke-width:1;"/><line style="stroke:#181818;stroke-width:1;" x1="44.3325" x2="328.3628" y1="178.8594" y2="178.8594"/><text fill="#000000" font-family="sans-serif" font-size="13" lengthAdjust="spacing" textLength="240.5063" x="51.3325" y="173.7935">Configure OGC API Records workflow</text></g><g class="message" data-entity-1="part1" data-entity-2="part2" data-source-line="16" id="msg3"><polygon fill="#181818" points="322.3628,203.9922,332.3628,207.9922,322.3628,211.9922,326.3628,207.9922" style="stroke:#181818;stroke-width:1;"/><line style="stroke:#181818;stroke-width:1;" x1="44.3325" x2="328.3628" y1="207.9922" y2="207.9922"/><text fill="#000000" font-family="sans-serif" font-size="13" lengthAdjust="spacing" textLength="266.0303" x="51.3325" y="202.9263">Configure OGC API Processes entry point</text></g><g class="message" data-entity-1="part1" data-entity-2="part2" data-source-line="17" id="msg4"><polygon fill="#181818" points="322.3628,233.125,332.3628,237.125,322.3628,241.125,326.3628,237.125" style="stroke:#181818;stroke-width:1;"/><line style="stroke:#181818;stroke-width:1;" x1="44.3325" x2="328.3628" y1="237.125" y2="237.125"/><text fill="#000000" font-family="sans-serif" font-size="13" lengthAdjust="spacing" textLength="232.3877" x="51.3325" y="232.0591">Configure OGC API Processes Job ID</text></g><g class="message" data-entity-1="part2" data-entity-2="part3" data-source-line="18" id="msg5"><polygon fill="#181818" points="590.1089,262.2578,600.1089,266.2578,590.1089,270.2578,594.1089,266.2578" style="stroke:#181818;stroke-width:1;"/><line style="stroke:#181818;stroke-width:1;" x1="344.3628" x2="596.1089" y1="266.2578" y2="266.2578"/><text fill="#000000" font-family="sans-serif" font-size="13" lengthAdjust="spacing" textLength="151.2837" x="351.3628" y="261.1919">Request CWL Workflow</text></g><g class="message" data-entity-1="part3" data-entity-2="part2" data-source-line="19" id="msg6"><polygon fill="#181818" points="355.3628,291.3906,345.3628,295.3906,355.3628,299.3906,351.3628,295.3906" style="stroke:#181818;stroke-width:1;"/><line style="stroke:#181818;stroke-width:1;stroke-dasharray:2,2;" x1="349.3628" x2="606.1089" y1="295.3906" y2="295.3906"/><text fill="#000000" font-family="sans-serif" font-size="13" lengthAdjust="spacing" textLength="172.0532" x="361.3628" y="290.3247">Provide the CWL Workflow</text></g><g class="message" data-entity-1="part2" data-entity-2="part2" data-source-line="21" id="msg7"><line style="stroke:#181818;stroke-width:1;" x1="344.3628" x2="386.3628" y1="339.6563" y2="339.6563"/><line style="stroke:#181818;stroke-width:1;" x1="386.3628" x2="386.3628" y1="339.6563" y2="352.6563"/><line style="stroke:#181818;stroke-width:1;" x1="345.3628" x2="386.3628" y1="352.6563" y2="352.6563"/><polygon fill="#181818" points="355.3628,348.6563,345.3628,352.6563,355.3628,356.6563,351.3628,352.6563" style="stroke:#181818;stroke-width:1;"/><text fill="#000000" font-family="sans-serif" font-size="13" lengthAdjust="spacing" textLength="220.8032" x="351.3628" y="319.4575">Transpile the Application Package</text><text fill="#000000" font-family="sans-serif" font-size="13" lengthAdjust="spacing" textLength="127.8989" x="351.3628" y="334.5903">to OGC API Records</text></g><path d="M245.1987,367.6563 L321.8228,367.6563 L321.8228,374.7891 L311.8228,384.7891 L245.1987,384.7891 L245.1987,367.6563" fill="#EEEEEE" style="stroke:#000000;stroke-width:1.5;"/><rect fill="none" height="75.3984" style="stroke:#000000;stroke-width:1.5;" width="636.8042" x="245.1987" y="367.6563"/><text fill="#000000" font-family="sans-serif" font-size="13" font-weight="700" lengthAdjust="spacing" textLength="31.624" x="260.1987" y="380.7231">loop</text><text fill="#000000" font-family="sans-serif" font-size="11" font-weight="700" lengthAdjust="spacing" textLength="283.9321" x="336.8228" y="379.8667">[StatusInfo.status is "accepted" or "running"]</text><g class="message" data-entity-1="part2" data-entity-2="part4" data-source-line="24" id="msg8"><polygon fill="#181818" points="781.8721,401.9219,791.8721,405.9219,781.8721,409.9219,785.8721,405.9219" style="stroke:#181818;stroke-width:1;"/><line style="stroke:#181818;stroke-width:1;" x1="344.3628" x2="787.8721" y1="405.9219" y2="405.9219"/><text fill="#000000" font-family="monospace" font-size="13" lengthAdjust="spacing" textLength="133.0532" x="351.3628" y="400.856">GET&#160;/jobs/{jobId}</text></g><g class="message" data-entity-1="part4" data-entity-2="part2" data-source-line="25" id="msg9"><polygon fill="#181818" points="355.3628,431.0547,345.3628,435.0547,355.3628,439.0547,351.3628,435.0547" style="stroke:#181818;stroke-width:1;"/><line style="stroke:#181818;stroke-width:1;stroke-dasharray:2,2;" x1="349.3628" x2="797.8721" y1="435.0547" y2="435.0547"/><text fill="#000000" font-family="sans-serif" font-size="13" lengthAdjust="spacing" textLength="143.0254" x="361.3628" y="429.9888">Provide Job StatusInfo</text></g><path d="M235.1987,457.0547 L299.6416,457.0547 L299.6416,464.1875 L289.6416,474.1875 L235.1987,474.1875 L235.1987,457.0547" fill="#EEEEEE" style="stroke:#000000;stroke-width:1.5;"/><rect fill="none" height="295.3281" style="stroke:#000000;stroke-width:1.5;" width="922.2339" x="235.1987" y="457.0547"/><text fill="#000000" font-family="sans-serif" font-size="13" font-weight="700" lengthAdjust="spacing" textLength="19.4429" x="250.1987" y="470.1216">alt</text><text fill="#000000" font-family="sans-serif" font-size="11" font-weight="700" lengthAdjust="spacing" textLength="220.709" x="314.6416" y="469.2651">["succeeded" == StatusInfo.status]</text><g class="message" data-entity-1="part2" data-entity-2="part4" data-source-line="29" id="msg10"><polygon fill="#181818" points="781.8721,491.3203,791.8721,495.3203,781.8721,499.3203,785.8721,495.3203" style="stroke:#181818;stroke-width:1;"/><line style="stroke:#181818;stroke-width:1;" x1="344.3628" x2="787.8721" y1="495.3203" y2="495.3203"/><text fill="#000000" font-family="monospace" font-size="13" lengthAdjust="spacing" textLength="195.6665" x="351.3628" y="490.2544">GET&#160;/jobs/{jobId}/results</text></g><g class="message" data-entity-1="part4" data-entity-2="part2" data-source-line="30" id="msg11"><polygon fill="#181818" points="355.3628,520.4531,345.3628,524.4531,355.3628,528.4531,351.3628,524.4531" style="stroke:#181818;stroke-width:1;"/><line style="stroke:#181818;stroke-width:1;stroke-dasharray:2,2;" x1="349.3628" x2="797.8721" y1="524.4531" y2="524.4531"/><text fill="#000000" font-family="sans-serif" font-size="13" lengthAdjust="spacing" textLength="230.7119" x="361.3628" y="519.3872">Provide FeatureCollection response</text></g><path d="M245.1987,539.4531 L321.8228,539.4531 L321.8228,546.5859 L311.8228,556.5859 L245.1987,556.5859 L245.1987,539.4531" fill="#EEEEEE" style="stroke:#000000;stroke-width:1.5;"/><rect fill="none" height="74.3984" style="stroke:#000000;stroke-width:1.5;" width="361.9102" x="245.1987" y="539.4531"/><text fill="#000000" font-family="sans-serif" font-size="13" font-weight="700" lengthAdjust="spacing" textLength="31.624" x="260.1987" y="552.52">loop</text><text fill="#000000" font-family="sans-serif" font-size="11" font-weight="700" lengthAdjust="spacing" textLength="176.3652" x="336.8228" y="551.6636">[FeatureCollection.features]</text><g class="message" data-entity-1="part2" data-entity-2="part2" data-source-line="33" id="msg12"><line style="stroke:#181818;stroke-width:1;" x1="344.3628" x2="386.3628" y1="592.8516" y2="592.8516"/><line style="stroke:#181818;stroke-width:1;" x1="386.3628" x2="386.3628" y1="592.8516" y2="605.8516"/><line style="stroke:#181818;stroke-width:1;" x1="345.3628" x2="386.3628" y1="605.8516" y2="605.8516"/><polygon fill="#181818" points="355.3628,601.8516,345.3628,605.8516,355.3628,609.8516,351.3628,605.8516" style="stroke:#181818;stroke-width:1;"/><text fill="#000000" font-family="sans-serif" font-size="13" lengthAdjust="spacing" textLength="42.4404" x="351.3628" y="572.6528">Attach</text><text fill="#000000" font-family="monospace" font-size="13" lengthAdjust="spacing" textLength="117.3999" x="397.9355" y="572.6528">link.rel&#160;=&#160;item</text><text fill="#000000" font-family="sans-serif" font-size="13" lengthAdjust="spacing" textLength="65.6411" x="519.4678" y="572.6528">link to the</text><text fill="#000000" font-family="sans-serif" font-size="13" lengthAdjust="spacing" textLength="110.7158" x="351.3628" y="587.7856">OGC API Records</text></g><g class="message" data-entity-1="part2" data-entity-2="part5" data-source-line="36" id="msg13"><polygon fill="#181818" points="908.5537,637.9844,918.5537,641.9844,908.5537,645.9844,912.5537,641.9844" style="stroke:#181818;stroke-width:1;"/><line style="stroke:#181818;stroke-width:1;" x1="344.3628" x2="914.5537" y1="641.9844" y2="641.9844"/><text fill="#000000" font-family="sans-serif" font-size="13" lengthAdjust="spacing" textLength="55.2183" x="351.3628" y="636.9185">Serialize</text><text fill="#000000" font-family="monospace" font-size="13" lengthAdjust="spacing" textLength="101.7466" x="410.7134" y="636.9185">products.json</text></g><g class="message" data-entity-1="part2" data-entity-2="part6" data-source-line="37" id="msg14"><polygon fill="#181818" points="1046.2686,667.1172,1056.2686,671.1172,1046.2686,675.1172,1050.2686,671.1172" style="stroke:#181818;stroke-width:1;"/><line style="stroke:#181818;stroke-width:1;" x1="344.3628" x2="1052.2686" y1="671.1172" y2="671.1172"/><text fill="#000000" font-family="sans-serif" font-size="13" lengthAdjust="spacing" textLength="111.6743" x="351.3628" y="666.0513">Upload serialized</text><text fill="#000000" font-family="monospace" font-size="13" lengthAdjust="spacing" textLength="101.7466" x="467.1694" y="666.0513">products.json</text></g><g class="message" data-entity-1="part6" data-entity-2="part2" data-source-line="38" id="msg15"><polygon fill="#181818" points="355.3628,696.25,345.3628,700.25,355.3628,704.25,351.3628,700.25" style="stroke:#181818;stroke-width:1;"/><line style="stroke:#181818;stroke-width:1;" x1="349.3628" x2="1062.2686" y1="700.25" y2="700.25"/><text fill="#000000" font-family="sans-serif" font-size="13" lengthAdjust="spacing" textLength="26.4951" x="361.3628" y="695.1841">ACK</text></g><line style="stroke:#000000;stroke-width:1;stroke-dasharray:2,2;" x1="235.1987" x2="1157.4326" y1="709.25" y2="709.25"/><g class="message" data-entity-1="part2" data-entity-2="part2" data-source-line="40" id="msg16"><line style="stroke:#181818;stroke-width:1;" x1="344.3628" x2="386.3628" y1="731.3828" y2="731.3828"/><line style="stroke:#181818;stroke-width:1;" x1="386.3628" x2="386.3628" y1="731.3828" y2="744.3828"/><line style="stroke:#181818;stroke-width:1;" x1="345.3628" x2="386.3628" y1="744.3828" y2="744.3828"/><polygon fill="#181818" points="355.3628,740.3828,345.3628,744.3828,355.3628,748.3828,351.3628,744.3828" style="stroke:#181818;stroke-width:1;"/><text fill="#000000" font-family="sans-serif" font-size="13" lengthAdjust="spacing" textLength="97.1191" x="351.3628" y="726.3169">Manage failure</text></g><?plantuml-src bLHDRzim3BtxLn2w5adk1J8WyDOY-y22f4ClkJ0IdQhH94sKLsJ3_lieEsxQDEYwYoo8VEHxJwAppOwWJeIP8DyHB58mhSuCXXhhRRR1LnNg719yZPImR90X7FPLn9IjjX5z1YKP7bRQajTI53Ewi5txsib1LXsCjQwC13R816eMexCQInDOeDxXbXYMjBMSqxu3O3njSLt3R34lF3Kn4_TrCJufUsL5qshFcRvtqOR_JNEWLrM3DBYug1ekQs5TliVGw5qd1IwX3hwnspOHd17pEc2GiYGTac5u26dNkF3mDjIZ0I3cfZt4O7t-N-Z7i87v-rwW8CHjqIcO9VreYJFKjv_XTg1LegEXxcWaQLBefpNzmtcM-bZnmE4ceUTOhgMadd5gxNCuDQIgN0WHLXbpotFVX35tMx0C2hMccCae4B4gjTvRlrN7lXXx9KfTVxY1oNtOyEIth7FpHqcQXCzBAOuSErRaZJn_9u-6M-b8fdISJb-IUbFdII9kNUPN6Lp9BCfjrS4vqfr7Weh1CnqCUP4mRleJFhLzbZFgEs7YhD-D4pcOWYrJeQ2SW7Wkzx7sfyPtgeTQCWENiA9aqTbVCbqg7duHutiENgcdJNlbtw8BQ807Z3aFWcVoP_MdYfo8FD7m1Rsy3sZGEf5OgFq5?></g></svg>