<svg xmlns="http://www.w3.org/2000/svg" xmlns:xlink="http://www.w3.org/1999/xlink" contentStyleType="text/css" data-diagram-type="SEQUENCE" height="452px" preserveAspectRatio="none" style="width:922px;height:452px;background:#FFFFFF;" version="1.1" viewBox="0 0 922 452" width="922px" zoomAndPan="magnify"><?plantuml 1.2026.4beta2?><defs/><g><g class="title" data-source-line="1"><text fill="#000000" font-family="sans-serif" font-size="14" font-weight="700" lengthAdjust="spacing" textLength="244.0498" x="335.5195" y="27.9951">Create the Workflow definition</text></g><g><title>Operator</title><rect fill="#FFFFFF" height="224.0625" style="stroke:#181818;stroke-width:1;" width="10" x="34.3325" y="128.5938"/></g><g><title>Open Science Catalog</title><rect fill="#FFFFFF" height="224.0625" style="stroke:#181818;stroke-width:1;" width="10" x="267.2236" y="128.5938"/></g><g><title>Application Packages Registry</title><rect fill="#FFFFFF" height="29.1328" style="stroke:#181818;stroke-width:1;" width="10" x="522.0269" y="178.8594"/></g><g><title>File System</title><rect fill="#FFFFFF" height="224.0625" style="stroke:#181818;stroke-width:1;" width="10" x="684.21" y="128.5938"/></g><g><title>Open Science Catalog</title><rect fill="#FFFFFF" height="29.1328" style="stroke:#181818;stroke-width:1;" width="10" x="821.9248" y="323.5234"/></g><g class="participant-lifeline" data-entity-uid="part1" data-qualified-name="operator" data-source-line="3" id="part1-lifeline"><g><title>Operator</title><rect fill="#000000" fill-opacity="0.00000" height="252.0625" width="8" x="35.3325" y="118.5938"/><line style="stroke:#181818;stroke-width:0.5;stroke-dasharray:5,5;" x1="39" x2="39" y1="118.5938" y2="370.6563"/></g></g><g class="participant-lifeline" data-entity-uid="part2" data-qualified-name="oscc" data-source-line="4" id="part2-lifeline"><g><title>Open Science Catalog</title><rect fill="#000000" fill-opacity="0.00000" height="252.0625" width="8" x="268.2236" y="118.5938"/><line style="stroke:#181818;stroke-width:0.5;stroke-dasharray:5,5;" x1="272.0596" x2="272.0596" y1="118.5938" y2="370.6563"/></g></g><g class="participant-lifeline" data-entity-uid="part3" data-qualified-name="apr" data-source-line="5" id="part3-lifeline"><g><title>Application Packages Registry</title><rect fill="#000000" fill-opacity="0.00000" height="252.0625" width="8" x="523.0269" y="118.5938"/><line style="stroke:#181818;stroke-width:0.5;stroke-dasharray:5,5;" x1="526.3945" x2="526.3945" y1="118.5938" y2="370.6563"/></g></g><g class="participant-lifeline" data-entity-uid="part4" data-qualified-name="fs" data-source-line="6" id="part4-lifeline"><g><title>File System</title><rect fill="#000000" fill-opacity="0.00000" height="252.0625" width="8" x="685.21" y="118.5938"/><line style="stroke:#181818;stroke-width:0.5;stroke-dasharray:5,5;" x1="688.6592" x2="688.6592" y1="118.5938" y2="370.6563"/></g></g><g class="participant-lifeline" data-entity-uid="part5" data-qualified-name="osc" data-source-line="7" id="part5-lifeline"><g><title>Open Science Catalog</title><rect fill="#000000" fill-opacity="0.00000" height="252.0625" width="8" x="822.9248" y="118.5938"/><line style="stroke:#181818;stroke-width:0.5;stroke-dasharray:5,5;" x1="826.7607" x2="826.7607" y1="118.5938" y2="370.6563"/></g></g><g class="participant participant-head" data-entity-uid="part1" data-qualified-name="operator" data-source-line="3" id="part1-head"><text fill="#000000" font-family="sans-serif" font-size="14" lengthAdjust="spacing" textLength="62.665" x="5" y="115.292">Operator</text><ellipse cx="39.3325" cy="50.7969" fill="#E2E2F0" rx="8" ry="8" style="stroke:#181818;stroke-width:0.5;"/><path d="M39.3325,58.7969 L39.3325,85.7969 M26.3325,66.7969 L52.3325,66.7969 M39.3325,85.7969 L26.3325,100.7969 M39.3325,85.7969 L52.3325,100.7969" fill="none" style="stroke:#181818;stroke-width:0.5;"/></g><g class="participant participant-tail" data-entity-uid="part1" data-qualified-name="operator" data-source-line="3" id="part1-tail"><text fill="#000000" font-family="sans-serif" font-size="14" lengthAdjust="spacing" textLength="62.665" x="5" y="382.6514">Operator</text><ellipse cx="39.3325" cy="394.4531" fill="#E2E2F0" rx="8" ry="8" style="stroke:#181818;stroke-width:0.5;"/><path d="M39.3325,402.4531 L39.3325,429.4531 M26.3325,410.4531 L52.3325,410.4531 M39.3325,429.4531 L26.3325,444.4531 M39.3325,429.4531 L52.3325,444.4531" fill="none" style="stroke:#181818;stroke-width:0.5;"/></g><g class="participant participant-head" data-entity-uid="part2" data-qualified-name="oscc" data-source-line="4" id="part2-head"><rect fill="#E2E2F0" height="46.5938" rx="2.5" ry="2.5" style="stroke:#181818;stroke-width:0.5;" width="168.3281" x="188.0596" y="71"/><text fill="#000000" font-family="sans-serif" font-size="14" lengthAdjust="spacing" textLength="154.3281" x="195.0596" y="90.9951">Open Science Catalog</text><text fill="#000000" font-family="sans-serif" font-size="14" lengthAdjust="spacing" textLength="40.5303" x="251.9585" y="107.292">Client</text></g><g class="participant participant-tail" data-entity-uid="part2" data-qualified-name="oscc" data-source-line="4" id="part2-tail"><rect fill="#E2E2F0" height="46.5938" rx="2.5" ry="2.5" style="stroke:#181818;stroke-width:0.5;" width="168.3281" x="188.0596" y="369.6563"/><text fill="#000000" font-family="sans-serif" font-size="14" lengthAdjust="spacing" textLength="154.3281" x="195.0596" y="389.6514">Open Science Catalog</text><text fill="#000000" font-family="sans-serif" font-size="14" lengthAdjust="spacing" textLength="40.5303" x="251.9585" y="405.9482">Client</text></g><g class="participant participant-head" data-entity-uid="part3" data-qualified-name="apr" data-source-line="5" id="part3-head"><text fill="#000000" font-family="sans-serif" font-size="14" lengthAdjust="spacing" textLength="211.2646" x="418.3945" y="115.292">Application Packages Registry</text><path d="M509.0269,66.2969 C509.0269,56.2969 527.0269,56.2969 527.0269,56.2969 C527.0269,56.2969 545.0269,56.2969 545.0269,66.2969 L545.0269,92.2969 C545.0269,102.2969 527.0269,102.2969 527.0269,102.2969 C527.0269,102.2969 509.0269,102.2969 509.0269,92.2969 L509.0269,66.2969" fill="#E2E2F0" style="stroke:#181818;stroke-width:0.5;"/><path d="M509.0269,66.2969 C509.0269,76.2969 527.0269,76.2969 527.0269,76.2969 C527.0269,76.2969 545.0269,76.2969 545.0269,66.2969" fill="none" style="stroke:#181818;stroke-width:0.5;"/></g><g class="participant participant-tail" data-entity-uid="part3" data-qualified-name="apr" data-source-line="5" id="part3-tail"><text fill="#000000" font-family="sans-serif" font-size="14" lengthAdjust="spacing" textLength="211.2646" x="418.3945" y="382.6514">Application Packages Registry</text><path d="M509.0269,395.9531 C509.0269,385.9531 527.0269,385.9531 527.0269,385.9531 C527.0269,385.9531 545.0269,385.9531 545.0269,395.9531 L545.0269,421.9531 C545.0269,431.9531 527.0269,431.9531 527.0269,431.9531 C527.0269,431.9531 509.0269,431.9531 509.0269,421.9531 L509.0269,395.9531" fill="#E2E2F0" style="stroke:#181818;stroke-width:0.5;"/><path d="M509.0269,395.9531 C509.0269,405.9531 527.0269,405.9531 527.0269,405.9531 C527.0269,405.9531 545.0269,405.9531 545.0269,395.9531" fill="none" style="stroke:#181818;stroke-width:0.5;"/></g><g class="participant participant-head" data-entity-uid="part4" data-qualified-name="fs" data-source-line="6" id="part4-head"><text fill="#000000" font-family="sans-serif" font-size="14" lengthAdjust="spacing" textLength="81.1016" x="645.6592" y="115.292">File System</text><path d="M671.21,66.2969 C671.21,56.2969 689.21,56.2969 689.21,56.2969 C689.21,56.2969 707.21,56.2969 707.21,66.2969 L707.21,92.2969 C707.21,102.2969 689.21,102.2969 689.21,102.2969 C689.21,102.2969 671.21,102.2969 671.21,92.2969 L671.21,66.2969" fill="#E2E2F0" style="stroke:#181818;stroke-width:0.5;"/><path d="M671.21,66.2969 C671.21,76.2969 689.21,76.2969 689.21,76.2969 C689.21,76.2969 707.21,76.2969 707.21,66.2969" fill="none" style="stroke:#181818;stroke-width:0.5;"/></g><g class="participant participant-tail" data-entity-uid="part4" data-qualified-name="fs" data-source-line="6" id="part4-tail"><text fill="#000000" font-family="sans-serif" font-size="14" lengthAdjust="spacing" textLength="81.1016" x="645.6592" y="382.6514">File System</text><path d="M671.21,395.9531 C671.21,385.9531 689.21,385.9531 689.21,385.9531 C689.21,385.9531 707.21,385.9531 707.21,395.9531 L707.21,421.9531 C707.21,431.9531 689.21,431.9531 689.21,431.9531 C689.21,431.9531 671.21,431.9531 671.21,421.9531 L671.21,395.9531" fill="#E2E2F0" style="stroke:#181818;stroke-width:0.5;"/><path d="M671.21,395.9531 C671.21,405.9531 689.21,405.9531 689.21,405.9531 C689.21,405.9531 707.21,405.9531 707.21,395.9531" fill="none" style="stroke:#181818;stroke-width:0.5;"/></g><g class="participant participant-head" data-entity-uid="part5" data-qualified-name="osc" data-source-line="7" id="part5-head"><rect fill="#E2E2F0" height="30.2969" rx="2.5" ry="2.5" style="stroke:#181818;stroke-width:0.5;" width="168.3281" x="742.7607" y="87.2969"/><text fill="#000000" font-family="sans-serif" font-size="14" lengthAdjust="spacing" textLength="154.3281" x="749.7607" y="107.292">Open Science Catalog</text></g><g class="participant participant-tail" data-entity-uid="part5" data-qualified-name="osc" data-source-line="7" id="part5-tail"><rect fill="#E2E2F0" height="30.2969" rx="2.5" ry="2.5" style="stroke:#181818;stroke-width:0.5;" width="168.3281" x="742.7607" y="369.6563"/><text fill="#000000" font-family="sans-serif" font-size="14" lengthAdjust="spacing" textLength="154.3281" x="749.7607" y="389.6514">Open Science Catalog</text></g><g><title>Operator</title><rect fill="#FFFFFF" height="224.0625" style="stroke:#181818;stroke-width:1;" width="10" x="34.3325" y="128.5938"/></g><g><title>Open Science Catalog</title><rect fill="#FFFFFF" height="224.0625" style="stroke:#181818;stroke-width:1;" width="10" x="267.2236" y="128.5938"/></g><g><title>Application Packages Registry</title><rect fill="#FFFFFF" height="29.1328" style="stroke:#181818;stroke-width:1;" width="10" x="522.0269" y="178.8594"/></g><g><title>File System</title><rect fill="#FFFFFF" height="224.0625" style="stroke:#181818;stroke-width:1;" width="10" x="684.21" y="128.5938"/></g><g><title>Open Science Catalog</title><rect fill="#FFFFFF" height="29.1328" style="stroke:#181818;stroke-width:1;" width="10" x="821.9248" y="323.5234"/></g><g class="message" data-entity-1="part1" data-entity-2="part2" data-source-line="13" id="msg1"><polygon fill="#181818" points="255.2236,145.7266,265.2236,149.7266,255.2236,153.7266,259.2236,149.7266" style="stroke:#181818;stroke-width:1;"/><line style="stroke:#181818;stroke-width:1;" x1="44.3325" x2="261.2236" y1="149.7266" y2="149.7266"/><text fill="#000000" font-family="sans-serif" font-size="13" lengthAdjust="spacing" textLength="198.8911" x="51.3325" y="144.6606">Configure Application Package</text></g><g class="message" data-entity-1="part2" data-entity-2="part3" data-source-line="14" id="msg2"><polygon fill="#181818" points="510.0269,174.8594,520.0269,178.8594,510.0269,182.8594,514.0269,178.8594" style="stroke:#181818;stroke-width:1;"/><line style="stroke:#181818;stroke-width:1;" x1="277.2236" x2="516.0269" y1="178.8594" y2="178.8594"/><text fill="#000000" font-family="sans-serif" font-size="13" lengthAdjust="spacing" textLength="151.2837" x="284.2236" y="173.7935">Request CWL Workflow</text></g><g class="message" data-entity-1="part3" data-entity-2="part2" data-source-line="15" id="msg3"><polygon fill="#181818" points="288.2236,203.9922,278.2236,207.9922,288.2236,211.9922,284.2236,207.9922" style="stroke:#181818;stroke-width:1;"/><line style="stroke:#181818;stroke-width:1;stroke-dasharray:2,2;" x1="282.2236" x2="526.0269" y1="207.9922" y2="207.9922"/><text fill="#000000" font-family="sans-serif" font-size="13" lengthAdjust="spacing" textLength="172.0532" x="294.2236" y="202.9263">Provide the CWL Workflow</text></g><g class="message" data-entity-1="part2" data-entity-2="part2" data-source-line="17" id="msg4"><line style="stroke:#181818;stroke-width:1;" x1="277.2236" x2="319.2236" y1="252.2578" y2="252.2578"/><line style="stroke:#181818;stroke-width:1;" x1="319.2236" x2="319.2236" y1="252.2578" y2="265.2578"/><line style="stroke:#181818;stroke-width:1;" x1="278.2236" x2="319.2236" y1="265.2578" y2="265.2578"/><polygon fill="#181818" points="288.2236,261.2578,278.2236,265.2578,288.2236,269.2578,284.2236,265.2578" style="stroke:#181818;stroke-width:1;"/><text fill="#000000" font-family="sans-serif" font-size="13" lengthAdjust="spacing" textLength="220.8032" x="284.2236" y="232.0591">Transpile the Application Package</text><text fill="#000000" font-family="sans-serif" font-size="13" lengthAdjust="spacing" textLength="127.8989" x="284.2236" y="247.1919">to OGC API Records</text></g><g class="message" data-entity-1="part2" data-entity-2="part4" data-source-line="19" id="msg5"><polygon fill="#181818" points="672.21,290.3906,682.21,294.3906,672.21,298.3906,676.21,294.3906" style="stroke:#181818;stroke-width:1;"/><line style="stroke:#181818;stroke-width:1;" x1="277.2236" x2="678.21" y1="294.3906" y2="294.3906"/><text fill="#000000" font-family="sans-serif" font-size="13" lengthAdjust="spacing" textLength="55.2183" x="284.2236" y="289.3247">Serialize</text><text fill="#000000" font-family="monospace" font-size="13" lengthAdjust="spacing" textLength="101.7466" x="343.5742" y="289.3247">workflow.json</text></g><g class="message" data-entity-1="part2" data-entity-2="part5" data-source-line="21" id="msg6"><polygon fill="#181818" points="809.9248,319.5234,819.9248,323.5234,809.9248,327.5234,813.9248,323.5234" style="stroke:#181818;stroke-width:1;"/><line style="stroke:#181818;stroke-width:1;" x1="277.2236" x2="815.9248" y1="323.5234" y2="323.5234"/><text fill="#000000" font-family="sans-serif" font-size="13" lengthAdjust="spacing" textLength="111.6743" x="284.2236" y="318.4575">Upload serialized</text><text fill="#000000" font-family="monospace" font-size="13" lengthAdjust="spacing" textLength="101.7466" x="400.0303" y="318.4575">workflow.json</text></g><g class="message" data-entity-1="part5" data-entity-2="part2" data-source-line="22" id="msg7"><polygon fill="#181818" points="283.2236,348.6563,273.2236,352.6563,283.2236,356.6563,279.2236,352.6563" style="stroke:#181818;stroke-width:1;"/><line style="stroke:#181818;stroke-width:1;" x1="277.2236" x2="825.9248" y1="352.6563" y2="352.6563"/><text fill="#000000" font-family="sans-serif" font-size="13" lengthAdjust="spacing" textLength="26.4951" x="289.2236" y="347.5903">ACK</text></g><?plantuml-src XL3DQiCm3BxxAKIk9Nk07WObi34sQ6atUkb5SvHCQsPxjhhIFVtaDEaF57QnZVNzwHEMZg2AX48W7mHh7xTDv_TGKyEEXRqp1gtu2FD04VC34_ZXRG96OSi1dK2X20Sho-IiYg9WvzkDgphzaAAd9MjDhODtJ0J5B8IEBMOJMA3TOai9bjHoadZe2HZY1Vw1DUpga8I--ccJ_lSVVOqPCyDaOfgKpnmdt-THUTzdX2bKtZNSxYB1ZPH7fe8rdmeeV4dVEqe2rVhbrA79qtAKB4k5BQB_uVfOzHNqf3ZOlqPqAUHzC_H6X8qJ3_F72cQB9tMtFjRfhABxJM55aR7ZNssks0z6Tv_9kwAuyZjky1OwZpMaaLJVO6NmrJwpwjbSrbVcPlKS47y0?></g></svg>